<?xml version="1.0" encoding="utf-8"?>
<!-- Generator: Adobe Illustrator 25.2.0, SVG Export Plug-In . SVG Version: 6.00 Build 0)  -->
<svg version="1.1" id="Layer_1" xmlns="http://www.w3.org/2000/svg" xmlns:xlink="http://www.w3.org/1999/xlink" x="0px" y="0px"
	 viewBox="0 0 15.4 15.4" style="enable-background:new 0 0 15.4 15.4;" xml:space="preserve">
<style type="text/css">
	.st0{fill:#9028A3;}
</style>
<path class="st0" d="M7.7,0C3.4,0,0,3.4,0,7.7s3.4,7.7,7.7,7.7s7.7-3.4,7.7-7.7S12,0,7.7,0z M12.3,5.9v3.5c0,0.6-0.5,1-1,1H7.4
	L6,11.8l-0.6,0.6v-1.9H4.3c-0.1,0-0.3,0-0.4-0.1c-0.1,0-0.1-0.1-0.2-0.1c-0.1,0-0.1-0.1-0.2-0.1C3.5,10.1,3.5,10,3.4,10
	c0,0,0-0.1,0-0.1c0-0.1-0.1-0.1-0.1-0.2c0-0.1,0-0.1,0-0.2v-4c0-0.1,0-0.1,0-0.2c0-0.1,0-0.1,0.1-0.2c0,0,0-0.1,0-0.1
	c0.1-0.1,0.1-0.2,0.2-0.2c0.1-0.1,0.1-0.1,0.2-0.1c0.1,0,0.1-0.1,0.2-0.1C4,4.5,4.2,4.4,4.3,4.4h7c0.1,0,0.3,0,0.4,0.1
	c0.1,0,0.1,0.1,0.2,0.1c0.1,0,0.1,0.1,0.2,0.1C12,4.8,12.1,4.9,12.2,5c0,0,0,0.1,0,0.1c0,0.1,0.1,0.1,0.1,0.2c0,0.1,0,0.1,0,0.2V5.9
	z"/>
</svg>
