<?xml version="1.0" encoding="utf-8"?>
<!-- Generator: Adobe Illustrator 25.2.1, SVG Export Plug-In . SVG Version: 6.00 Build 0)  -->
<svg version="1.1" id="Layer_1" xmlns="http://www.w3.org/2000/svg" xmlns:xlink="http://www.w3.org/1999/xlink" x="0px" y="0px"
	 viewBox="0 0 15.4 15.4" style="enable-background:new 0 0 15.4 15.4;" xml:space="preserve">
<style type="text/css">
	.st0{fill:#1E9575;}
</style>
<g>
	<path class="st0" d="M3.1,7.6c0.3,0.3,1.1,1.1,2.1,1.7C5,8.8,4.8,8.3,4.8,7.7C4.8,7.1,5,6.5,5.3,6C4.4,6.5,3.7,7.1,3.1,7.6z"/>
	<path class="st0" d="M10.8,7.7c0,0.6-0.2,1.1-0.4,1.5c1-0.6,1.8-1.4,2.1-1.7c-0.5-0.5-1.3-1.1-2.2-1.5C10.6,6.5,10.8,7.1,10.8,7.7z
		"/>
	<path class="st0" d="M7.8,5.4c-1.3,0-2.3,1-2.3,2.3c0,1.3,1,2.3,2.3,2.3c1.3,0,2.3-1,2.3-2.3C10.1,6.4,9.1,5.4,7.8,5.4z M9.6,7.7
		c0,1-0.8,1.9-1.9,1.9c-1,0-1.9-0.8-1.9-1.9c0-1,0.8-1.9,1.9-1.9c0.2,0,0.4,0,0.6,0.1C8.1,6.1,7.9,6.4,7.9,6.7
		c0,0.5,0.4,0.9,0.9,0.9c0.3,0,0.6-0.2,0.8-0.5C9.6,7.3,9.6,7.5,9.6,7.7z"/>
	<path class="st0" d="M7.7,0C3.4,0,0,3.4,0,7.7s3.4,7.7,7.7,7.7s7.7-3.4,7.7-7.7S12,0,7.7,0z M13.6,8.6c-0.1,0-0.2,0-0.3-0.1
		c0,0-0.1-0.2-0.4-0.4c-0.6,0.7-2.7,2.7-5.2,2.7S3.2,8.7,2.6,8C2.4,8.3,2.2,8.4,2.2,8.5c-0.1,0.1-0.3,0.2-0.5,0
		C1.6,8.4,1.6,8.2,1.7,8c0.1-0.1,2.7-3.3,6.1-3.3c3.3,0,6,3.2,6.1,3.3c0.1,0.1,0.1,0.4,0,0.5C13.8,8.6,13.7,8.6,13.6,8.6z"/>
</g>
</svg>
