<?xml version="1.0" encoding="utf-8"?>
<!-- Generator: Adobe Illustrator 25.2.0, SVG Export Plug-In . SVG Version: 6.00 Build 0)  -->
<svg version="1.1" id="Layer_1" xmlns="http://www.w3.org/2000/svg" xmlns:xlink="http://www.w3.org/1999/xlink" x="0px" y="0px"
	 viewBox="0 0 15.4 15.4" style="enable-background:new 0 0 15.4 15.4;" xml:space="preserve">
<style type="text/css">
	.st0{fill:#38568A;}
</style>
<path class="st0" d="M7.7,0C3.4,0,0,3.4,0,7.7s3.4,7.7,7.7,7.7s7.7-3.4,7.7-7.7S12,0,7.7,0z M7.3,2.2c0.6,0,1.1,0.5,1.1,1.1
	c0,0.6-0.5,1.1-1.1,1.1c-0.6,0-1.1-0.5-1.1-1.1C6.2,2.7,6.7,2.2,7.3,2.2z M10,4.9L9.3,6.3c-0.2,0.4-0.6,0.5-1,0.4L7.9,6.5v0.9
	l1.4,0.6C9.5,8,9.6,8.1,9.7,8.3c0.2,0.3,0.2,0.6,0,0.9l-1.4,2.2c-0.1,0.2-0.4,0.3-0.6,0.2c-0.1-0.1-0.3-0.2-0.3-0.3
	c-0.1-0.1-0.1-0.3,0-0.5l0.8-1.7L7.2,9l-0.9,1.5c0,0,0,0-0.1,0.1l-2.4,1.8c-0.1,0.1-0.2,0.1-0.3,0.1c0,0-0.1,0-0.1,0
	c-0.2,0-0.3-0.1-0.4-0.3c-0.1-0.2,0-0.5,0.2-0.6L5,9.9L6,8V6L5.4,6.3l0.2,1.2c0.1,0.3-0.1,0.6-0.4,0.6C4.9,8.2,4.7,8,4.6,7.7
	L4.3,6.4C4.2,5.9,4.4,5.5,4.8,5.3l1.2-0.6c0.1-0.1,0.2-0.1,0.3-0.1h1c0.2,0,0.4,0.1,0.5,0.2c0.3,0.3,0.5,0.5,0.6,0.5
	c0.1-0.2,0.3-0.5,0.5-1c0.1-0.1,0.2-0.2,0.3-0.2c0.1,0,0.3,0,0.4,0.1C10,4.4,10.1,4.6,10,4.9z M11.5,8.3c0,0-0.1,0.1-0.1,0.1
	c-0.1,0-0.1,0-0.1-0.1c-0.1-0.1-0.1-0.2,0-0.3c0.4-0.4,0.4-1,0-1.4c-0.1-0.1-0.1-0.2,0-0.3c0.1-0.1,0.2-0.1,0.3,0
	c0.3,0.3,0.4,0.6,0.4,1C11.9,7.7,11.8,8,11.5,8.3z M12.3,9.1c0,0-0.1,0.1-0.1,0.1c-0.1,0-0.1,0-0.1-0.1C12,9,12,8.9,12.1,8.8
	c0.4-0.4,0.6-0.9,0.6-1.5c0-0.6-0.2-1.1-0.6-1.5c-0.1-0.1-0.1-0.2,0-0.3s0.2-0.1,0.3,0c0.5,0.5,0.7,1.1,0.7,1.8
	C13.1,8,12.8,8.6,12.3,9.1z"/>
</svg>
