<?xml version="1.0" encoding="utf-8"?>
<!-- Generator: Adobe Illustrator 25.3.1, SVG Export Plug-In . SVG Version: 6.00 Build 0)  -->
<svg version="1.1" id="Layer_1" xmlns="http://www.w3.org/2000/svg" xmlns:xlink="http://www.w3.org/1999/xlink" x="0px" y="0px"
	 viewBox="0 0 15.6 15.9" style="enable-background:new 0 0 15.6 15.9;" xml:space="preserve">
<style type="text/css">
	.st0{fill-rule:evenodd;clip-rule:evenodd;fill:#C31427;}
</style>
<path class="st0" d="M7.9,0.3C3.6,0.3,0.2,3.7,0.2,8s3.4,7.7,7.7,7.7c4.3,0,7.7-3.4,7.7-7.7S12.1,0.3,7.9,0.3z M8.2,10.3l-0.6,0
	c-0.5,0-0.9-0.3-0.9-0.8c0,0,0,0,0,0l0-0.3c0-0.4,0.3-0.8,0.7-0.8l0.9-0.1V5.3L5.5,5.9v3.9h0l0,0.2c0,0.6-0.4,1.1-1,1.1l-0.6,0
	c-0.5,0-0.9-0.3-0.9-0.8c0,0,0,0,0,0L3,10c0-0.4,0.3-0.8,0.7-0.8l0.9-0.1V6V4.3c0-0.2,0.1-0.4,0.3-0.4l3.8-0.7
	c0.2,0,0.4,0.1,0.5,0.3c0,0,0,0,0,0.1v1V9h0l0,0.2C9.3,9.7,8.8,10.2,8.2,10.3z M12.6,10.5c-0.2,0-0.4-0.2-0.4-0.4
	c0-0.5-0.1-0.9-0.4-1C11.7,9,11.6,9,11.3,9v2.4c0,0,0,0,0,0c0,0,0,0,0,0.1l0,0.4c0,0.5-0.4,0.9-0.9,0.9l-0.4,0
	c-0.4,0-0.8-0.3-0.8-0.7c0,0,0,0,0,0l0-0.1c0-0.4,0.3-0.8,0.7-0.8l0.5-0.1v-3h0.4c0.1,0,0.3,0,0.4,0h0v0c0.4,0,0.6,0.1,0.8,0.2
	C12.8,8.6,13,9.2,13,10C13,10.3,12.8,10.5,12.6,10.5z"/>
</svg>
