<?xml version="1.0" encoding="utf-8"?>
<!-- Generator: Adobe Illustrator 25.2.0, SVG Export Plug-In . SVG Version: 6.00 Build 0)  -->
<svg version="1.1" id="Layer_1" xmlns="http://www.w3.org/2000/svg" xmlns:xlink="http://www.w3.org/1999/xlink" x="0px" y="0px"
	 viewBox="0 0 15.4 15.4" style="enable-background:new 0 0 15.4 15.4;" xml:space="preserve">
<style type="text/css">
	.st0{fill:#F37541;}
</style>
<path class="st0" d="M7.7,0C3.4,0,0,3.4,0,7.7s3.4,7.7,7.7,7.7s7.7-3.4,7.7-7.7S12,0,7.7,0z M9.6,11.1l-0.1,0.2c-0.9,1-1.7,2-2.7,2
	c-0.1,0-0.2,0-0.3,0C4.9,13,4.6,11.7,4.6,11c0-0.2,0.1-0.3,0.3-0.3c0.1,0,0.3,0.1,0.3,0.3c0,0.1,0,1.5,1.3,1.8
	C7.4,12.9,8.1,12,9,10.9l0.1-0.2c1-1.3,1.5-2.4,1.5-3.8c0-1.8-0.9-3.7-2.8-3.9C7.1,2.9,6.4,3.1,5.9,3.6c-0.6,0.6-0.7,1.5-0.6,2
	c0,0.1-0.1,0.3-0.2,0.3C5,6,4.8,5.9,4.8,5.7C4.6,5.1,4.9,4,5.5,3.3c0.4-0.5,1.2-1,2.4-0.8C10.2,2.8,11.2,5,11.2,7
	C11.2,8.5,10.7,9.8,9.6,11.1z M5.6,7.9C5.8,7.8,6,7.7,6.3,7.8c0.3,0.1,0.5,0.3,0.6,0.6C7,8.6,6.9,8.9,6.7,9C6.6,9.1,6.4,9.1,6.3,9
	c-0.1-0.1-0.1-0.3,0-0.4c0,0,0-0.1,0-0.1c0-0.1-0.1-0.1-0.2-0.2c-0.1,0-0.1,0-0.2,0c0,0-0.1,0.2,0,0.8c0,0.2-0.1,0.4-0.1,0.5
	C5.7,9.9,5.7,10,5.8,10c0,0,0,0,0,0c0,0,0.2-0.1,0.3-0.2c0.2-0.2,0.5-0.4,0.8-0.5C7.6,9.2,8,8.8,8.2,8.2c0.1-0.4,0.1-0.7-0.1-0.9
	C7.8,7,7.2,6.8,6.8,6.8C6.9,6.9,7,7.1,7.2,7.2c0.1,0.1,0.1,0.3,0,0.4c-0.1,0.1-0.3,0.1-0.4,0C6,6.9,5.5,5.6,6,4.6
	c0.2-0.5,0.6-0.9,1.1-1c0.5-0.1,1,0,1.6,0.3c1.5,0.9,1.6,3.4,1.1,4.7c-0.3,0.7-0.5,1.1-1.1,1.7c-0.1,0-0.1,0.1-0.2,0.1
	c-0.1,0-0.2,0-0.2-0.1c-0.1-0.1-0.1-0.3,0-0.4C8.8,9.5,9,9.1,9.2,8.5c0.5-1.2,0.3-3.3-0.9-4.1C7.9,4.1,7.6,4.1,7.2,4.2
	C6.9,4.3,6.7,4.5,6.5,4.9c-0.2,0.4-0.2,0.9,0,1.3C7,6.2,8,6.3,8.5,7c0.3,0.4,0.3,0.8,0.2,1.3C8.5,9.2,7.9,9.7,7,9.9
	c-0.2,0-0.4,0.2-0.5,0.4c-0.2,0.2-0.4,0.4-0.7,0.4c-0.1,0-0.2,0-0.3-0.1C5,10.1,5.2,9.7,5.4,9.4c0-0.1,0.1-0.2,0.1-0.2
	C5.4,8.7,5.3,8.2,5.6,7.9z"/>
</svg>
