<svg id="Layer_1" data-name="Layer 1" xmlns="http://www.w3.org/2000/svg" viewBox="0 0 15.4 15.4"><defs><style>.cls-1{fill:#dcb83d;}</style></defs><path class="cls-1" d="M7.7,0a7.7,7.7,0,1,0,7.7,7.7A7.7,7.7,0,0,0,7.7,0ZM6.84,12.6A.65.65,0,1,1,7.49,12,.65.65,0,0,1,6.84,12.6Zm2-.93a.94.94,0,1,1,.93-.94A.94.94,0,0,1,8.86,11.67ZM11.2,8.3A2,2,0,0,1,8,8.91a1.84,1.84,0,0,1-1.32.54A1.89,1.89,0,0,1,4.94,8.26a2,2,0,0,1-.07-3.79A1.7,1.7,0,0,1,6.45,3.39,1.65,1.65,0,0,1,7.71,4a1.93,1.93,0,0,1,1.36-.56,2,2,0,0,1,1.8,1.19,2,2,0,0,1,1.52,1.9A2,2,0,0,1,11.2,8.3Z" transform="translate(0 0)"/></svg>