<?xml version="1.0" encoding="utf-8"?>
<!-- Generator: Adobe Illustrator 25.2.0, SVG Export Plug-In . SVG Version: 6.00 Build 0)  -->
<svg version="1.1" id="Layer_1" xmlns="http://www.w3.org/2000/svg" xmlns:xlink="http://www.w3.org/1999/xlink" x="0px" y="0px"
	 viewBox="0 0 15.4 15.4" style="enable-background:new 0 0 15.4 15.4;" xml:space="preserve">
<style type="text/css">
	.st0{fill:#00819A;}
</style>
<g>
	<path class="st0" d="M8.8,8.1c0-0.3-0.1-0.5-0.2-0.7C8.4,7.3,8.2,7.2,7.9,7.2h-1V9H8C8.6,9,8.8,8.7,8.8,8.1z"/>
	<polygon class="st0" points="3,8.3 4.7,8.3 3.8,5.2 	"/>
	<path class="st0" d="M8,9.8H6.9v2.3H8c0.3,0,0.6-0.1,0.7-0.3C8.9,11.6,9,11.3,9,11v-0.1c0-0.4-0.1-0.7-0.3-0.8
		C8.6,9.8,8.3,9.8,8,9.8z"/>
	<path class="st0" d="M7.7,0C3.4,0,0,3.4,0,7.7s3.4,7.7,7.7,7.7s7.7-3.4,7.7-7.7S12,0,7.7,0z M13.3,8.4c-0.1,0.2-0.2,0.4-0.4,0.5
		c-0.2,0.1-0.4,0.3-0.6,0.3c-0.2,0.1-0.5,0.1-0.8,0.1s-0.5,0-0.8-0.1c-0.2-0.1-0.4-0.2-0.6-0.3C10,8.8,9.8,8.6,9.7,8.4
		c0,0.1-0.1,0.3-0.1,0.4C9.5,9,9.3,9.2,9.1,9.3c0.1,0.1,0.3,0.1,0.4,0.2s0.2,0.2,0.3,0.3c0.1,0.1,0.1,0.3,0.2,0.4
		c0,0.2,0.1,0.4,0.1,0.6V11c0,0.3,0,0.6-0.1,0.9c-0.1,0.2-0.2,0.4-0.4,0.6c-0.2,0.1-0.3,0.3-0.6,0.3c-0.2,0.1-0.4,0.1-0.7,0.1H6.5
		c-0.1,0-0.2,0-0.3-0.1s-0.1-0.1-0.1-0.2v-2.2c0,0-0.1,0.1-0.2,0.1c-0.1,0-0.1,0-0.2,0c-0.1,0-0.1,0-0.2,0c-0.1,0-0.1-0.1-0.1-0.2
		L5,9H2.8l-0.4,1.3c0,0.1-0.1,0.1-0.1,0.2c-0.1,0-0.1,0-0.2,0c-0.1,0-0.1,0-0.2,0c-0.1,0-0.1,0-0.2-0.1c-0.1,0-0.1-0.1-0.1-0.1
		s-0.1-0.1-0.1-0.2V10l1.8-5.7c0-0.1,0.1-0.2,0.2-0.2C3.6,4,3.7,4,3.9,4C4,4,4.2,4,4.3,4.1c0.1,0.1,0.2,0.1,0.2,0.2l1.5,5V6.8
		c0-0.1,0-0.2,0.1-0.2c0.1-0.1,0.2-0.1,0.3-0.1H8c0.2,0,0.5,0,0.7,0.1c0.2,0,0.4,0.1,0.6,0.2C9.4,6.9,9.5,7,9.6,7.1V5
		c0-0.4,0.1-0.7,0.2-0.9c0.1-0.3,0.2-0.5,0.4-0.6c0.2-0.2,0.4-0.3,0.6-0.3c0.2-0.1,0.5-0.1,0.8-0.1s0.6,0,0.8,0.1s0.5,0.2,0.6,0.3
		c0.2,0.1,0.3,0.3,0.4,0.5s0.1,0.4,0.1,0.6c0,0.2,0,0.3-0.1,0.4c-0.1,0.1-0.2,0.1-0.4,0.1c-0.1,0-0.3,0-0.3-0.1s-0.1-0.1-0.1-0.2
		c0-0.1,0-0.2,0-0.3s-0.1-0.2-0.1-0.3c-0.1-0.1-0.2-0.2-0.3-0.3c-0.1-0.1-0.3-0.1-0.5-0.1c-0.3,0-0.6,0.1-0.8,0.3
		c-0.2,0.2-0.3,0.5-0.3,0.9v2.6c0,0.4,0.1,0.7,0.3,0.9c0.2,0.2,0.5,0.3,0.8,0.3c0.2,0,0.4,0,0.5-0.1s0.2-0.2,0.3-0.3
		c0.1-0.1,0.1-0.2,0.1-0.3c0-0.1,0-0.2,0-0.3c0-0.1,0.1-0.2,0.1-0.2c0.1,0,0.2-0.1,0.3-0.1c0.2,0,0.3,0,0.4,0.1s0.1,0.2,0.1,0.4
		C13.5,8,13.4,8.2,13.3,8.4z"/>
</g>
</svg>
