<svg width="32" height="33" viewBox="0 0 32 33" fill="none" xmlns="http://www.w3.org/2000/svg">
<circle cx="16" cy="16.6323" r="16" fill="#5E6062"/>
<path d="M22.8096 10.6338C21.3417 10.7171 18.4242 11.0203 16.6232 12.1228C16.4989 12.1989 16.4284 12.3341 16.4284 12.4756V22.222C16.4284 22.5314 16.7667 22.7269 17.052 22.5834C18.905 21.6507 21.5849 21.3962 22.91 21.3266C23.3624 21.3027 23.7141 20.9401 23.7141 20.5053V11.4561C23.7144 10.9817 23.303 10.6059 22.8096 10.6338ZM15.3768 12.1228C13.576 11.0203 10.6586 10.7173 9.19071 10.6338C8.69732 10.6059 8.28589 10.9817 8.28589 11.4561V20.5056C8.28589 20.9406 8.63758 21.3033 9.08999 21.3269C10.4156 21.3965 13.0968 21.6512 14.9499 22.5844C15.2343 22.7277 15.5716 22.5325 15.5716 22.2239V12.4707C15.5716 12.329 15.5014 12.1991 15.3768 12.1228Z" fill="white"/>
</svg>
