<svg width="32" height="33" viewBox="0 0 32 33" fill="none" xmlns="http://www.w3.org/2000/svg">
<circle cx="16" cy="16.6323" r="16" fill="#5E6062"/>
<mask id="path-2-inside-1_1713_2813" fill="white">
<path fill-rule="evenodd" clip-rule="evenodd" d="M10.875 9.63232C10.3227 9.63232 9.875 10.08 9.875 10.6323V12.6199H11.5802C11.7231 12.4016 11.9698 12.2573 12.2501 12.2573C12.692 12.2573 13.0502 12.6155 13.0502 13.0574C13.0502 13.4993 12.692 13.8575 12.2501 13.8575C11.9697 13.8575 11.723 13.7132 11.5802 13.4949H9.875V16.1199H11.5802C11.7231 15.9016 11.9698 15.7573 12.2501 15.7573C12.692 15.7573 13.0502 16.1155 13.0502 16.5574C13.0502 16.9993 12.692 17.3575 12.2501 17.3575C11.9697 17.3575 11.723 17.2132 11.5802 16.9949H9.875V19.6199H11.5802C11.7231 19.4016 11.9698 19.2573 12.2501 19.2573C12.692 19.2573 13.0502 19.6155 13.0502 20.0574C13.0502 20.4993 12.692 20.8575 12.2501 20.8575C11.9697 20.8575 11.723 20.7132 11.5802 20.4949H9.875V22.6323C9.875 23.1846 10.3227 23.6323 10.875 23.6323H21.125C21.6773 23.6323 22.125 23.1846 22.125 22.6323V10.6323C22.125 10.08 21.6773 9.63232 21.125 9.63232H10.875ZM12.1152 20.3941C12.1569 20.4108 12.2024 20.42 12.25 20.42C12.4503 20.42 12.6126 20.2576 12.6126 20.0574C12.6126 19.8572 12.4503 19.6948 12.25 19.6948C12.2024 19.6948 12.1569 19.704 12.1153 19.7207C12.258 19.8009 12.3488 19.922 12.3488 20.0574C12.3488 20.1928 12.258 20.3138 12.1152 20.3941ZM12.3488 16.5574C12.3488 16.6928 12.258 16.8138 12.1152 16.8941C12.1569 16.9108 12.2024 16.92 12.25 16.92C12.4503 16.92 12.6126 16.7576 12.6126 16.5574C12.6126 16.3572 12.4503 16.1948 12.25 16.1948C12.2024 16.1948 12.1569 16.204 12.1153 16.2207C12.258 16.3009 12.3488 16.422 12.3488 16.5574ZM12.1105 13.3921C12.1535 13.4101 12.2006 13.42 12.25 13.42C12.4503 13.42 12.6126 13.2576 12.6126 13.0574C12.6126 12.8572 12.4503 12.6948 12.25 12.6948C12.2006 12.6948 12.1535 12.7047 12.1105 12.7226C12.2509 12.8029 12.3401 12.9231 12.3401 13.0574C12.3401 13.1917 12.2509 13.3119 12.1105 13.3921ZM14.6555 13.2073C14.3794 13.2073 14.1555 13.4311 14.1555 13.7073V14.2385C14.1555 14.5147 14.3794 14.7385 14.6555 14.7385H18.9055C19.1817 14.7385 19.4055 14.5147 19.4055 14.2385V13.7073C19.4055 13.4311 19.1817 13.2073 18.9055 13.2073H14.6555ZM14.1555 16.3667C14.1555 16.0906 14.3794 15.8667 14.6555 15.8667H18.9055C19.1817 15.8667 19.4055 16.0906 19.4055 16.3667V16.8979C19.4055 17.1741 19.1817 17.3979 18.9055 17.3979H14.6555C14.3794 17.3979 14.1555 17.1741 14.1555 16.8979V16.3667ZM14.6555 18.5261C14.3794 18.5261 14.1555 18.75 14.1555 19.0261V19.5574C14.1555 19.8335 14.3794 20.0574 14.6555 20.0574H18.9055C19.1817 20.0574 19.4055 19.8335 19.4055 19.5574V19.0261C19.4055 18.75 19.1817 18.5261 18.9055 18.5261H14.6555Z"/>
</mask>
<path fill-rule="evenodd" clip-rule="evenodd" d="M10.875 9.63232C10.3227 9.63232 9.875 10.08 9.875 10.6323V12.6199H11.5802C11.7231 12.4016 11.9698 12.2573 12.2501 12.2573C12.692 12.2573 13.0502 12.6155 13.0502 13.0574C13.0502 13.4993 12.692 13.8575 12.2501 13.8575C11.9697 13.8575 11.723 13.7132 11.5802 13.4949H9.875V16.1199H11.5802C11.7231 15.9016 11.9698 15.7573 12.2501 15.7573C12.692 15.7573 13.0502 16.1155 13.0502 16.5574C13.0502 16.9993 12.692 17.3575 12.2501 17.3575C11.9697 17.3575 11.723 17.2132 11.5802 16.9949H9.875V19.6199H11.5802C11.7231 19.4016 11.9698 19.2573 12.2501 19.2573C12.692 19.2573 13.0502 19.6155 13.0502 20.0574C13.0502 20.4993 12.692 20.8575 12.2501 20.8575C11.9697 20.8575 11.723 20.7132 11.5802 20.4949H9.875V22.6323C9.875 23.1846 10.3227 23.6323 10.875 23.6323H21.125C21.6773 23.6323 22.125 23.1846 22.125 22.6323V10.6323C22.125 10.08 21.6773 9.63232 21.125 9.63232H10.875ZM12.1152 20.3941C12.1569 20.4108 12.2024 20.42 12.25 20.42C12.4503 20.42 12.6126 20.2576 12.6126 20.0574C12.6126 19.8572 12.4503 19.6948 12.25 19.6948C12.2024 19.6948 12.1569 19.704 12.1153 19.7207C12.258 19.8009 12.3488 19.922 12.3488 20.0574C12.3488 20.1928 12.258 20.3138 12.1152 20.3941ZM12.3488 16.5574C12.3488 16.6928 12.258 16.8138 12.1152 16.8941C12.1569 16.9108 12.2024 16.92 12.25 16.92C12.4503 16.92 12.6126 16.7576 12.6126 16.5574C12.6126 16.3572 12.4503 16.1948 12.25 16.1948C12.2024 16.1948 12.1569 16.204 12.1153 16.2207C12.258 16.3009 12.3488 16.422 12.3488 16.5574ZM12.1105 13.3921C12.1535 13.4101 12.2006 13.42 12.25 13.42C12.4503 13.42 12.6126 13.2576 12.6126 13.0574C12.6126 12.8572 12.4503 12.6948 12.25 12.6948C12.2006 12.6948 12.1535 12.7047 12.1105 12.7226C12.2509 12.8029 12.3401 12.9231 12.3401 13.0574C12.3401 13.1917 12.2509 13.3119 12.1105 13.3921ZM14.6555 13.2073C14.3794 13.2073 14.1555 13.4311 14.1555 13.7073V14.2385C14.1555 14.5147 14.3794 14.7385 14.6555 14.7385H18.9055C19.1817 14.7385 19.4055 14.5147 19.4055 14.2385V13.7073C19.4055 13.4311 19.1817 13.2073 18.9055 13.2073H14.6555ZM14.1555 16.3667C14.1555 16.0906 14.3794 15.8667 14.6555 15.8667H18.9055C19.1817 15.8667 19.4055 16.0906 19.4055 16.3667V16.8979C19.4055 17.1741 19.1817 17.3979 18.9055 17.3979H14.6555C14.3794 17.3979 14.1555 17.1741 14.1555 16.8979V16.3667ZM14.6555 18.5261C14.3794 18.5261 14.1555 18.75 14.1555 19.0261V19.5574C14.1555 19.8335 14.3794 20.0574 14.6555 20.0574H18.9055C19.1817 20.0574 19.4055 19.8335 19.4055 19.5574V19.0261C19.4055 18.75 19.1817 18.5261 18.9055 18.5261H14.6555Z" fill="white"/>
<path d="M9.875 12.6199H8.375V14.1199H9.875V12.6199ZM11.5802 12.6199V14.1199H12.3912L12.8353 13.4412L11.5802 12.6199ZM11.5802 13.4949L12.8353 12.6736L12.3913 11.9949H11.5802V13.4949ZM9.875 13.4949V11.9949H8.375V13.4949H9.875ZM9.875 16.1199H8.375V17.6199H9.875V16.1199ZM11.5802 16.1199V17.6199H12.3912L12.8353 16.9412L11.5802 16.1199ZM11.5802 16.9949L12.8353 16.1736L12.3913 15.4949H11.5802V16.9949ZM9.875 16.9949V15.4949H8.375V16.9949H9.875ZM9.875 19.6199H8.375V21.1199H9.875V19.6199ZM11.5802 19.6199V21.1199H12.3912L12.8353 20.4412L11.5802 19.6199ZM11.5802 20.4949L12.8353 19.6736L12.3913 18.9949H11.5802V20.4949ZM9.875 20.4949V18.9949H8.375V20.4949H9.875ZM12.1152 20.3941L11.38 19.0866L8.65047 20.6215L11.5573 21.7864L12.1152 20.3941ZM12.1153 19.7207L11.5575 18.3283L8.65031 19.4929L11.38 21.0281L12.1153 19.7207ZM12.1152 16.8941L11.38 15.5866L8.65042 17.1215L11.5573 18.2864L12.1152 16.8941ZM12.1153 16.2207L11.5575 14.8283L8.65033 15.9929L11.38 17.5281L12.1153 16.2207ZM12.1105 13.3921L11.3661 12.0899L8.72006 13.6025L11.5328 14.7764L12.1105 13.3921ZM12.1105 12.7226L11.533 11.3383L8.71995 12.5119L11.366 14.0248L12.1105 12.7226ZM11.375 10.6323C11.375 10.9085 11.1511 11.1323 10.875 11.1323V8.13232C9.49429 8.13232 8.375 9.25161 8.375 10.6323H11.375ZM11.375 12.6199V10.6323H8.375V12.6199H11.375ZM11.5802 11.1199H9.875V14.1199H11.5802V11.1199ZM12.2501 10.7573C11.4426 10.7573 10.7333 11.1747 10.325 11.7985L12.8353 13.4412C12.7129 13.6284 12.4969 13.7573 12.2501 13.7573V10.7573ZM14.5502 13.0574C14.5502 11.7871 13.5204 10.7573 12.2501 10.7573V13.7573C11.8636 13.7573 11.5502 13.444 11.5502 13.0574H14.5502ZM12.2501 15.3575C13.5204 15.3575 14.5502 14.3277 14.5502 13.0574H11.5502C11.5502 12.6708 11.8636 12.3575 12.2501 12.3575V15.3575ZM10.325 14.3162C10.7332 14.94 11.4425 15.3575 12.2501 15.3575V12.3575C12.497 12.3575 12.7129 12.4864 12.8353 12.6736L10.325 14.3162ZM9.875 14.9949H11.5802V11.9949H9.875V14.9949ZM11.375 16.1199V13.4949H8.375V16.1199H11.375ZM11.5802 14.6199H9.875V17.6199H11.5802V14.6199ZM12.2501 14.2573C11.4426 14.2573 10.7333 14.6747 10.325 15.2985L12.8353 16.9412C12.7129 17.1284 12.4969 17.2573 12.2501 17.2573V14.2573ZM14.5502 16.5574C14.5502 15.2871 13.5204 14.2573 12.2501 14.2573V17.2573C11.8636 17.2573 11.5502 16.944 11.5502 16.5574H14.5502ZM12.2501 18.8575C13.5204 18.8575 14.5502 17.8277 14.5502 16.5574H11.5502C11.5502 16.1708 11.8636 15.8575 12.2501 15.8575V18.8575ZM10.325 17.8162C10.7332 18.44 11.4425 18.8575 12.2501 18.8575V15.8575C12.497 15.8575 12.7129 15.9864 12.8353 16.1736L10.325 17.8162ZM9.875 18.4949H11.5802V15.4949H9.875V18.4949ZM11.375 19.6199V16.9949H8.375V19.6199H11.375ZM11.5802 18.1199H9.875V21.1199H11.5802V18.1199ZM12.2501 17.7573C11.4426 17.7573 10.7333 18.1747 10.325 18.7985L12.8353 20.4412C12.7129 20.6284 12.4969 20.7573 12.2501 20.7573V17.7573ZM14.5502 20.0574C14.5502 18.7871 13.5204 17.7573 12.2501 17.7573V20.7573C11.8636 20.7573 11.5502 20.444 11.5502 20.0574H14.5502ZM12.2501 22.3575C13.5204 22.3575 14.5502 21.3277 14.5502 20.0574H11.5502C11.5502 19.6708 11.8636 19.3575 12.2501 19.3575V22.3575ZM10.325 21.3162C10.7332 21.94 11.4425 22.3575 12.2501 22.3575V19.3575C12.497 19.3575 12.7129 19.4864 12.8353 19.6736L10.325 21.3162ZM9.875 21.9949H11.5802V18.9949H9.875V21.9949ZM11.375 22.6323V20.4949H8.375V22.6323H11.375ZM10.875 22.1323C11.1511 22.1323 11.375 22.3562 11.375 22.6323H8.375C8.375 24.013 9.49429 25.1323 10.875 25.1323V22.1323ZM21.125 22.1323H10.875V25.1323H21.125V22.1323ZM20.625 22.6323C20.625 22.3562 20.8489 22.1323 21.125 22.1323V25.1323C22.5057 25.1323 23.625 24.013 23.625 22.6323H20.625ZM20.625 10.6323V22.6323H23.625V10.6323H20.625ZM21.125 11.1323C20.8489 11.1323 20.625 10.9085 20.625 10.6323H23.625C23.625 9.25161 22.5057 8.13232 21.125 8.13232V11.1323ZM10.875 11.1323H21.125V8.13232H10.875V11.1323ZM12.25 18.92C12.3967 18.92 12.5404 18.9485 12.6732 19.0017L11.5573 21.7864C11.7734 21.873 12.0081 21.92 12.25 21.92V18.92ZM11.1126 20.0574C11.1126 19.4292 11.6219 18.92 12.25 18.92V21.92C13.2787 21.92 14.1126 21.0861 14.1126 20.0574H11.1126ZM12.25 21.1948C11.6219 21.1948 11.1126 20.6856 11.1126 20.0574H14.1126C14.1126 19.0287 13.2787 18.1948 12.25 18.1948V21.1948ZM12.6731 21.1131C12.5403 21.1663 12.3967 21.1948 12.25 21.1948V18.1948C12.0081 18.1948 11.7735 18.2417 11.5575 18.3283L12.6731 21.1131ZM13.8488 20.0574C13.8488 19.193 13.2763 18.6527 12.8506 18.4133L11.38 21.0281C11.2396 20.9492 10.8488 20.6509 10.8488 20.0574H13.8488ZM12.8505 21.7015C13.2762 21.4621 13.8488 20.9218 13.8488 20.0574H10.8488C10.8488 19.4638 11.2397 19.1655 11.38 19.0866L12.8505 21.7015ZM12.8505 18.2015C13.2762 17.9621 13.8488 17.4218 13.8488 16.5574H10.8488C10.8488 15.9638 11.2397 15.6655 11.38 15.5866L12.8505 18.2015ZM12.25 15.42C12.3967 15.42 12.5404 15.4485 12.6732 15.5017L11.5573 18.2864C11.7734 18.373 12.0081 18.42 12.25 18.42V15.42ZM11.1126 16.5574C11.1126 15.9292 11.6219 15.42 12.25 15.42V18.42C13.2787 18.42 14.1126 17.5861 14.1126 16.5574H11.1126ZM12.25 17.6948C11.6219 17.6948 11.1126 17.1856 11.1126 16.5574H14.1126C14.1126 15.5287 13.2787 14.6948 12.25 14.6948V17.6948ZM12.6731 17.6131C12.5403 17.6663 12.3967 17.6948 12.25 17.6948V14.6948C12.0082 14.6948 11.7735 14.7417 11.5575 14.8283L12.6731 17.6131ZM13.8488 16.5574C13.8488 15.693 13.2763 15.1527 12.8506 14.9133L11.38 17.5281C11.2396 17.4492 10.8488 17.1509 10.8488 16.5574H13.8488ZM12.25 11.92C12.4024 11.92 12.5514 11.9507 12.6882 12.0079L11.5328 14.7764C11.7555 14.8694 11.9988 14.92 12.25 14.92V11.92ZM11.1126 13.0574C11.1126 12.4292 11.6219 11.92 12.25 11.92V14.92C13.2787 14.92 14.1126 14.0861 14.1126 13.0574H11.1126ZM12.25 14.1948C11.6219 14.1948 11.1126 13.6856 11.1126 13.0574H14.1126C14.1126 12.0287 13.2787 11.1948 12.25 11.1948V14.1948ZM12.6881 14.107C12.5513 14.1641 12.4024 14.1948 12.25 14.1948V11.1948C11.9988 11.1948 11.7556 11.2454 11.533 11.3383L12.6881 14.107ZM13.8401 13.0574C13.8401 12.2021 13.2787 11.6627 12.8551 11.4205L11.366 14.0248C11.2231 13.9431 10.8401 13.644 10.8401 13.0574H13.8401ZM12.8549 14.6944C13.2786 14.4522 13.8401 13.9127 13.8401 13.0574H10.8401C10.8401 12.4707 11.2232 12.1716 11.3661 12.0899L12.8549 14.6944ZM15.6555 13.7073C15.6555 14.2596 15.2078 14.7073 14.6555 14.7073V11.7073C13.5509 11.7073 12.6555 12.6027 12.6555 13.7073H15.6555ZM15.6555 14.2385V13.7073H12.6555V14.2385H15.6555ZM14.6555 13.2385C15.2078 13.2385 15.6555 13.6862 15.6555 14.2385H12.6555C12.6555 15.3431 13.5509 16.2385 14.6555 16.2385V13.2385ZM18.9055 13.2385H14.6555V16.2385H18.9055V13.2385ZM17.9055 14.2385C17.9055 13.6862 18.3532 13.2385 18.9055 13.2385V16.2385C20.0101 16.2385 20.9055 15.3431 20.9055 14.2385H17.9055ZM17.9055 13.7073V14.2385H20.9055V13.7073H17.9055ZM18.9055 14.7073C18.3532 14.7073 17.9055 14.2596 17.9055 13.7073H20.9055C20.9055 12.6027 20.0101 11.7073 18.9055 11.7073V14.7073ZM14.6555 14.7073H18.9055V11.7073H14.6555V14.7073ZM14.6555 14.3667C13.5509 14.3667 12.6555 15.2621 12.6555 16.3667H15.6555C15.6555 16.919 15.2078 17.3667 14.6555 17.3667V14.3667ZM18.9055 14.3667H14.6555V17.3667H18.9055V14.3667ZM20.9055 16.3667C20.9055 15.2621 20.0101 14.3667 18.9055 14.3667V17.3667C18.3532 17.3667 17.9055 16.919 17.9055 16.3667H20.9055ZM20.9055 16.8979V16.3667H17.9055V16.8979H20.9055ZM18.9055 18.8979C20.0101 18.8979 20.9055 18.0025 20.9055 16.8979H17.9055C17.9055 16.3457 18.3532 15.8979 18.9055 15.8979V18.8979ZM14.6555 18.8979H18.9055V15.8979H14.6555V18.8979ZM12.6555 16.8979C12.6555 18.0025 13.5509 18.8979 14.6555 18.8979V15.8979C15.2078 15.8979 15.6555 16.3457 15.6555 16.8979H12.6555ZM12.6555 16.3667V16.8979H15.6555V16.3667H12.6555ZM15.6555 19.0261C15.6555 19.5784 15.2078 20.0261 14.6555 20.0261V17.0261C13.5509 17.0261 12.6555 17.9216 12.6555 19.0261H15.6555ZM15.6555 19.5574V19.0261H12.6555V19.5574H15.6555ZM14.6555 18.5574C15.2078 18.5574 15.6555 19.0051 15.6555 19.5574H12.6555C12.6555 20.6619 13.5509 21.5574 14.6555 21.5574V18.5574ZM18.9055 18.5574H14.6555V21.5574H18.9055V18.5574ZM17.9055 19.5574C17.9055 19.0051 18.3532 18.5574 18.9055 18.5574V21.5574C20.0101 21.5574 20.9055 20.6619 20.9055 19.5574H17.9055ZM17.9055 19.0261V19.5574H20.9055V19.0261H17.9055ZM18.9055 20.0261C18.3532 20.0261 17.9055 19.5784 17.9055 19.0261H20.9055C20.9055 17.9216 20.0101 17.0261 18.9055 17.0261V20.0261ZM14.6555 20.0261H18.9055V17.0261H14.6555V20.0261Z" fill="white" mask="url(#path-2-inside-1_1713_2813)"/>
</svg>
