<svg width="32" height="33" viewBox="0 0 32 33" fill="none" xmlns="http://www.w3.org/2000/svg">
<circle cx="16" cy="16.6323" r="16" fill="#5E6062"/>
<path d="M18.1875 21.3354V22.1011C18.1875 22.3868 18.0048 22.6297 17.75 22.7198V22.9761C17.75 23.3385 17.4562 23.6323 17.0938 23.6323H14.9062C14.5438 23.6323 14.25 23.3385 14.25 22.9761V22.7198C13.9952 22.6297 13.8125 22.3868 13.8125 22.1011V21.3354C13.8125 21.1542 13.9594 21.0073 14.1406 21.0073H17.8594C18.0406 21.0073 18.1875 21.1542 18.1875 21.3354ZM14.2744 20.1323C14.0035 20.1323 13.7596 19.9661 13.6626 19.7132C12.6011 16.9479 11.1875 17.2265 11.1875 14.4448C11.1875 11.7871 13.3423 9.63232 16 9.63232C18.6577 9.63232 20.8125 11.7871 20.8125 14.4448C20.8125 17.2265 19.3989 16.9479 18.3375 19.7132C18.2404 19.9661 17.9965 20.1323 17.7256 20.1323H14.2744ZM13.8125 14.4448C13.8125 13.2386 14.7938 12.2573 16 12.2573C16.2416 12.2573 16.4375 12.0614 16.4375 11.8198C16.4375 11.5782 16.2416 11.3823 16 11.3823C14.3113 11.3823 12.9375 12.7562 12.9375 14.4448C12.9375 14.6864 13.1334 14.8823 13.375 14.8823C13.6166 14.8823 13.8125 14.6864 13.8125 14.4448Z" fill="white"/>
</svg>
