<?xml version="1.0" encoding="UTF-8"?>
<svg width="149px" height="113px" viewBox="0 0 149 113" version="1.1" xmlns="http://www.w3.org/2000/svg" xmlns:xlink="http://www.w3.org/1999/xlink">
    <g id="Page-1" stroke="none" stroke-width="1" fill="none" fill-rule="evenodd">
        <g id="REX_NewNav_MHNudge---Desktop" transform="translate(-31.000000, -437.000000)" fill="#FFFFFF" fill-rule="nonzero">
            <g id="arrowDesktop.a38fca93-Copy" transform="translate(105.500000, 493.500000) scale(1, -1) translate(-105.500000, -493.500000) translate(31.000000, 437.000000)">
                <path d="M5.76793,95.037637 L7.76791,95.046508 L7.76348,96.046499 C7.75919,97.012987 7.76843,97.998032 7.7912,99.001626 L7.79272,99.029261 C11.19367,99.341869 13.94173,102.107807 14.13286,105.61959 C14.34295,109.47987 11.38389,112.779561 7.52361,112.989656 C3.66333,113.199751 0.36364,110.240691 0.15355,106.38041 C-0.03858,102.850249 2.41959,99.788896 5.79363,99.130446 L5.81946,100.073966 C5.78712,99.040369 5.76853,98.02516 5.76372,97.02833 L5.7635,96.037627 L5.76793,95.037637 Z M7.57558,101.018101 L6.40037,101.055143 C3.87749,101.431109 2.00919,103.673669 2.15059,106.271722 C2.30066,109.029065 4.65758,111.142679 7.41492,110.992611 C10.17227,110.842544 12.28588,108.485621 12.13581,105.728278 C11.9987,103.209007 10.01937,101.227102 7.57558,101.018101 Z M6.49186,84.945726 L8.47661,85.19227 L8.35333,86.184643 C8.22751,87.197596 8.12175,88.238313 8.03609,89.306782 L7.97561,90.113337 L7.90592,91.110905 L5.91079,90.971527 L5.98047,89.973958 C6.05806,88.863383 6.15636,87.780289 6.27541,86.724666 L6.36859,85.938099 L6.49186,84.945726 Z M8.80828,75.028981 L10.71074,75.645936 L10.40226,76.597168 C10.09156,77.555255 9.80816,78.551602 9.55212,79.586216 L9.36523,80.369351 L9.1411,81.343909 L7.19198,80.89564 L7.41611,79.921081 C7.66875,78.822582 7.95044,77.76216 8.26124,76.739824 L8.4998,75.980213 L8.80828,75.028981 Z M13.63156,65.942547 L15.25785,67.106663 L14.67579,67.91981 C14.41854,68.279197 14.16981,68.643789 13.9246,69.02112 C13.58534,69.543555 13.25999,70.085581 12.94856,70.647239 L12.64178,71.215441 L12.17646,72.100586 L10.40617,71.169956 L10.87149,70.284811 C11.3026,69.464737 11.76116,68.680395 12.24742,67.931591 C12.42189,67.663111 12.59811,67.400567 12.77761,67.141646 L13.0495,66.755694 L13.63156,65.942547 Z M21.09261,58.854335 L22.28482,60.460149 L21.48192,61.056253 C20.63689,61.683628 19.83219,62.340268 19.06802,63.026975 L18.50249,63.547656 L17.7751,64.233877 L16.40265,62.779091 L17.13005,62.09287 C17.92016,61.347484 18.75241,60.63504 19.6264,59.954694 L20.28971,59.450439 L21.09261,58.854335 Z M30.13014,54.021441 L30.91563,55.860734 L29.99599,56.253481 C29.01094,56.674158 28.05902,57.117176 27.14019,57.583223 L26.45727,57.937087 L25.57345,58.404915 L24.6378,56.637277 L25.52162,56.169448 C26.46384,55.670703 27.43925,55.196837 28.44783,54.747038 L29.21049,54.414188 L30.13014,54.021441 Z M39.79398,50.978456 L40.28506,52.917227 L39.31567,53.16277 C38.33467,53.411255 37.37713,53.673799 36.44268,53.950912 L35.51592,54.2329 L34.56135,54.530861 L33.96542,52.621705 L34.92,52.323744 C35.8656,52.028585 36.83394,51.748847 37.8254,51.483958 L38.82459,51.223998 L39.79398,50.978456 Z M49.75726,49.127042 L50.04956,51.105568 L49.06029,51.251715 C48.05524,51.400194 47.07065,51.558345 46.10554,51.726656 L45.14689,51.898372 L44.16339,52.079262 L43.80161,50.112256 L44.78511,49.931365 C45.75502,49.752975 46.74384,49.585198 47.75258,49.42752 L48.768,49.273189 L49.75726,49.127042 Z M59.75775,48.067826 L59.92196,50.061073 L58.92533,50.143176 C57.90836,50.226955 56.91287,50.316858 55.93638,50.413405 L54.96612,50.512184 L53.97157,50.616406 L53.76312,48.627298 L54.75768,48.523076 C55.73312,48.420857 56.72649,48.325573 57.74035,48.236693 L58.76113,48.149928 L59.75775,48.067826 Z M69.76733,47.491226 L69.85612,49.489254 L68.85711,49.533649 C67.75181,49.582766 66.68573,49.634932 65.64772,49.691041 L64.87429,49.733876 L63.8759,49.790521 L63.76261,47.793732 L64.761,47.737087 C65.79249,47.678565 66.849,47.624258 67.94177,47.573261 L68.76832,47.53562 L69.76733,47.491226 Z M79.78792,47.151598 L79.84833,49.150685 L78.84879,49.180889 C77.25692,49.228992 76.18603,49.262175 75.11979,49.297039 L74.85303,49.3058 L73.85358,49.338764 L73.78765,47.339851 L74.7871,47.306887 C75.85825,47.271557 76.8904,47.239317 78.40058,47.193538 L78.78838,47.181802 L79.78792,47.151598 Z M89.78276,46.79488 L89.87069,48.792945 L88.87166,48.836913 C87.81526,48.883406 86.70307,48.927031 85.48366,48.970317 L84.86479,48.991944 L83.86538,49.026338 L83.79659,47.027521 L84.796,46.993127 C86.04744,46.95006 87.18292,46.9071 88.25357,46.86174 L88.78372,46.838848 L89.78276,46.79488 Z M99.70708,46.044596 L99.91887,48.033351 L98.92449,48.139244 C97.87717,48.250775 96.77646,48.350954 95.61265,48.44144 L94.90671,48.494582 L93.90935,48.567259 L93.764,46.572548 L94.76135,46.499871 C95.93309,46.414486 97.03928,46.320008 98.08933,46.214866 L98.7127,46.150489 L99.70708,46.044596 Z M109.38487,44.241521 L109.85268,46.18604 L108.88042,46.419945 C107.91713,46.651692 106.934,46.868324 105.93105,47.069854 L104.92148,47.266349 L103.93877,47.451505 L103.56846,45.486087 L104.55117,45.300931 C105.54311,45.114036 106.51511,44.912525 107.46718,44.696409 L108.41261,44.475426 L109.38487,44.241521 Z M118.709,41.080928 L119.47754,42.927369 L118.55432,43.311639 C117.57332,43.719958 116.56397,44.106556 115.52627,44.471458 L114.74269,44.741067 L113.79494,45.060079 L113.15691,43.164578 L114.10467,42.845566 C115.12166,42.503245 116.11036,42.140292 117.07077,41.756732 L117.78578,41.465198 L118.709,41.080928 Z M127.19326,36.216662 L128.34431,37.85223 L127.52652,38.427755 C126.64821,39.045878 125.73463,39.637024 124.78585,40.201206 L124.06766,40.619288 L123.19883,41.114397 L122.20861,39.376736 L123.07744,38.881626 C124.00006,38.355866 124.88814,37.804961 125.74174,37.228925 L126.37547,36.792187 L127.19326,36.216662 Z M134.11676,29.424246 L135.6695,30.684798 L135.03923,31.46117 C134.35021,32.309899 133.62058,33.128098 132.85042,33.915707 L132.2652,34.500678 L131.54994,35.199543 L130.15222,33.769035 L130.86747,33.07017 C131.61411,32.340643 132.32212,31.58259 132.9916,30.795954 L133.48649,30.200617 L134.11676,29.424246 Z M138.8497,20.910694 L140.69506,21.68182 L140.3095,22.604501 C139.88188,23.627825 139.41453,24.621975 138.90744,25.586864 L138.51967,26.305043 L138.03471,27.179576 L136.28564,26.209646 L136.7706,25.335113 C137.26881,24.436693 137.72974,23.510008 138.15339,22.554971 L138.46414,21.833376 L138.8497,20.910694 Z M142.6719,0 L148.95979,14.333958 L142.84032,14.025842 C142.72782,14.624135 142.60501,15.214925 142.47189,15.798205 L142.2611,16.681045 L142.01907,17.651314 L140.07853,17.167252 L140.32056,16.196984 C140.506,15.453591 140.67357,14.696498 140.82327,13.92569 L134.97747,13.630692 L142.6719,0 Z" id="Line"></path>
            </g>
        </g>
    </g>
</svg>