<?xml version="1.0" encoding="UTF-8"?>
<svg width="150px" height="130px" viewBox="0 0 150 113" version="1.1" xmlns="http://www.w3.org/2000/svg" xmlns:xlink="http://www.w3.org/1999/xlink" style="transform: rotate(180deg);">
    <g id="Draft-1" stroke="none" stroke-width="1" fill="none" fill-rule="evenodd">
        <g id="5.-Training-nudge" transform="translate(-1075.000000, -252.000000)" fill="#FFFFFF" fill-rule="nonzero">
            <path id="Line" d="M1080.76793,354.037637 L1082.76791,354.046508 L1082.76348,355.046499 C1082.75919,356.012987 1082.76843,356.998032 1082.7912,358.001626 L1082.79272,358.029261 C1086.19367,358.341869 1088.94173,361.107807 1089.13286,364.61959 C1089.34295,368.47987 1086.38389,371.779561 1082.52361,371.989656 C1078.66333,372.199751 1075.36364,369.240691 1075.15355,365.38041 C1074.96142,361.850249 1077.41959,358.788896 1080.79363,358.130446 L1080.81946,359.073966 C1080.78712,358.040369 1080.76853,357.02516 1080.76372,356.02833 L1080.7635,355.037627 L1080.76793,354.037637 Z M1082.57558,360.018101 L1081.40037,360.055143 C1078.87749,360.431109 1077.00919,362.673669 1077.15059,365.271722 C1077.30066,368.029065 1079.65758,370.142679 1082.41492,369.992611 C1085.17227,369.842544 1087.28588,367.485621 1087.13581,364.728278 C1086.9987,362.209007 1085.01937,360.227102 1082.57558,360.018101 Z M1081.49186,343.945726 L1083.47661,344.19227 L1083.35333,345.184643 C1083.22751,346.197596 1083.12175,347.238313 1083.03609,348.306782 L1082.97561,349.113337 L1082.90592,350.110905 L1080.91079,349.971527 L1080.98047,348.973958 C1081.05806,347.863383 1081.15636,346.780289 1081.27541,345.724666 L1081.36859,344.938099 L1081.49186,343.945726 Z M1083.80828,334.028981 L1085.71074,334.645936 L1085.40226,335.597168 C1085.09156,336.555255 1084.80816,337.551602 1084.55212,338.586216 L1084.36523,339.369351 L1084.1411,340.343909 L1082.19198,339.89564 L1082.41611,338.921081 C1082.66875,337.822582 1082.95044,336.76216 1083.26124,335.739824 L1083.4998,334.980213 L1083.80828,334.028981 Z M1088.63156,324.942547 L1090.25785,326.106663 L1089.67579,326.91981 C1089.41854,327.279197 1089.16981,327.643789 1088.9246,328.02112 C1088.58534,328.543555 1088.25999,329.085581 1087.94856,329.647239 L1087.64178,330.215441 L1087.17646,331.100586 L1085.40617,330.169956 L1085.87149,329.284811 C1086.3026,328.464737 1086.76116,327.680395 1087.24742,326.931591 C1087.42189,326.663111 1087.59811,326.400567 1087.77761,326.141646 L1088.0495,325.755694 L1088.63156,324.942547 Z M1096.09261,317.854335 L1097.28482,319.460149 L1096.48192,320.056253 C1095.63689,320.683628 1094.83219,321.340268 1094.06802,322.026975 L1093.50249,322.547656 L1092.7751,323.233877 L1091.40265,321.779091 L1092.13005,321.09287 C1092.92016,320.347484 1093.75241,319.63504 1094.6264,318.954694 L1095.28971,318.450439 L1096.09261,317.854335 Z M1105.13014,313.021441 L1105.91563,314.860734 L1104.99599,315.253481 C1104.01094,315.674158 1103.05902,316.117176 1102.14019,316.583223 L1101.45727,316.937087 L1100.57345,317.404915 L1099.6378,315.637277 L1100.52162,315.169448 C1101.46384,314.670703 1102.43925,314.196837 1103.44783,313.747038 L1104.21049,313.414188 L1105.13014,313.021441 Z M1114.79398,309.978456 L1115.28506,311.917227 L1114.31567,312.16277 C1113.33467,312.411255 1112.37713,312.673799 1111.44268,312.950912 L1110.51592,313.2329 L1109.56135,313.530861 L1108.96542,311.621705 L1109.92,311.323744 C1110.8656,311.028585 1111.83394,310.748847 1112.8254,310.483958 L1113.82459,310.223998 L1114.79398,309.978456 Z M1124.75726,308.127042 L1125.04956,310.105568 L1124.06029,310.251715 C1123.05524,310.400194 1122.07065,310.558345 1121.10554,310.726656 L1120.14689,310.898372 L1119.16339,311.079262 L1118.80161,309.112256 L1119.78511,308.931365 C1120.75502,308.752975 1121.74384,308.585198 1122.75258,308.42752 L1123.768,308.273189 L1124.75726,308.127042 Z M1134.75775,307.067826 L1134.92196,309.061073 L1133.92533,309.143176 C1132.90836,309.226955 1131.91287,309.316858 1130.93638,309.413405 L1129.96612,309.512184 L1128.97157,309.616406 L1128.76312,307.627298 L1129.75768,307.523076 C1130.73312,307.420857 1131.72649,307.325573 1132.74035,307.236693 L1133.76113,307.149928 L1134.75775,307.067826 Z M1144.76733,306.491226 L1144.85612,308.489254 L1143.85711,308.533649 C1142.75181,308.582766 1141.68573,308.634932 1140.64772,308.691041 L1139.87429,308.733876 L1138.8759,308.790521 L1138.76261,306.793732 L1139.761,306.737087 C1140.79249,306.678565 1141.849,306.624258 1142.94177,306.573261 L1143.76832,306.53562 L1144.76733,306.491226 Z M1154.78792,306.151598 L1154.84833,308.150685 L1153.84879,308.180889 C1152.25692,308.228992 1151.18603,308.262175 1150.11979,308.297039 L1149.85303,308.3058 L1148.85358,308.338764 L1148.78765,306.339851 L1149.7871,306.306887 C1150.85825,306.271557 1151.8904,306.239317 1153.40058,306.193538 L1153.78838,306.181802 L1154.78792,306.151598 Z M1164.78276,305.79488 L1164.87069,307.792945 L1163.87166,307.836913 C1162.81526,307.883406 1161.70307,307.927031 1160.48366,307.970317 L1159.86479,307.991944 L1158.86538,308.026338 L1158.79659,306.027521 L1159.796,305.993127 C1161.04744,305.95006 1162.18292,305.9071 1163.25357,305.86174 L1163.78372,305.838848 L1164.78276,305.79488 Z M1174.70708,305.044596 L1174.91887,307.033351 L1173.92449,307.139244 C1172.87717,307.250775 1171.77646,307.350954 1170.61265,307.44144 L1169.90671,307.494582 L1168.90935,307.567259 L1168.764,305.572548 L1169.76135,305.499871 C1170.93309,305.414486 1172.03928,305.320008 1173.08933,305.214866 L1173.7127,305.150489 L1174.70708,305.044596 Z M1184.38487,303.241521 L1184.85268,305.18604 L1183.88042,305.419945 C1182.91713,305.651692 1181.934,305.868324 1180.93105,306.069854 L1179.92148,306.266349 L1178.93877,306.451505 L1178.56846,304.486087 L1179.55117,304.300931 C1180.54311,304.114036 1181.51511,303.912525 1182.46718,303.696409 L1183.41261,303.475426 L1184.38487,303.241521 Z M1193.709,300.080928 L1194.47754,301.927369 L1193.55432,302.311639 C1192.57332,302.719958 1191.56397,303.106556 1190.52627,303.471458 L1189.74269,303.741067 L1188.79494,304.060079 L1188.15691,302.164578 L1189.10467,301.845566 C1190.12166,301.503245 1191.11036,301.140292 1192.07077,300.756732 L1192.78578,300.465198 L1193.709,300.080928 Z M1202.19326,295.216662 L1203.34431,296.85223 L1202.52652,297.427755 C1201.64821,298.045878 1200.73463,298.637024 1199.78585,299.201206 L1199.06766,299.619288 L1198.19883,300.114397 L1197.20861,298.376736 L1198.07744,297.881626 C1199.00006,297.355866 1199.88814,296.804961 1200.74174,296.228925 L1201.37547,295.792187 L1202.19326,295.216662 Z M1209.11676,288.424246 L1210.6695,289.684798 L1210.03923,290.46117 C1209.35021,291.309899 1208.62058,292.128098 1207.85042,292.915707 L1207.2652,293.500678 L1206.54994,294.199543 L1205.15222,292.769035 L1205.86747,292.07017 C1206.61411,291.340643 1207.32212,290.58259 1207.9916,289.795954 L1208.48649,289.200617 L1209.11676,288.424246 Z M1213.8497,279.910694 L1215.69506,280.68182 L1215.3095,281.604501 C1214.88188,282.627825 1214.41453,283.621975 1213.90744,284.586864 L1213.51967,285.305043 L1213.03471,286.179576 L1211.28564,285.209646 L1211.7706,284.335113 C1212.26881,283.436693 1212.72974,282.510008 1213.15339,281.554971 L1213.46414,280.833376 L1213.8497,279.910694 Z M1217.6719,259 L1223.95979,273.333958 L1217.84032,273.025842 C1217.72782,273.624135 1217.60501,274.214925 1217.47189,274.798205 L1217.2611,275.681045 L1217.01907,276.651314 L1215.07853,276.167252 L1215.32056,275.196984 C1215.506,274.453591 1215.67357,273.696498 1215.82327,272.92569 L1209.97747,272.630692 L1217.6719,259 Z"></path>
        </g>
    </g>
</svg>
