<?xml version="1.0" encoding="UTF-8"?>
<svg width="70px" height="84px" viewBox="0 0 60 77" version="1.1" xmlns="http://www.w3.org/2000/svg" xmlns:xlink="http://www.w3.org/1999/xlink" style="transform: rotate(180deg);">
    <g id="Draft-1" stroke="none" stroke-width="1" fill="none" fill-rule="evenodd">
        <g id="1.-Training-nudge_M" transform="translate(-125.000000, -202.000000)" fill="#FFFFFF" fill-rule="nonzero">
            <path id="Line-Copy" d="M130.193695,257.961609 L132.190036,258.082542 L132.129569,259.080712 C132.071974,260.031489 132.033563,261.022365 132.01437,262.053288 C135.40073,262.474296 138.058197,265.322036 138.140843,268.835382 C138.231759,272.700306 135.172321,275.907148 131.307397,275.998064 C127.442473,276.08898 124.235631,273.029542 124.144715,269.164618 C124.061506,265.627348 126.617143,262.64131 130.013994,262.090744 C130.027651,261.283545 130.053423,260.499067 130.090689,259.737545 L130.133229,258.959779 L130.193695,257.961609 Z M126.144162,269.117584 C126.209102,271.878244 128.499703,274.063557 131.260363,273.998617 C134.021023,273.933677 136.206336,271.643076 136.141396,268.882416 C136.081142,266.320943 134.104812,264.254788 131.614757,264.021841 L130.746158,264.015618 C128.118788,264.22235 126.081426,266.450621 126.144162,269.117584 Z M132.203981,247.909127 L134.096893,248.554792 L133.774061,249.501248 C133.448652,250.455258 133.167302,251.506595 132.930626,252.655014 L132.816014,253.237312 L132.631426,254.220128 L130.665794,253.850953 L130.850382,252.868137 C131.086675,251.610025 131.372624,250.447724 131.708846,249.380988 L131.881149,248.855583 L132.203981,247.909127 Z M138.677236,239.67463 L139.890907,241.264284 L139.09608,241.87112 C138.22492,242.536235 137.435902,243.28821 136.728824,244.134622 L136.430806,244.503174 L135.814485,245.290668 L134.239495,244.058025 L134.855817,243.270531 C135.632043,242.278721 136.502341,241.394309 137.464458,240.610998 L137.882409,240.281465 L138.677236,239.67463 Z M148.521104,236.086296 L148.901785,238.049733 L147.920067,238.240073 C146.771797,238.462705 145.69668,238.731546 144.685667,239.053558 L144.185461,239.219026 L143.239672,239.543807 L142.590109,237.652229 L143.535898,237.327448 C144.60499,236.960325 145.73432,236.653794 146.933771,236.399481 L147.539386,236.276637 L148.521104,236.086296 Z M158.603495,235.244471 L158.695531,237.242353 L157.696591,237.288371 C156.118113,237.361086 155.054016,237.418345 153.995489,237.493609 L153.730678,237.512819 L152.733403,237.586592 L152.585858,235.592042 L153.583133,235.518269 C154.665377,235.438211 155.704527,235.379662 157.216431,235.308549 L157.604555,235.290489 L158.603495,235.244471 Z M168.26211,234.017809 L168.793765,235.94585 L167.829744,236.211677 C167.719408,236.241914 167.719408,236.241914 167.608578,236.271532 C166.632412,236.530757 165.528912,236.722452 164.237353,236.867966 L163.744084,236.920411 L162.749073,237.020172 L162.54955,235.030149 L163.544562,234.930388 C164.953956,234.78908 166.113314,234.599288 167.09526,234.338528 C167.171522,234.318148 167.190588,234.313052 167.238025,234.300085 L167.298089,234.283636 L168.26211,234.017809 Z M176.066029,228.82905 L177.527441,230.194435 L176.844749,230.925141 C175.997216,231.832281 175.063034,232.642249 174.043117,233.354354 L173.600764,233.653547 L172.764256,234.201502 L171.668347,232.528485 L172.504856,231.980531 C173.432454,231.372908 174.282666,230.679418 175.056411,229.899366 L175.383337,229.559757 L176.066029,228.82905 Z M181.96604,209 L187.515653,223.635634 L181.347561,223.010876 C181.121077,223.709235 180.871189,224.382479 180.597831,225.030551 L180.358185,225.578968 L179.945927,226.490034 L178.123793,225.665517 L178.536051,224.754451 C178.817403,224.132681 179.074829,223.482433 179.308249,222.803635 L173.5873,222.221071 L181.96604,209 Z"></path>
        </g>
    </g>
</svg>
