<svg xmlns:dc="http://purl.org/dc/elements/1.1/" xmlns:cc="http://creativecommons.org/ns#" xmlns:rdf="http://www.w3.org/1999/02/22-rdf-syntax-ns#" xmlns:svg="http://www.w3.org/2000/svg" xmlns="http://www.w3.org/2000/svg" id="svg10" version="1.1" viewBox="0 0 20 20" height="20" width="20"> <metadata id="metadata16"> <rdf:RDF> <cc:Work rdf:about=""> <dc:format>image/svg+xml</dc:format> <dc:type rdf:resource="http://purl.org/dc/dcmitype/StillImage"/> </cc:Work> </rdf:RDF> </metadata> <defs id="defs14"/> <!-- Generator: Sketch 59.1 (86144) - https://sketch.com --> <title id="title2">Group 9</title> <desc id="desc4">Created with Sketch.</desc> <g transform="translate(0.386954,-0.415624)" style="fill:none;fill-rule:evenodd;stroke:none;stroke-width:1" id="Page-1"> <g transform="translate(-0.386954,0.415624)" id="Group-9"> <rect height="20" width="20" y="0" x="0" id="Rectangle-Copy-13"/> <path style="fill:#5e6062;fill-rule:nonzero" id="Combined-Shape" d="m 11.771361,17.854351 c 0.471503,0 0.853732,0.393956 0.853732,0.879924 0,0.485968 -0.382229,0.879924 -0.853732,0.879924 -0.471502,0 -0.853731,-0.393956 -0.853731,-0.879924 0,-0.485968 0.382229,-0.879924 0.853731,-0.879924 z m 3.841792,0 c 0.471503,0 0.853732,0.393956 0.853732,0.879924 0,0.485968 -0.382229,0.879924 -0.853732,0.879924 -0.471503,0 -0.853731,-0.393956 -0.853731,-0.879924 0,-0.485968 0.382228,-0.879924 0.853731,-0.879924 z M 1.8254612,0.38580128 H 15.622549 c 0.379696,0 0.693491,0.28215388 0.743153,0.64822942 l 0.0068,0.1017706 v 7.8054754 h -1.5 V 1.8858013 H 4.8204612 V 16.223801 l 3.0075558,6.27e-4 v 1.5 H 1.8254612 c -0.3796957,0 -0.6934909,-0.282154 -0.7431534,-0.64823 l -0.00685,-0.10177 V 1.1358013 c 0,-0.37969579 0.2821539,-0.69349098 0.6482295,-0.74315341 l 0.1017705,-0.006847 H 15.622549 Z M 7.0232545,8.3203714 v 0 l 1.6442378,0.3368123 c 0.26135,0.053536 0.4715844,0.2408459 0.5576321,0.4876024 l 0.029061,0.1091757 0.1504127,0.8100042 8.7697499,9.96e-4 c 0.464264,0 0.817008,0.417527 0.739464,0.875269 l -1.04345,6.159466 c -0.06111,0.360735 -0.37359,0.624731 -0.739464,0.624731 H 9.8267509 c -0.3658741,0 -0.6783539,-0.263996 -0.7394644,-0.624731 L 8.0438369,10.940231 7.8725327,10.025488 6.7222389,9.7898576 C 6.3164515,9.7067344 6.0548805,9.3103941 6.1380036,8.9046067 6.2072729,8.5664505 6.4940541,8.3284446 6.8225544,8.3066062 l 0.099626,4.95e-5 z M 3.8204612,1.8858013 h -1.245 V 16.224428 l 1.245,-6.27e-4 z m 8.8140278,1.5466165 c 0.276142,0 0.5,0.2238576 0.5,0.5 v 1.9047619 c 0,0.2761424 -0.223858,0.5 -0.5,0.5 H 6.8821425 c -0.2761423,0 -0.5,-0.2238576 -0.5,-0.5 V 3.9324178 c 0,-0.2761424 0.2238577,-0.5 0.5,-0.5 z m -0.5,1 H 7.3821425 v 0.9047619 h 4.7523465 z"/> </g> </g> </svg>