<svg xmlns:dc="http://purl.org/dc/elements/1.1/" xmlns:cc="http://creativecommons.org/ns#" xmlns:rdf="http://www.w3.org/1999/02/22-rdf-syntax-ns#" xmlns:svg="http://www.w3.org/2000/svg" xmlns="http://www.w3.org/2000/svg" viewBox="0 0 389.22327 400.13464" height="400.13464" width="389.22327" version="1.1" id="svg"> <metadata id="metadata13"> <rdf:RDF> <cc:Work rdf:about=""> <dc:format>image/svg+xml</dc:format> <dc:type rdf:resource="http://purl.org/dc/dcmitype/StillImage"/> </cc:Work> </rdf:RDF> </metadata> <defs id="defs11"/> <g transform="translate(-3.1298582,-5.6653699)" id="svgg"> <path style="fill:#249cd6;fill-rule:evenodd;stroke:none" d="m 156.2,205.975 c -3.129,0.766 -6.019,3.069 -7.693,6.13 -0.631,1.156 -0.72,2.806 -0.826,15.417 l -0.119,14.122 0.952,2.081 c 1.205,2.633 3.117,4.55 5.728,5.746 l 2.047,0.937 80.755,-0.104 80.756,-0.104 1.651,-0.883 c 5.617,-3.005 6.218,-5.18 6.069,-21.98 l -0.12,-13.537 -1.241,-2.2 c -1.489,-2.64 -3.859,-4.561 -6.649,-5.39 -2.217,-0.658 -158.647,-0.886 -161.31,-0.235" id="path0"/> <path style="fill:#94d404;fill-rule:evenodd;stroke:none" d="m 155.597,272.774 c -3.088,0.939 -6.203,3.845 -7.354,6.859 -1.032,2.7 -0.807,29.101 0.264,31.062 1.195,2.185 3.124,4.105 5.257,5.231 l 2.036,1.074 79.781,0.105 c 88.104,0.116 82.152,0.283 85.652,-2.408 0.927,-0.714 2.244,-2.287 2.926,-3.497 l 1.241,-2.2 0.12,-13.537 c 0.141,-15.894 0.069,-16.327 -3.285,-19.68 -3.715,-3.716 4.688,-3.388 -85.806,-3.349 -43.906,0.019 -80.28,0.172 -80.832,0.34" id="path1"/> <path style="fill:#5c6464;fill-rule:evenodd;stroke:none" d="M 71.6,6.004 C 55.461,7.572 42.076,18.975 37.562,35 36.693,38.085 36.655,38.914 36.506,58.1 L 36.353,78 H 24.391 C 13.347,78 12.263,78.062 10.258,78.813 2.227,81.817 0.649,93.03 7.519,98.27 c 2.616,1.996 3.639,2.125 16.781,2.128 l 12.1,0.002 v 44.4 44.4 H 24.271 c -9.83,0 -12.468,0.116 -13.922,0.611 -7.355,2.506 -9.614,12.231 -4.205,18.099 3.217,3.49 3.138,3.474 17.556,3.611 l 12.7,0.121 v 44.153 44.154 l -12.5,0.125 -12.5,0.126 -2,1.064 c -8.498,4.522 -8.32,16.49 0.303,20.388 2.037,0.921 2.446,0.951 14.378,1.069 l 12.28,0.121 0.144,25.279 c 0.126,22.27 0.224,25.582 0.826,27.827 3.879,14.482 14.709,25.33 28.893,28.941 L 69.8,405.8 H 214.4 359 l 3.253,-0.869 c 14.684,-3.922 24.868,-13.977 28.894,-28.526 L 392.2,372.6 392.32,208.4 C 392.41,86.406 392.323,43.223 391.981,40.4 389.729,21.811 375.338,7.831 356.578,6.007 351.914,5.554 76.263,5.55 71.6,6.004 m 285.431,35.29 1.369,1.494 v 162.826 c 0,141.399 -0.076,162.973 -0.58,163.946 -0.318,0.617 -1.083,1.463 -1.7,1.881 -1.686,1.143 -280.661,1.399 -282.892,0.26 -3.197,-1.634 -3.015,-0.128 -3.138,-25.93 l -0.109,-22.971 1.109,0.005 c 0.908,0.003 1.256,0.31 1.91,1.682 10.864,22.783 46.306,17.894 51.951,-7.166 C 131.902,286.466 88.953,270.267 73.199,297.802 72.218,299.517 71.728,300 70.971,300 H 70 v -44.2 -44.2 h 0.947 c 0.75,0 1.272,0.564 2.5,2.7 14.53,25.265 53.819,13.43 52.04,-15.676 -1.679,-27.462 -39.409,-36.077 -52.21,-11.921 -1.071,2.019 -1.511,2.497 -2.3,2.497 H 70 v -44.4 -44.4 h 0.977 c 0.789,0 1.229,0.478 2.3,2.497 12.912,24.366 50.796,15.441 52.2,-12.297 1.462,-28.898 -37.604,-40.385 -52.03,-15.3 -1.228,2.136 -1.75,2.7 -2.5,2.7 H 70 V 60.96 c 0,-18.859 0.024,-19.054 2.568,-20.607 1.201,-0.733 4.824,-0.749 142.163,-0.652 l 140.93,0.099 1.37,1.494 M 103.488,73.916 c 12.047,4.603 14.244,20.694 3.902,28.583 -5.756,4.392 -15.061,4.014 -20.59,-0.838 l -1.4,-1.228 4.821,-0.017 c 8.328,-0.028 13.02,-3.891 13.085,-10.771 0.07,-7.483 -4.738,-11.638 -13.476,-11.643 L 85.861,78 86.765,77.037 c 3.525,-3.751 11.283,-5.199 16.723,-3.121 m 0.984,111.565 c 14.642,6.855 11.714,28.298 -4.237,31.03 -4.597,0.788 -10.538,-0.896 -13.286,-3.764 l -1.099,-1.147 3.975,-0.002 c 8.743,-0.005 13.551,-4.158 13.481,-11.643 -0.064,-6.792 -4.359,-10.431 -12.693,-10.754 L 85.426,189 l 1.587,-1.245 c 5.147,-4.039 11.831,-4.91 17.459,-2.274 m -4.027,109.721 c 13.178,2.459 18.2,18.841 8.569,27.949 -6.069,5.74 -14.714,6.225 -21.414,1.199 l -1.8,-1.35 4.6,-0.236 c 8.346,-0.428 12.9,-4.432 12.9,-11.344 0,-6.966 -4.464,-10.904 -12.887,-11.367 l -4.587,-0.253 1.655,-1.308 c 3.776,-2.986 8.361,-4.149 12.964,-3.29" id="path2"/> <path style="fill:#fcd404;fill-rule:evenodd;stroke:none" d="m 153.658,140.434 c -5.621,2.809 -6.038,4.243 -6.049,20.795 -0.011,16.956 0.466,18.581 6.301,21.447 l 2.29,1.124 h 80.4 c 75.465,0 80.494,-0.043 81.935,-0.694 2.469,-1.117 4.421,-2.894 5.685,-5.177 l 1.18,-2.129 0.12,-13.537 c 0.152,-17.134 -0.486,-19.297 -6.52,-22.12 l -2,-0.935 -80.436,-0.004 -80.436,-0.004 -2.47,1.234" id="path3"/> <path style="fill:#656dc8;fill-rule:evenodd;stroke:none" d="m 155.164,73.019 c -2.45,0.758 -5.453,3.465 -6.618,5.966 -0.928,1.992 -0.938,2.171 -0.933,15.815 0.005,15.645 0.025,15.758 3.295,19.104 3.537,3.617 -4.804,3.296 85.636,3.296 90.355,0 81.977,0.331 85.691,-3.383 3.354,-3.353 3.426,-3.786 3.285,-19.68 -0.145,-16.367 -0.476,-17.476 -6.12,-20.474 l -2,-1.063 -80.2,-0.074 c -68.281,-0.063 -80.473,0.01 -82.036,0.493" id="path4"/> </g> </svg>