<?xml version="1.0" encoding="UTF-8" standalone="no"?><!DOCTYPE svg PUBLIC "-//W3C//DTD SVG 1.1//EN" "http://www.w3.org/Graphics/SVG/1.1/DTD/svg11.dtd"><svg width="100%" height="100%" viewBox="0 0 1246 1080" version="1.1" xmlns="http://www.w3.org/2000/svg" xmlns:xlink="http://www.w3.org/1999/xlink" xml:space="preserve" xmlns:serif="http://www.serif.com/" style="fill-rule:evenodd;clip-rule:evenodd;stroke-linecap:round;"><g><clipPath id="_clip1"><rect x="0" y="0" width="1245.83" height="1079.17"/></clipPath><g clip-path="url(#_clip1)"><rect x="0" y="0" width="1245.83" height="1079.17" style="fill:#fff;"/><g><clipPath id="_clip2"><rect x="0" y="0" width="3462.5" height="2154.17"/></clipPath><g clip-path="url(#_clip2)"><path d="M742.929,608.188c218.804,163.916 492.963,-19.98 842.188,213.358c193.796,129.475 156.387,217.525 336.271,328.012c271.262,166.63 723.712,192.109 1043.88,-59.695c359.766,-282.959 342.045,-750.531 338.45,-845.545c-26.15,-690.285 -686.292,-1074.49 -752.596,-1111.7c-536.838,-301.233 -1412.35,-345.583 -1810.34,185.179c-302.587,403.533 -282.458,1077.19 2.15,1290.4l0,-0.016Z" style="fill:#aaf9f9;fill-rule:nonzero;"/><path d="M571.308,607.342c234.755,175.858 528.88,-21.446 903.55,228.896c207.904,138.908 167.779,233.354 360.759,351.912c291.02,178.767 776.437,206.1 1119.92,-64.054c385.963,-303.559 366.971,-805.198 363.1,-907.143c-28.054,-740.557 -736.275,-1152.77 -807.416,-1192.67c-575.934,-323.162 -1515.22,-370.766 -1942.22,198.667c-324.62,432.919 -303.027,1155.66 2.308,1384.4Z" style="fill:#c6fbfb;fill-rule:nonzero;"/><path d="M399.676,606.496c250.682,187.8 564.774,-22.892 964.895,244.433c222.025,148.346 179.167,249.2 385.262,375.796c310.788,190.904 829.155,220.092 1195.95,-68.4c412.18,-324.171 391.888,-859.878 387.755,-968.738c-29.959,-790.845 -786.263,-1231.02 -862.234,-1273.64c-615.037,-345.113 -1618.1,-395.938 -2074.09,212.154c-346.684,462.316 -323.611,1234.13 2.457,1478.4Z" style="fill:#e3fdfd;fill-rule:nonzero;"/><path d="M228.059,605.633c266.629,199.742 600.687,-24.341 1026.24,259.971c236.133,157.767 190.575,265.046 409.754,399.696c330.542,203.042 881.875,234.083 1271.99,-72.742c438.374,-344.787 416.8,-914.546 412.42,-1030.32c-31.858,-841.121 -836.25,-1309.29 -917.054,-1354.63c-654.154,-367.042 -1720.99,-421.108 -2205.96,225.642c-368.716,491.712 -344.178,1312.59 2.603,1572.39l0.016,0Z" style="fill:#fff;fill-rule:nonzero;"/><path d="M493.467,512.408c235.679,176.559 558.621,10.38 934.775,261.696c208.733,139.463 201.458,253.154 395.204,372.167c292.175,179.487 778.533,192.371 1123.38,-78.859c387.496,-304.762 348.538,-826.592 342.454,-928.634c-45.3,-758.811 -749.962,-1146.11 -821.379,-1186.18c-578.229,-324.446 -1538.68,-377.634 -1967.37,194.062c-325.939,434.642 -313.605,1136.11 -7.062,1365.75Z" style="fill:#ddf1fc;fill-rule:nonzero;"/><path d="M758.871,419.183c204.733,153.375 516.546,45.1 843.312,263.421c181.334,121.142 212.346,241.263 380.642,344.654c253.825,155.913 675.212,150.655 974.771,-84.958c336.629,-264.754 280.217,-738.672 272.487,-826.983c-59.212,-676.571 -663.658,-982.909 -725.7,-1017.73c-502.308,-281.855 -1356.39,-334.163 -1728.8,162.466c-283.125,377.568 -283.012,959.628 -16.712,1159.12Z" style="fill:#bbe4f9;fill-rule:nonzero;"/><path d="M1024.28,325.943c173.784,130.19 474.467,79.818 751.85,265.145c153.929,102.841 223.229,229.366 366.096,317.125c215.454,132.354 571.867,108.941 826.163,-91.059c285.745,-224.75 211.791,-650.751 202.533,-725.298c-73.825,-594.327 -577.371,-819.727 -630.025,-849.273c-426.383,-239.258 -1174.1,-290.671 -1490.21,130.892c-240.363,320.476 -252.455,783.134 -26.409,952.468Z" style="fill:#9ad6f7;fill-rule:nonzero;"/><path d="M1289.69,232.718c142.85,107.005 432.404,114.538 660.387,266.87c126.508,84.52 234.117,217.458 351.546,289.6c177.087,108.791 468.529,67.208 677.554,-97.18c234.863,-184.725 143.204,-562.797 132.563,-623.629c-89.576,-511.971 -491.063,-656.542 -534.342,-680.833c-350.463,-196.65 -991.792,-247.2 -1251.63,99.296c-197.537,263.435 -221.866,606.673 -36.058,745.86l-0.017,0.016Z" style="fill:#78c9f4;fill-rule:nonzero;"/><path d="M763.904,219.891l-11.941,5.024c-0.563,0.234 -1.221,-0.032 -1.455,-0.595c-0.237,-0.563 0.03,-1.221 0.592,-1.455l11.942,-5.024c0.566,-0.234 1.221,0.032 1.458,0.595c0.233,0.564 -0.033,1.221 -0.596,1.455Z" style="fill:#56bbf1;fill-rule:nonzero;"/><path d="M720.113,141.555c0.516,-2.112 3.1,-0.955 5.837,2.519c2.742,3.474 4.525,8.044 3.992,10.156c-0.534,2.113 -3.1,0.955 -5.838,-2.519c-2.737,-3.474 -4.521,-7.996 -3.991,-10.156Z" style="fill:#56bbf1;fill-rule:nonzero;"/><path d="M758.475,153.01c-4.962,2.566 0.858,-16.932 5.804,-19.452c4.946,-2.519 -0.862,16.885 -5.804,19.452Z" style="fill:#56bbf1;fill-rule:nonzero;"/><path d="M779.383,176.702c-2.27,-0.469 -0.925,-3.145 3.067,-5.994c3.992,-2.848 9.017,-4.788 11.283,-4.334c2.271,0.454 0.909,3.114 -3.066,5.993c-3.975,2.88 -9.063,4.82 -11.284,4.335Z" style="fill:#56bbf1;fill-rule:nonzero;"/><path d="M707.154,183.369c2.942,3.661 -11.862,4.757 -14.946,2.175c-1.55,-1.299 0.296,-3.255 4.6,-4.084c4.23,-0.814 9,0.25 10.346,1.909Z" style="fill:#56bbf1;fill-rule:nonzero;"/><path d="M721.225,211.598c2.238,0.314 1.192,3.13 -2.85,6.041c-4.037,2.911 -9.421,4.288 -11.596,3.458c-4.787,-1.846 10.142,-10.093 14.429,-9.483l0.017,-0.016Z" style="fill:#56bbf1;fill-rule:nonzero;"/><path d="M745.013,159.066c-13.113,-0.736 -24.917,7.981 -28.059,20.734c-3.208,14.992 6.338,29.732 21.329,32.94c1.034,0.22 2.084,0.376 3.13,0.486c1.112,0.078 1.237,0.532 6.216,5.195c0.875,0.845 2.159,1.095 3.284,0.642l10.004,-3.865c1.154,-0.408 1.937,-1.487 1.954,-2.708c0.612,-7.887 0.296,-8.09 0.971,-8.872c15.196,-17.605 2.408,-43.19 -18.842,-44.521l0.013,-0.031Zm-19.092,25.288c-1.004,4.898 0.216,5.899 0.954,9.812c0.029,0.062 0,0.141 0.029,0.25c0.096,0.704 0.017,1.8 -0.812,1.753c-0.359,-0.063 -0.688,-0.235 -0.938,-0.485c-3.196,-2.629 -5.071,-6.541 -5.15,-10.673c0.188,-5.555 2.663,-10.797 6.825,-14.49c2.784,-2.629 6.4,-4.21 10.217,-4.491c2.192,0.093 2.083,0.97 0.516,2.331c-2.595,1.941 -4.974,4.163 -7.104,6.619c-2.237,2.723 -3.804,5.931 -4.537,9.374Zm32.429,26.587c0.029,0.594 -0.425,1.127 -1.021,1.158c-0.529,0.031 -1.016,-0.329 -1.141,-0.845l-2.771,-20.218c-1.846,2.817 -5.259,4.162 -8.529,3.38c-2.834,-0.704 -5.805,-0.36 -8.405,0.97l14.338,18.106c0.375,0.469 0.296,1.158 -0.159,1.549c-0.483,0.344 -1.141,0.282 -1.549,-0.156l-14.584,-18.356c-0.658,-0.799 -0.567,-1.972 0.233,-2.629c0.109,-0.094 0.234,-0.172 0.375,-0.251c3.146,-1.705 6.809,-2.175 10.284,-1.299c2.658,0.485 5.354,-0.766 6.667,-3.129c0.641,-0.845 1.845,-1.002 2.674,-0.36c0.409,0.313 0.676,0.767 0.738,1.267l2.833,20.797l0.017,0.016Z" style="fill:#56bbf1;fill-rule:nonzero;"/><path d="M791.592,732.367l-9.021,12.429c-0.438,0.596 -1.25,0.725 -1.854,0.296c-0.6,-0.425 -0.721,-1.25 -0.296,-1.85l9.021,-12.429c0.433,-0.596 1.25,-0.725 1.854,-0.3c0.6,0.429 0.721,1.25 0.296,1.854Z" style="fill:#56bbf1;fill-rule:nonzero;"/><path d="M699.008,679.892c-0.783,-2.45 2.546,-2.88 7.467,-1.025c4.929,1.85 9.538,5.375 10.304,7.841c0.767,2.467 -2.546,2.88 -7.466,1.025c-4.93,-1.85 -9.509,-5.329 -10.305,-7.841Z" style="fill:#56bbf1;fill-rule:nonzero;"/><path d="M744.938,667.908c-3.438,5.654 -9.555,-17.687 -6.071,-23.283c3.487,-5.6 9.504,17.646 6.071,23.283Z" style="fill:#56bbf1;fill-rule:nonzero;"/><path d="M780.704,679.054c-2.587,0.917 -2.871,-2.608 -0.575,-7.962c2.288,-5.342 6.192,-10.396 8.775,-11.338c2.579,-0.937 2.829,2.604 0.579,7.954c-2.25,5.355 -6.225,10.459 -8.775,11.338l-0.004,0.008Z" style="fill:#56bbf1;fill-rule:nonzero;"/><path d="M711.588,730.246c5.229,1.892 -9.1,12.121 -13.817,11.408c-2.375,-0.358 -1.7,-3.487 2.154,-6.975c3.792,-3.416 9.283,-5.291 11.663,-4.433Z" style="fill:#56bbf1;fill-rule:nonzero;"/><path d="M743.225,750.204c2.454,-1.05 3.125,2.459 0.825,7.867c-2.296,5.408 -6.917,10.15 -9.621,10.633c-5.983,1.071 4.067,-16.466 8.796,-18.5Z" style="fill:#56bbf1;fill-rule:nonzero;"/><path d="M735.013,682.321c-13.746,7.329 -20.346,23.4 -15.701,38.275c5.967,17.162 24.717,26.242 41.88,20.275c1.187,-0.413 2.346,-0.888 3.475,-1.429c1.183,-0.609 1.575,-0.213 9.487,1.441c1.409,0.321 2.867,-0.216 3.729,-1.375l7.763,-10.079c0.917,-1.117 1.05,-2.687 0.321,-3.946c-4.23,-8.366 -4.671,-8.375 -4.475,-9.604c4.575,-27.2 -24.121,-45.25 -46.48,-33.546l0,-0.012Zm-3.787,37.383c2,5.588 3.854,5.854 7.013,9.367c0.062,0.042 0.07,0.146 0.199,0.229c0.521,0.654 1.13,1.821 0.255,2.267c-0.404,0.162 -0.842,0.195 -1.263,0.087c-4.854,-0.712 -9.162,-3.504 -11.796,-7.65c-3.233,-5.754 -3.95,-12.587 -2,-18.887c1.209,-4.375 3.884,-8.205 7.596,-10.834c2.271,-1.258 2.7,-0.296 1.959,2.059c-1.425,3.57 -2.48,7.279 -3.13,11.079c-0.6,4.137 -0.2,8.346 1.171,12.291l-0.004,-0.008Zm49.217,7.008c0.404,0.584 0.271,1.392 -0.321,1.805c-0.525,0.366 -1.233,0.3 -1.675,-0.155l-15.242,-18.783c-0.141,3.988 -2.775,7.454 -6.571,8.675c-3.3,1.025 -6.112,3.213 -7.912,6.154l25.671,9.546c0.666,0.258 1.016,0.992 0.796,1.667c-0.28,0.637 -0.992,0.983 -1.667,0.791l-26.071,-9.641c-1.167,-0.396 -1.783,-1.654 -1.383,-2.813c0.062,-0.166 0.133,-0.329 0.233,-0.471c2.138,-3.662 5.575,-6.387 9.621,-7.633c3.004,-1.146 4.946,-4.071 4.842,-7.287c0.129,-1.242 1.245,-2.146 2.495,-2.009c0.605,0.059 1.155,0.363 1.525,0.838l15.667,19.325l-0.008,-0.009Z" style="fill:#56bbf1;fill-rule:nonzero;"/><path d="M1296.96,473.154c-64.655,-45.046 -93.538,-27.291 -122.417,-37.625c-12.192,-4.504 -18.55,-27.027 -31.534,-60.943c-1.587,-3.975 -1.587,-7.684 0.796,-11.129c6.096,-8.744 4.505,-15.103 6.888,-16.163c3.446,-1.59 15.9,-11.129 14.575,-24.378c-0.796,-7.419 -7.421,-17.223 -14.838,-18.283c-1.591,-0.265 3.18,-7.419 -1.062,-11.923c-7.417,-7.95 -15.1,-3.975 -15.634,-4.505c-0.791,-0.795 3.446,-12.454 -3.975,-16.163c-12.716,-6.624 -16.425,-1.59 -16.691,-4.24c-0.796,-7.154 -8.479,-10.334 -15.104,-10.599c-7.684,-0.53 -8.742,4.77 -9.538,4.505c-0.796,-1.855 -1.854,-3.71 -2.65,-5.565c-4.237,-8.744 -13.25,-11.658 -21.462,-9.539c-13.779,3.445 -16.692,15.369 -17.488,15.634c-0.796,0.265 -6.096,-5.3 -18.016,-3.445c-10.6,1.59 -17.755,11.13 -16.696,21.463c0.529,4.77 -0.796,1.324 -11.392,6.889c-17.225,9.009 -14.308,30.472 -2.917,42.131c1.325,1.325 0.267,1.59 -2.12,4.504c-7.946,9.804 2.12,20.403 15.104,21.993c2.121,0.265 0.796,-0.265 9.275,18.018c-17.488,0.265 -34.975,8.744 -45.842,26.762c-23.846,40.276 15.371,88.234 60.417,72.601c0.529,-0.262 1.058,-0.529 1.325,0.534c1.058,2.649 6.358,14.308 9.8,19.604c0.266,0.266 0.796,6.891 1.591,11.129c-2.383,0.796 -6.095,1.591 -9.537,2.65c-0.267,-1.058 -48.492,-24.113 -59.092,-25.438c-9.271,-1.058 -12.716,6.096 -21.991,28.088c-9.275,-4.504 -45.842,-19.609 -54.055,-13.513c-4.504,3.179 -4.77,7.154 -10.066,22.259c-2.65,7.416 -5.3,13.245 -11.396,36.566c-25.438,96.184 -23.054,91.679 -4.238,103.867c9.009,5.829 32.059,17.754 34.18,18.283c5.829,19.079 21.462,31.796 45.045,32.329c2.384,0 11.659,-3.712 16.959,-6.362c1.058,1.325 1.325,2.121 2.383,2.65c71.279,37.625 72.867,30.737 109.171,-22.258c2.912,-4.238 12.187,-16.163 16.692,-22.788c49.283,89.563 165.87,96.979 225.491,33.125c48.488,-51.671 65.979,-153.687 -29.941,-220.725Zm-236.888,13.517c-10.067,-21.463 -11.392,-20.404 -9.8,-21.467c7.683,-5.829 13.246,-12.45 17.488,-21.725c2.65,1.588 11.658,4.771 18.545,5.3c14.575,0.792 18.55,-4.504 19.609,-1.854c1.591,5.033 2.121,10.333 2.121,15.633c-15.105,5.563 -33.388,13.246 -47.963,24.113Z" style="fill:#fff;fill-rule:nonzero;"/><path d="M1138.21,377.013c0,7.626 2.738,14.717 4.4,22.042c0.809,3.55 2.671,7.263 4.205,10.521c2.058,4.371 3.42,8.986 5.816,13.22c2.583,4.575 4.646,9.641 7.1,14.333c0.367,0.704 1.242,2.842 1.221,2.046c-0.037,-1.213 -0.342,-2.388 -0.592,-3.571c-0.754,-3.608 -2.02,-7.012 -3.133,-10.521c-1.242,-3.908 -3.708,-6.671 -5.296,-10.236c-1.433,-3.229 -2.946,-6.44 -4.529,-9.606c-1.108,-2.22 -2.237,-4.402 -3.308,-6.665c-1.138,-2.399 -1.613,-4.812 -2.55,-7.253c-0.454,-1.179 -2.067,-4.751 0.021,-2.548c0.975,1.03 1.741,3.31 1.741,4.705" style="fill:none;fill-rule:nonzero;stroke:#eec9aa;stroke-width:12.5px;"/><path d="M1133.27,407.93c1.375,14.074 7.683,26.062 12.558,38.883c0.817,2.141 1.9,4.237 2.496,6.479c0.304,1.133 -0.425,1.571 -1.175,2.304c-0.983,0.954 -7.713,8.429 -8.825,5.354c-1.142,-3.158 -2.087,-6.392 -3.188,-9.567c-1.337,-3.862 -2.966,-7.591 -3.895,-11.616c-0.2,-0.867 -0.938,-3.417 -0.58,-2.613c0.617,1.392 0.309,3.604 0.434,5.1c0.221,2.579 0.437,5.179 0.437,7.771c0,0.567 0.35,2.521 -0.066,1.033c-0.579,-2.083 -1.979,-2.283 -3.267,-3.412c-0.342,-0.3 -2.383,-1.721 -2.692,-1.417c-0.629,0.633 0.005,5.046 0.292,5.808c0.642,1.726 0.783,0.021 0.371,-0.816c-0.325,-0.654 0.121,-0.296 0.304,0.183c0.454,1.163 1.183,2.029 1.579,3.246c0.621,1.913 2.029,3.55 2.029,5.721c0,1.487 0.288,2.904 0.288,4.408c-0,1.471 -1.038,4.904 0.871,4.904" style="fill:none;fill-rule:nonzero;stroke:#eec9aa;stroke-width:45.83px;"/><path d="M1111.55,444.842l2.35,-0" style="fill:none;fill-rule:nonzero;stroke:#eec9aa;stroke-width:12.5px;"/><path d="M1117.04,457.383c-0.509,0.067 -0.5,1.121 -0.7,1.571c-0.134,0.3 -0.084,0.659 -0.084,0.979c0,0.317 -0.491,0.938 -0.175,0.938c0.313,-0 0.175,-3.767 0.175,-4.271" style="fill:none;fill-rule:nonzero;stroke:#eec9aa;stroke-width:12.5px;"/><path d="M1113.12,457.779c-0.138,1.254 0.321,2.317 0.391,3.529c0.067,1.121 1.5,1.855 1.571,3.134c0.2,3.666 -0.396,7.158 -0.396,10.737c0,3.896 1.371,6.367 3.921,9.279c2,2.284 3.129,5.5 5.513,7.409c1.612,1.287 13.116,6.679 14.091,4.725" style="fill:none;fill-rule:nonzero;stroke:#eec9aa;stroke-width:12.5px;"/><path d="M1115.08,482.479c0,3.046 3.617,5.459 5.317,7.642c1.291,1.662 4.15,3.183 6.054,4.029c1.637,0.729 3.679,0.788 5.096,2.05c3.15,2.8 9.558,3.65 13.529,2.767c4.854,-1.079 9.783,-2.409 12.958,-6.492c2.392,-3.075 5.35,-5.654 7.929,-8.517c1.121,-1.245 1.584,-2.762 2.742,-3.92c1.237,-1.238 2.287,-3.48 3.137,-5.009c1.85,-3.329 3.555,-7.079 4.38,-10.783c0.341,-1.546 1.195,-3.533 1.195,-5.096c0,-1.725 1.18,-3.012 1.18,-4.704c-0,-2.163 3.091,-9.325 -0.088,-10.304c-2.496,-0.767 -5.629,-0.559 -7.95,-1.85c-1.3,-0.721 -3.537,-1.142 -4.508,-2.354c-0.725,-0.9 -0.684,-0.942 -0.392,0.22c0.571,2.292 1.367,4.892 2.35,7.034c0.442,0.958 0.663,2.021 1.175,2.921c0.392,0.679 1.775,-0.188 2.267,0.304c1.212,1.212 -1.55,8.079 -1.958,9.712c-0.734,2.934 -1.726,6.267 -2.963,9.017c-4.192,9.312 -11.229,16.008 -20.063,20.975c-2.333,1.312 -4.05,2.037 -6.708,1.375c-4.641,-1.163 -8.312,-4.663 -12.741,-6.275c-0.396,-0.142 -2.771,-1.175 -1.896,-1.175c4.2,-0 8.271,0.4 12.525,0.087c3.062,-0.229 5.841,0.017 8.691,-1.287c4.517,-2.063 8.942,-4.363 12.567,-7.904c2.171,-2.121 5.596,-5.846 6.358,-8.909c0.729,-2.916 -1.962,-0.137 -3.396,0.938c-5.591,4.192 -11.291,7.771 -17.491,10.954c-0.492,0.254 -3.417,1.629 -3.417,1.417" style="fill:none;fill-rule:nonzero;stroke:#eec9aa;stroke-width:12.5px;"/><path d="M1038.94,507.492c-0.001,2.587 -1.267,5.416 -0.65,8.046c0.795,3.379 1.704,6.825 2.137,10.266c0.292,2.359 1.763,5.421 2.904,7.459c2.259,4.033 3.5,8.875 6.242,12.641c1.979,2.725 3.392,6.204 6.196,8.234c2.066,1.491 4.137,2.816 6.221,4.204" style="fill:none;fill-rule:nonzero;stroke:#eec9aa;stroke-width:12.5px;"/><path d="M1062.25,319.515c1.871,-0 3.546,0.406 5.275,1.104c5.588,2.255 10.829,4.899 16.138,7.731c4.529,2.416 7.191,4.025 9.625,8.408c0.362,0.647 -1.475,-0.289 -2.117,-0.653c-5.163,-2.921 -9.625,-7.039 -14.267,-10.685c-8.954,-7.031 -18.212,-13.665 -27.254,-20.58c-2.662,-2.036 5.742,3.508 8.813,4.847c5.22,2.274 10.729,3.867 16.029,5.951c3.421,1.345 7.283,2.597 10.208,4.913c1.796,1.421 -0.571,1.728 -1.892,1.781c-4.741,0.19 -9.412,-0.634 -14.112,-1.104c-0.042,-0.005 -2.054,-0.372 -1.533,0.27c2.02,2.477 5.945,4.027 8.704,5.365c6.562,3.187 13.416,5.415 20.512,7.078c2.009,0.471 5.65,1.223 7.754,1.623c0.675,0.128 4.921,1.377 5.771,0.811c0.7,-0.468 -1.466,-0.847 -2.254,-1.15c-2.046,-0.786 -4.033,-1.447 -6.133,-2.096c-6.25,-1.933 -12.659,-3.507 -19.071,-4.824c-1.988,-0.407 -3.321,-0.638 -5.275,-0.901c-0.696,-0.094 -2.733,-0.147 -2.071,-0.383c1.929,-0.69 4.613,-0.168 6.625,-0.293c1.258,-0.079 5.542,0.005 6.221,-1.488c1.062,-2.333 -11.863,-2.262 -12.958,-2.187c-0.838,0.058 -12.159,1.953 -8.546,3.359c3.283,1.276 13.921,1.981 10.504,1.127c-7.171,-1.793 -15.146,-1.939 -22.496,-1.939c-0.496,0 -1.983,0 -1.487,0c4.087,0 8.175,-0.008 12.262,0.091c8.113,0.196 16.242,0.501 24.346,0.947c4.171,0.229 8.733,0.276 12.804,1.397c2.113,0.583 -4.066,2.488 -4.508,2.637c-2.058,0.696 -4.171,1.166 -6.246,1.803c-0.812,0.251 -2.425,1.236 -1.6,-0.247c2.4,-4.322 5.513,-8.245 8.25,-12.353c0.692,-1.034 0.738,-1.137 0.496,0.09c-0.754,3.815 -1.163,7.747 -1.579,11.609c-0.346,3.219 -0.45,6.412 -0.45,9.647c-0,1.995 -0.684,5.474 0.091,7.372c0.017,0.043 0.775,-1.878 0.813,-1.984c0.458,-1.404 0.966,-2.801 1.104,-4.283c0.175,-1.961 -5.429,4.803 -5.838,5.274c-2.279,2.63 -4.562,5.254 -6.833,7.89c-0.629,0.733 -1.441,1.745 -1.104,0.18c1.133,-5.237 1.463,-10.758 3.2,-15.846c0.742,-2.163 0.163,1.189 0.138,1.555c-0.171,2.603 -0.171,5.275 0.133,7.867c0.146,1.213 0.175,4.494 1.983,3.539c2.117,-1.115 3.575,-3.086 5.5,-4.463" style="fill:none;fill-rule:nonzero;stroke:#eec9aa;stroke-width:12.5px;"/><path d="M1019.25,332.094c-0,3.266 -1.621,6.716 -1.621,10.143c0,1.251 -0.617,4.62 0.092,5.591c0.837,1.152 0.162,4.026 1.329,4.958c0.454,0.366 1.012,3.608 1.012,4.261c0,1.67 0.813,3.14 0.813,4.868c-0,2.17 1.362,6.675 2.75,8.408c0.617,0.773 1.658,3.487 2.929,3.562c1.267,0.074 7.304,2.401 7.304,1.532c0,-1.317 -0.558,-2.686 -0.812,-3.967c-0.659,-3.324 -0.996,-6.713 -1.125,-10.098c-0.288,-7.389 -0.905,-14.886 -0.905,-22.27c0,-12.309 -0.404,24.613 -0.404,36.922c0,8.116 0.229,-16.257 -0.45,-24.344c-0.483,-5.726 -1.096,-11.524 -2.162,-17.177c-0.467,-2.455 -0.729,0.845 -0.838,1.601c-0.579,4.073 -0.608,16.444 -0.608,12.329c0,-4.475 0.304,-8.818 0.025,-13.299c-0.117,-1.877 -0.467,2.918 -0.475,2.976c-1.038,6.667 -1.692,13.395 -2.367,20.106c-0.579,5.749 -1.096,11.581 -0.608,17.357c0.133,1.592 0.158,3.907 0.992,5.364c0.175,0.307 1.65,-2.075 1.691,-2.141c1.929,-3.156 3.2,-6.776 4.35,-10.279c0.725,-2.212 1.404,-4.451 1.846,-6.739c0.229,-1.159 0.113,-2.253 0.633,-3.291" style="fill:none;fill-rule:nonzero;stroke:#eec9aa;stroke-width:12.5px;"/><path d="M1032.64,330.875c0.37,11.139 2.82,23.621 7.1,34.082c1.108,2.708 2.066,6.803 2.229,9.738c0.012,0.186 -0.021,2.145 0.408,1.397c2.304,-4.036 2.821,-8.809 3.446,-13.344c0.667,-4.796 0.229,-9.552 0.7,-14.336c0.079,-0.814 0.112,-1.869 0.337,-2.66c0.188,-0.647 0.446,1.276 0.563,1.938c0.504,2.819 0.837,5.663 1.221,8.499c0.896,6.706 1.687,13.178 1.846,19.949c0.12,5.231 1.862,-10.308 2.433,-15.509c0.971,-8.82 2.437,-35.381 2.437,-26.508c0,9.867 -2.816,19.757 -2.208,29.642c0.013,0.202 0.208,2.112 0.271,1.96c1.362,-3.413 2.775,-6.796 3.967,-10.278c1.566,-4.576 3.587,-9.17 4.687,-13.885c0.054,-0.232 0.175,-0.933 0.133,-0.699c-0.287,1.731 -0.683,3.443 -1.037,5.162c-2.917,14.167 -6.104,28.793 -5.429,43.323c0.008,0.2 -0.088,2.135 0.429,0.992c1.358,-3.02 1.533,-6.84 2.117,-10.053c0.833,-4.573 2.937,-18.357 2.32,-13.75c-0.691,5.191 -2.383,11.1 -1.575,16.342c0.563,3.674 2.542,-14.641 1.688,-11.022c-0.321,1.37 -0.496,5.6 -0.496,4.192c0,-6.752 -3.942,-14.045 -6.625,-20.061c-1.787,-4.008 -3.717,-7.966 -5.567,-11.947c-0.904,-1.939 -2.075,-3.493 -3.629,-4.959c-0.825,-0.774 -2.7,-3.385 -3.879,-3.562c-1.212,-0.182 -1.392,6.487 -1.396,7.033c-0.066,5.069 1.779,8.802 4.892,12.691c1.712,2.143 3.637,3.691 5.971,5.162c1.025,0.645 2.954,1.776 3.337,2.93" style="fill:none;fill-rule:nonzero;stroke:#eec9aa;stroke-width:12.5px;"/><path d="M1048.05,377.537c0,1.866 1.692,3.063 3.159,4.057c1.529,1.038 2.512,3.149 4.145,3.967c2.775,1.388 4.1,2.973 6.288,5.162c0.691,0.692 0.721,1.636 1.579,2.209c0.412,0.276 0.946,0.674 1.263,1.06c1.004,1.229 2.591,3.866 3.041,5.455c0.367,1.281 0.546,2.556 0.838,3.854c0.479,2.173 2.037,3.714 3.133,5.568c3.029,5.131 2.521,10.777 2.521,16.544c-0,4.737 0.225,9.437 -0.788,14c-0.229,1.029 -0.845,1.825 0.588,1.825l3.854,-0c2.796,-0 5.738,0.045 8.338,0.787c1.075,0.308 2.512,-0.383 3.654,-0.383c2.275,-0 4.908,-0.263 7.1,-0.809c2.504,-0.629 5.366,-1.495 7.687,-2.525c2.196,-0.979 5.092,-0.641 6.896,-2.345c1.788,-1.688 3.558,-2.755 4.871,-5.05c0.808,-1.413 3.296,-2.675 4.687,-3.471c2.092,-1.196 4.075,-3.963 5.138,-6.084c0.85,-1.7 5.758,-15.741 3.967,-16.637" style="fill:none;fill-rule:nonzero;stroke:#eec9aa;stroke-width:12.5px;"/><path d="M1063.49,385.567c6.191,6.316 11.141,13.606 14.004,22.091c1.341,3.986 4.079,9.688 2.733,14.079c-0.717,2.342 -0.467,5.988 -0.592,8.413c-0.07,1.404 -0.391,2.754 -0.391,4.217c-0,2.075 1.325,-2.046 1.575,-2.7c2.783,-7.25 1.033,-15.422 0.391,-22.894c-0.887,-10.38 -2.675,-20.75 -4.55,-30.994c-2.166,-11.864 -2.537,-23.443 -2.537,-35.524c-0,-2.239 -1.342,4.268 -1.838,6.449c-2.312,10.172 -3.887,20.159 -4.77,30.57c-0.046,0.561 -0.088,3.792 -0.088,1.428c0,-5.497 -0.15,-10.956 -0.371,-16.445c-0.037,-0.944 0.225,-3.379 -0.241,-1.072c-0.63,3.126 -0.963,6.25 -0.963,9.439c0,8.36 1.092,-16.683 1.775,-25.014c0.446,-5.457 -1.196,3.015 -1.379,4.173c-0.975,6.118 -1.192,12.218 -1.775,18.365c-0.083,0.899 -0.196,3.854 0.396,1.182c1.325,-6.002 2.225,-12.536 2.866,-18.655c0.459,-4.38 -0.237,2.4 -0.308,3.214c-0.5,6.043 -0.787,12.056 -0.787,18.119c-0,4.853 2.683,-6.448 2.758,-1.607c0.021,1.462 -0.696,8.819 1.971,8.971c0.45,0.025 1.137,-0.825 1.487,-0.224c0.688,1.193 0.75,2.687 1.071,3.995c0.121,0.494 0.592,1.838 0.592,0.557c-0,-1.197 0.391,-4.768 0.391,-3.57c0,2.023 -0.021,4.047 0,6.07c0.059,5.304 1.179,-0.474 1.4,-2.5c1.009,-9.144 1.359,-18.226 1.359,-27.424c-0,-5.76 0.725,-12.06 -0.021,-17.784c-0.729,-5.55 -0.988,11.16 -1.117,16.758c-0.079,3.286 -0.087,6.582 0.154,9.863c0.067,0.925 -0.1,2.514 0.196,3.414c0.1,0.309 0.288,-0.585 0.392,-0.893c0.633,-1.821 0.887,-3.83 1.271,-5.712c0.641,-3.179 1.187,-6.383 1.879,-9.551c0.004,-0.001 0.575,-2.47 0.7,-2.677c0.079,-0.124 0.117,0.278 0.112,0.423c-0.071,1.776 -0.796,8.408 -0.854,8.971c-0.675,6.576 -1.408,13.132 -1.508,19.748c-0.021,1.216 -0.367,3.567 -0,4.864c0.129,0.471 0.646,-0.741 0.85,-1.182c2.012,-4.287 3.442,-8.866 5.033,-13.322c1.384,-3.876 2.771,-7.762 4.463,-11.514c0.25,-0.548 1.146,-2.844 0.962,-0.714c-0.925,10.879 -3.716,21.522 -4.2,32.467c-0.087,2.001 -0.358,5.282 0.809,1.473c2.929,-9.555 5.37,-19.285 8.12,-28.897c0.117,-0.413 2.405,-8.217 1.88,-4.641c-1.321,9.025 -2.08,18.104 -2.755,27.201c-0.033,0.447 -0.5,7.254 0.413,3.749c3.354,-12.885 5.696,-26.213 8.162,-39.296c0.675,-3.579 1.313,-7.181 1.75,-10.8c0.15,-1.248 0.1,-0.799 0,0.179c-0.979,9.702 -2.55,19.327 -3.37,29.053c-0.33,3.931 -1.321,15.678 -0.48,11.826c1.117,-5.12 2.696,-10.214 4.155,-15.24c1.095,-3.769 2.191,-7.537 3.262,-11.314c0.279,-0.992 1.046,-3.88 1.179,-2.856c0.3,2.27 -0.537,5.466 -0.787,7.654c-0.9,8.009 -1.967,15.994 -2.6,24.032c-0.242,3.021 -0.484,6.071 -0.484,9.105c0,0.5 0.446,-0.9 0.571,-1.384c4.067,-16.179 8.038,-32.386 12.621,-48.422c0.763,-2.659 1.638,-5.343 2.125,-8.077c0.158,-0.891 -0.283,1.786 -0.437,2.677c-2.142,12.369 -3.63,24.83 -4.992,37.31c-0.309,2.834 -0.654,5.674 -0.809,8.523c-0.008,0.157 -0.025,0.618 0.021,0.469c0.159,-0.48 0.284,-0.969 0.438,-1.45c2.716,-8.454 5.229,-16.954 8.708,-25.126c0.154,-0.362 1.379,-3.39 0.7,-0.848c-1.104,4.153 -2.204,8.289 -3.104,12.496c-0.863,4.01 -1.55,8.024 -2.058,12.094c-0.017,0.137 -0.421,3.439 -0.13,3.035c1.105,-1.537 1.588,-3.893 2.163,-5.645c1.308,-3.961 2.642,-7.908 4.004,-11.849c1.104,-3.187 3.254,-7.159 3.417,-10.622c0.083,-1.837 -0.717,0.568 -0.792,1.205c-0.029,0.281 1.15,-5.98 2.892,-5.98c0.154,-0 -0.104,0.925 -0.113,1.004c-0.058,0.701 -0.021,1.417 -0.021,2.12c0,1.616 1.313,-1.889 1.663,-2.455c1.758,-2.849 3.346,-5.881 5.338,-8.568c0.475,-0.641 0.758,-0.04 1.466,-0.201c1.788,-0.405 1.775,-0.376 1.775,1.629l0,3.815c0,2.315 -0.175,4.639 -1.579,6.427c-1.25,1.594 -2.138,3.768 -3.454,5.11c-1.567,1.597 -2.45,3.166 -2.45,5.534c-0,5.072 -0.284,10.156 -1.163,15.084c-0.466,2.636 -0.708,5.877 -0.808,8.524c-0.125,3.355 -1.575,6.615 -1.575,10.041c0,3.264 -1.604,13.344 -5.908,13.344" style="fill:none;fill-rule:nonzero;stroke:#eec9aa;stroke-width:12.5px;"/><path d="M1129.2,372.665c-0.983,7.395 -3.342,14.739 -5.588,21.82c-1.895,5.976 -2.795,12.563 -5.162,18.348c-3.567,8.717 -7.192,18.667 -17.446,20.896c-4.387,0.954 -9.308,-0.204 -13.775,-0.204c-0.275,0 -2.887,-0.087 -2.479,-0.313c2.308,-1.283 5.404,-1.649 7.933,-2.3c13.867,-3.566 23.23,-18.682 29.217,-30.656c1.537,-3.081 3.004,-6.189 4.463,-9.31c0.366,-0.786 2.433,-4.149 2.433,-4.08c-0,7.591 -1.754,14.717 -3.425,22.113c-1.129,4.992 -2.104,10.546 -5.188,14.808c-0.966,1.342 -2.033,2.805 -3.358,3.834c-0.55,0.429 -0.438,0.591 -0.292,0.133c0.95,-2.954 1.246,-6.4 1.738,-9.442c1.117,-6.942 2.316,-13.875 3.2,-20.852c0.821,-6.49 2.2,-13.115 2.458,-19.655c0.021,-0.56 0.263,-2.425 -0.25,-0.947c-1.533,4.435 -3.729,8.484 -5.929,12.623c-3.238,6.098 -6.542,12.219 -9.15,18.619c-0.35,0.853 -0.704,1.71 -1.038,2.57c-0.362,0.931 0.45,-1.948 0.63,-2.931c1.141,-6.209 5.075,-24.726 3.475,-18.619c-2.092,7.975 -3.471,16.125 -5.275,24.164c-1.179,5.249 2.566,-10.444 3.941,-15.643c1.213,-4.573 2.446,-9.137 3.496,-13.75c0.5,-2.2 0.721,-4.666 1.488,-6.808c3.32,-9.301 -13.725,37.04 -9.963,27.906c0.946,-2.297 1,-5.363 1.442,-7.799c0.179,-0.984 1.333,-3.292 0.383,-2.975c-1.154,0.385 -2.862,8.965 -3.112,9.783c-0.842,2.77 -1.75,5.523 -2.592,8.295c-0.071,0.237 -0.229,0.964 -0.179,0.721c0.25,-1.227 0.383,-2.136 0.587,-3.471c0.975,-6.463 2.317,-13.058 2.909,-19.566c0.696,-7.659 -3.834,14.914 -5.117,22.496c-0.858,5.056 1.579,-10.139 2.137,-15.238c0.242,-2.175 0.63,-4.415 -0.041,-0.789c-0.988,5.309 -1.888,10.636 -2.909,15.937c-0.162,0.841 -0.904,4.257 -0.225,1.42c1.959,-8.198 3.784,-16.44 5.546,-24.683c0.879,-4.124 2.717,-16.639 2.296,-12.442c-0.546,5.466 -2.479,11.022 -3.629,16.387c-0.975,4.574 -2.538,9.356 -2.863,14.043c-0.137,2.017 0,-4.042 0,-6.063c0,-2.289 0.063,-4.588 0,-6.875c-0.004,-0.22 0.117,-0.533 -0.066,-0.654c-0.55,-0.368 -0.425,1.256 -0.609,1.893c-1.5,5.212 -3.079,10.427 -4.104,15.756c-0.391,2.052 -0.754,4.841 -0.496,1.082c0.421,-6.076 0.492,-12.173 0.721,-18.258c0.075,-1.908 0.934,-7.48 0.184,-5.725c-1.546,3.603 -1.929,8.337 -2.705,12.149c-0.75,3.678 -1.312,7.386 -2.029,11.068c-0.475,2.444 -0.196,-0.637 -0.137,-1.352c0.204,-2.497 0.362,-4.977 0.316,-7.484c-0.029,-1.69 -0.779,3.035 -0.833,3.313c-0.458,2.36 -0.637,4.753 -1.104,7.101c-0.029,0.137 0.467,-4.106 0.542,-5.072c0.312,-4.258 0.775,-8.515 0.966,-12.78c0.125,-2.704 -0.295,0.333 -0.47,1.217c-1.213,6.105 -2.23,12.207 -2.934,18.393c-0.062,0.574 -0.454,5.212 -0.312,4.825c0.745,-2.075 0.9,-4.948 0.9,-0.88c-0,0.717 -0.05,8.996 1.441,8.046c1.4,-0.891 3.479,-6.896 4.646,-6.896c0.367,0 -0.771,6.584 0.854,2.705c1.3,-3.105 2.571,-6.183 4.125,-9.175c1.275,-2.453 1.104,-1.067 1.104,0.789c0,1.962 -0.179,4.111 0.409,6.019c0.275,0.904 3.191,-2.883 3.287,-3c1.059,-1.215 2.804,-4.236 4.738,-4.236c0.633,-0 1.258,0.601 1.079,1.262c-0.483,1.778 -1.346,2.349 -2.413,3.653c-3.108,3.8 -9.912,-0.467 -13.591,-1.94c-2.792,-1.117 -4.204,-3.417 -6.084,-5.567c-0.129,-0.147 -1.291,-0.968 -1.129,-1.15c0.938,-1.053 2.546,-1.862 3.609,-2.817c8.52,-7.669 15.137,-18.828 20.058,-29.056c3.025,-6.277 4.292,-12.795 4.962,-19.656c0.096,-1 1.067,-16.274 0.675,-16.274c-1.008,-0 -2.62,2.181 -3.154,2.727c-3.354,3.414 -6.971,6.556 -10.641,9.625c-4.28,3.578 -7.634,7.634 -11.542,11.541" style="fill:none;fill-rule:nonzero;stroke:#eec9aa;stroke-width:12.5px;"/><path d="M1080.51,334.528c-2.234,-0.373 -4.842,-2.091 -6.988,-2.84c-7.075,-2.471 -14.283,-3.682 -21.75,-4.216c-4.442,-0.317 -13.171,0.203 -13.842,6.244c-0.733,6.6 11.438,6.927 15.488,7.304c9.658,0.9 19.337,1.119 29.008,0.203c2.509,-0.238 3.142,-0.392 0.834,-1.42c-3.18,-1.418 -6.375,-2.838 -9.601,-4.148c-9.479,-3.847 -19.266,-7.014 -29.483,-8.025c-1.083,-0.107 -8.25,-1.272 -8.25,1.218c0,3.522 9.225,3.325 11.088,3.471c4.466,0.348 8.983,0.476 13.458,0.564c0.921,0.017 6.183,0.741 6.921,-0.181c0.096,-0.12 -2.388,-0.509 -2.479,-0.518c-2.413,-0.241 -4.859,-0.407 -7.284,-0.474c-0.887,-0.024 -8.87,-0.134 -4.662,1.285c8.712,2.939 18.058,3.907 27.071,5.545c1.35,0.246 5.408,0.791 4.033,0.857c-0.883,0.042 -1.504,0.125 -2.346,0.405" style="fill:none;fill-rule:nonzero;stroke:#eec9aa;stroke-width:12.5px;"/><path d="M1091.05,630.029c16.163,31.796 29.409,56.175 57.496,75.784c22.258,15.633 49.287,24.112 76.842,25.17c83.995,3.709 147.062,-73.395 135.4,-156.862c-10.067,-71.279 -91.15,-130.104 -164.017,-131.163c-7.417,0 -25.7,-3.708 -30.471,-7.154c-2.917,-2.121 -13.25,-20.932 -18.812,-39.215c-6.096,-19.344 -9.542,-23.583 -8.48,-28.882c1.325,-6.889 6.096,-7.949 7.684,-21.463c1.325,-9.274 -10.334,-7.949 -15.634,1.854c-3.445,6.625 -12.716,6.625 -16.691,0.266c-1.063,-1.59 -1.592,-3.445 -2.121,-5.3c-4.771,3.18 -9.804,3.18 -14.838,1.59c-10.333,-3.179 -7.95,-13.513 -6.095,-23.317c-9.275,5.299 -17.488,4.769 -24.642,-3.445c-5.3,15.103 -19.342,14.838 -25.704,5.565c-1.059,2.119 -1.854,4.238 -3.179,6.093c-5.83,8.745 -14.571,9.804 -22.521,2.65c-4.504,11.659 2.121,27.558 0.796,28.088c-0.534,0.265 -2.121,-2.385 -2.388,-3.71c-0.792,-2.915 -10.067,-0 -16.958,-9.009c-4.767,-6.095 -2.65,-11.129 2.387,-16.694c2.384,-2.65 -9.008,-5.829 -9.275,-24.907c-0.266,-12.453 9.538,-19.608 21.463,-22.523c2.65,-0.53 2.65,-0.795 2.383,-3.444c-1.854,-16.428 15.633,-27.292 32.592,-19.078c0.796,0.265 1.591,1.59 2.121,1.06c0.529,-0.265 0.529,-1.325 1.058,-2.12c8.479,-16.693 30.208,-19.078 37.629,-3.974c2.913,6.094 2.65,6.094 3.442,5.299c4.241,-6.094 12.983,-4.24 18.812,-1.06c6.363,3.71 4.242,9.009 6.096,8.744c5.567,-1.06 10.863,0.795 15.633,3.18c7.421,3.974 3.18,15.103 3.976,16.163c0.529,0.795 8.212,-3.445 15.633,4.505c2.65,2.914 1.591,7.154 0.529,10.864c-0.796,2.384 3.446,-1.326 10.333,7.684c7.421,9.539 6.625,20.402 -1.058,28.352c-2.65,2.649 -5.033,5.829 -8.746,7.419c-0.792,0.265 -1.058,1.06 -1.325,2.119c-3.179,15.899 -10.333,15.104 -6.358,25.173c8.216,21.198 12.187,35.507 23.316,55.115c5.038,9.008 28.088,10.333 38.421,10.067c62.004,-0.263 136.463,54.054 155.542,113.145c16.692,52.2 -1.325,122.15 -52.729,157.659c-70.221,48.487 -179.121,26.762 -217.013,-74.192c-1.854,-2.121 -1.854,-2.121 -0.529,-6.096Zm-94.862,-322.736c1.854,16.693 15.366,15.898 12.454,13.249c-5.3,-4.505 -7.421,-12.719 -5.034,-19.078c0.53,-1.325 1.059,-2.385 1.588,-3.71c2.121,-5.3 -8.479,-4.504 -9.008,9.539Zm22.787,-29.412c-0.796,7.419 6.358,11.924 5.033,9.009c-2.116,-4.769 -1.058,-11.393 1.063,-16.428c1.587,-3.974 -6.096,-3.445 -6.096,7.419Z" style="fill:#59322a;fill-rule:nonzero;"/><path d="M1028.25,528.279c0.529,5.567 -6.887,6.359 2.65,30.471c1.325,3.446 2.913,3.446 -29.412,-9.008c-19.609,-7.421 2.65,-15.367 -7.95,-27.559c-11.392,-13.245 -33.121,-17.487 -32.325,-19.87c9.537,-25.438 15.633,-21.463 32.325,-15.9c1.591,0.533 26.762,11.925 28.616,12.983c9.804,5.567 3.713,-0.263 6.096,28.883Z" style="fill:#78c9f4;fill-rule:nonzero;"/><path d="M909.546,495.421c18.021,0.267 49.55,15.633 59.883,20.671c16.429,7.946 20.142,11.391 18.283,20.4c-1.587,8.479 -5.3,10.333 -0.791,13.779c6.358,4.504 95.125,37.096 95.125,37.362c11.129,4.238 10.862,16.692 6.092,27.821c-20.934,50.079 -29.676,73.929 -53.788,112.879c-1.325,2.121 -1.325,1.855 -3.446,1.325c-26.762,-6.625 -32.858,-11.395 -55.112,-23.054c-4.505,-2.383 -14.046,-27.292 -16.959,-57.5c-0.796,-6.887 -7.687,-9.804 -12.721,-3.442c-3.975,5.034 -3.708,-2.387 -9.275,-6.362c-2.116,-1.588 -3.441,-0.529 -5.033,1.063c-3.708,3.179 -4.504,-3.18 -6.887,-6.359c-1.855,-2.121 -4.505,-2.387 -6.363,0c-1.325,1.588 -1.854,1.325 -2.646,-0.266c-2.65,-5.563 -9.541,-4.771 -11.129,-0.267c-2.121,6.625 -0.533,23.054 0,29.942c0.792,8.745 3.179,10.337 -0.796,10.07c-5.3,-0.529 -21.729,-10.071 -26.5,-13.25c-8.741,-5.829 -14.308,-9.008 -14.571,-17.75c-0.266,-15.104 17.755,-87.441 30.209,-122.683c6.358,-18.283 6.621,-24.642 16.425,-24.379Zm95.125,91.946c-0,4.504 2.916,4.77 24.379,13.779c33.917,14.042 35.242,15.104 38.154,11.925c7.688,-8.746 12.721,-11.659 -2.65,-15.9c-38.421,-11.129 -58.558,-26.233 -59.883,-9.804Zm-0.529,12.72c-2.384,-0.266 -4.504,4.238 -0.263,6.092c0,0 36.034,15.634 52.992,19.875c2.65,0.796 2.65,0.796 4.242,-1.325c1.325,-1.854 1.058,-3.179 -0.796,-4.241c-7.155,-3.18 -47.696,-19.342 -56.175,-20.401Z" style="fill:#78c9f4;fill-rule:nonzero;"/><path d="M1083.9,636.125c11.392,38.683 19.342,21.725 1.587,47.692c-10.6,15.371 -27.291,44.516 -45.308,46.108c-6.096,0.792 4.767,2.383 43.721,-93.8Z" style="fill:#78c9f4;fill-rule:nonzero;"/><path d="M1069.86,510.263c-2.12,-0.001 -19.608,-36.305 -21.995,-41.601c-0.792,-1.591 -0.53,0.263 -7.946,3.18c-1.859,0.796 0.262,0.262 7.683,20.929c2.65,7.154 -6.358,-8.213 -10.6,-18.813c-0.263,-0.791 -0.796,-0.529 -1.325,-0.529c-44.779,15.633 -84.258,-32.325 -60.413,-72.601c19.609,-32.856 64.121,-35.506 85.321,-7.949c15.105,19.873 14.309,41.071 3.179,58.825c-7.949,12.717 -15.104,13.513 -13.779,15.896c5.83,10.333 16.163,31.533 19.875,42.662Zm-30.475,-41.6c19.875,-9.012 32.329,-30.737 28.621,-52.996c-3.446,-20.668 -23.054,-39.745 -47.696,-38.686c-24.379,1.06 -44.516,18.283 -48.491,42.132c-6.096,36.301 31.004,66.242 67.566,49.55Z" style="fill:#191919;fill-rule:nonzero;"/><path d="M1122.05,436.071c-10.862,10.071 -15.896,8.217 -14.308,10.6c3.708,6.887 3.975,18.812 3.179,27.025c-1.058,12.192 6.625,24.908 23.846,27.825c25.971,4.504 48.491,-27.558 49.021,-54.321c-0,-0.262 -0.263,-0.796 0.266,-0.796c0.529,0 0.529,0.267 0.529,0.796c6.888,21.729 -20.404,65.45 -52.995,57.762c-15.896,-3.708 -23.846,-15.1 -24.375,-26.229c-0.267,-6.625 2.912,-17.487 -1.325,-31.004c-0.796,-2.65 -5.034,2.65 -19.609,1.854c-12.454,-0.529 -19.87,-6.62 -7.95,-3.97c15.105,3.179 33.388,-2.388 44.517,-15.371c5.829,-6.888 10.862,-20.667 12.188,-24.907c1.591,-5.83 2.649,16.165 -12.984,30.736Z" style="fill:#191919;fill-rule:nonzero;"/><path d="M1111.19,567.229c-4.771,14.575 -11.659,19.346 -16.429,24.646c-0.53,0.529 -0.53,0.263 -1.059,-0.267c-1.062,-1.325 -0.796,-2.12 0.263,-3.179c18.021,-16.958 12.187,-26.496 19.341,-22.258c60.946,35.242 164.813,43.192 164.813,43.721c-0.263,6.625 -125.067,-12.188 -166.929,-42.663Z" style="fill:#191919;fill-rule:nonzero;"/><path d="M910.871,635.063c7.421,-0.796 -12.717,69.954 50.346,71.808c2.65,-0 4.771,-1.058 5.033,-0.529c1.592,4.237 -29.408,8.741 -46.9,-14.575c-14.571,-19.079 -10.862,-56.704 -8.479,-56.704Z" style="fill:#191919;fill-rule:nonzero;"/><path d="M1231.75,520.329c1.858,3.179 9.542,54.054 -0.529,76.842c-0.263,0.529 -0.529,1.591 -1.325,1.325c-2.117,-0.529 0.796,-4.771 2.387,-25.171c1.059,-18.283 -1.062,-44.517 -0.533,-52.996Z" style="fill:#191919;fill-rule:nonzero;"/><path d="M1078.86,508.938c1.324,-0.796 5.3,2.65 6.362,3.708c12.983,14.046 22.254,26.762 18.813,45.312c-1.592,8.213 -4.505,6.888 -4.242,5.034c0.796,-8.479 3.179,-18.017 -4.504,-30.471c-10.596,-16.429 -15.896,-22.258 -16.43,-23.583Z" style="fill:#191919;fill-rule:nonzero;"/><path d="M933.129,688.85c0,6.096 -11.129,-3.708 -12.716,-30.471c-1.063,-17.754 1.587,-20.933 2.383,-17.754c1.854,10.337 0.796,13.779 5.033,32.329c1.592,6.888 4.242,12.454 5.3,15.896Z" style="fill:#191919;fill-rule:nonzero;"/><path d="M937.9,647.517c1.058,28.087 4.767,31.795 7.154,42.658c0.263,1.063 -1.854,3.712 -4.241,-1.588c-10.067,-20.666 -6.092,-46.9 -3.18,-45.841c0.529,0.266 0.529,0.796 0.529,1.062c-0.529,1.325 -0.262,2.65 -0.262,3.709Z" style="fill:#191919;fill-rule:nonzero;"/><path d="M953,646.987c1.063,0 -0.262,20.671 6.096,41.338c0.796,2.913 2.917,8.213 1.062,9.008c-2.387,0.796 -5.037,-8.212 -5.833,-10.6c-5.829,-17.75 -3.179,-40.008 -1.325,-39.745Z" style="fill:#191919;fill-rule:nonzero;"/><path d="M1037.79,506.55c-3.442,28.617 1.858,36.304 13.516,52.467c0.53,0.795 0,1.587 -1.062,1.058c-3.442,-1.854 -13.775,-14.042 -15.896,-28.087c-1.854,-12.984 1.587,-24.642 3.442,-25.438Z" style="fill:#191919;fill-rule:nonzero;"/><path d="M1104.3,467.071c-3.971,4.241 -17.487,8.746 -25.967,12.454c-16.162,7.421 -15.895,7.683 -16.425,7.154c-1.062,-2.121 51.667,-29.412 42.392,-19.608Z" style="fill:#191919;fill-rule:nonzero;"/><path d="M1043.89,505.754c0.529,37.363 19.87,36.3 18.283,39.746c-1.858,3.975 -26.762,-14.837 -19.608,-37.362c0.262,-1.059 0.529,-1.855 1.325,-2.384Z" style="fill:#191919;fill-rule:nonzero;"/><path d="M1048.66,504.167c9.271,31.266 27.025,25.966 25.967,29.941c-0.267,1.325 -1.592,0.796 -2.65,0.529c-9.804,-2.916 -17.754,-7.95 -21.729,-18.016c-1.059,-3.179 -3.442,-9.542 -1.588,-12.454Z" style="fill:#191919;fill-rule:nonzero;"/><path d="M1084.16,414.343c0.529,-6.889 19.345,-21.992 20.666,-19.873c0.534,0.795 -7.683,9.01 -9.8,11.13c-5.3,5.299 -7.154,8.744 -8.479,10.333c-0.796,1.059 -2.387,0.796 -2.387,-1.59Z" style="fill:#191919;fill-rule:nonzero;"/><path d="M1043.62,567.496c-4.504,-1.854 -4.771,-1.854 -5.3,-2.65c-2.383,-5.829 -7.683,-21.729 -6.892,-27.558c0.267,-1.325 1.859,-1.588 2.121,-0.263c3.713,17.488 5.567,21.196 10.071,30.471Z" style="fill:#191919;fill-rule:nonzero;"/><path d="M1063.76,353.132c-2.116,-0 -2.383,-1.855 -1.058,-3.179c4.771,-4.24 6.358,-5.831 10.6,-12.455c11.925,-18.813 0.529,15.104 -9.542,15.634Z" style="fill:#191919;fill-rule:nonzero;"/><path d="M1019.77,366.913c-1.854,-5.3 2.917,-13.779 8.479,-15.898c4.242,-1.59 11.129,-0 10.867,2.119c-0.267,1.325 -2.121,1.325 -3.179,1.06c-9.013,-1.855 -14.575,7.419 -15.371,11.923c-0.267,0.265 -0.263,0.531 -0.796,0.796Z" style="fill:#191919;fill-rule:nonzero;"/><path d="M1083.37,372.21c-0,1.855 -0,3.445 -1.592,3.975c-1.591,0.795 -2.916,0 -4.242,-1.06c-5.562,-4.505 -2.116,-12.719 2.121,-9.274c2.121,2.12 3.713,3.974 3.713,6.359Z" style="fill:#191919;fill-rule:nonzero;"/><path d="M1054.22,377.245c-0,0.53 -0,1.325 -0.796,1.59c-0.792,0.265 -1.058,-0.529 -1.587,-1.059c-10.334,-21.993 0.529,-11.659 2.383,-0.531Z" style="fill:#191919;fill-rule:nonzero;"/><path d="M972.342,436.867c-10.863,-42.133 42.396,-78.699 77.904,-50.347c45.046,35.772 0.262,104.663 -51.933,82.405c-0.534,-0.263 -0.796,-0.263 -1.063,-0.792c0.529,-2.387 1.592,-4.771 1.592,-7.154c-0,-0.533 0.262,-0.796 0.529,-1.062c8.479,3.975 6.887,2.65 13.779,4.504c-0.796,1.591 -1.325,2.387 0.262,2.65c38.688,4.504 65.184,-39.217 38.955,-69.157c-20.404,-23.318 -59.621,-17.223 -72.075,15.634c-0.529,1.324 0.529,1.324 2.121,1.324c-1.059,7.153 -2.384,10.07 -0.267,22.257c-0.792,-1.058 -1.854,-1.325 -2.913,-0.796c-2.383,1.063 -4.504,0.534 -6.891,0.534Z" style="fill:#78c9f4;fill-rule:nonzero;"/><path d="M1013.15,464.95c32.063,3.975 53.792,-26.496 45.046,-51.669c-12.717,-37.096 -63.858,-34.446 -76.046,2.12c-1.592,-0.265 -2.65,0 -2.121,-1.325c12.454,-32.856 51.671,-38.951 72.071,-15.634c26.233,29.941 -0.262,73.929 -38.95,69.158c-1.325,-0.529 -0.792,-1.325 0,-2.65Z" style="fill:#191919;fill-rule:nonzero;"/><path d="M999.371,460.183c-0.792,1.059 -0.529,2.384 -2.117,1.588c-10.866,-6.888 -14.841,-14.838 -18.283,-24.909c5.562,-3.441 -0.796,8.48 20.4,23.321Z" style="fill:#191919;fill-rule:nonzero;"/><path d="M1023.22,400.563c-0,-6.359 7.417,-3.974 9.275,3.445c1.321,6.095 -8.217,4.77 -9.275,-3.445Z" style="fill:#191919;fill-rule:nonzero;"/></g></g></g></g></svg>