<?xml version="1.0" encoding="utf-8"?>
<!-- Generator: Adobe Illustrator 26.0.2, SVG Export Plug-In . SVG Version: 6.00 Build 0)  -->
<svg version="1.1" id="Layer_1" xmlns="http://www.w3.org/2000/svg" xmlns:xlink="http://www.w3.org/1999/xlink" x="0px" y="0px"
	 viewBox="0 0 333 361" style="enable-background:new 0 0 333 361;" xml:space="preserve">
<style type="text/css">
	
		.st0{clip-path:url(#SVGID_00000075872533823338358780000017688189713171444661_);fill-rule:evenodd;clip-rule:evenodd;fill:url(#SVGID_00000011742735427448874470000008694646607415856517_);}
	
		.st1{clip-path:url(#SVGID_00000075872533823338358780000017688189713171444661_);fill-rule:evenodd;clip-rule:evenodd;fill:url(#SVGID_00000044858218283340809660000004514597256898432677_);}
	
		.st2{clip-path:url(#SVGID_00000075872533823338358780000017688189713171444661_);fill-rule:evenodd;clip-rule:evenodd;fill:url(#SVGID_00000098929694302207650330000000474643604397434524_);}
	
		.st3{clip-path:url(#SVGID_00000075872533823338358780000017688189713171444661_);fill-rule:evenodd;clip-rule:evenodd;fill:url(#SVGID_00000062901450121560809880000007923776088952886662_);}
	
		.st4{clip-path:url(#SVGID_00000075872533823338358780000017688189713171444661_);fill-rule:evenodd;clip-rule:evenodd;fill:url(#SVGID_00000090273224885036849070000011241466427095235757_);}
	
		.st5{clip-path:url(#SVGID_00000075872533823338358780000017688189713171444661_);fill-rule:evenodd;clip-rule:evenodd;fill:url(#SVGID_00000131361702486625884320000017858255441404873919_);}
	
		.st6{clip-path:url(#SVGID_00000075872533823338358780000017688189713171444661_);fill-rule:evenodd;clip-rule:evenodd;fill:url(#SVGID_00000165212254384026831360000010327919295378184332_);}
	
		.st7{clip-path:url(#SVGID_00000075872533823338358780000017688189713171444661_);fill-rule:evenodd;clip-rule:evenodd;fill:url(#SVGID_00000105421759510590539300000016629837228387034798_);}
	
		.st8{clip-path:url(#SVGID_00000075872533823338358780000017688189713171444661_);fill-rule:evenodd;clip-rule:evenodd;fill:url(#SVGID_00000060022377329528738680000011543435916659997834_);}
	
		.st9{clip-path:url(#SVGID_00000075872533823338358780000017688189713171444661_);fill-rule:evenodd;clip-rule:evenodd;fill:url(#SVGID_00000070089701702504884370000003905774491460376202_);}
	
		.st10{clip-path:url(#SVGID_00000075872533823338358780000017688189713171444661_);fill-rule:evenodd;clip-rule:evenodd;fill:url(#SVGID_00000176742989301948602780000017688945652348212643_);}
	
		.st11{clip-path:url(#SVGID_00000075872533823338358780000017688189713171444661_);fill-rule:evenodd;clip-rule:evenodd;fill:url(#SVGID_00000078039876926849494230000010141079045119663017_);}
	
		.st12{clip-path:url(#SVGID_00000075872533823338358780000017688189713171444661_);fill-rule:evenodd;clip-rule:evenodd;fill:url(#SVGID_00000134209041751130879010000000568399558515946656_);}
	
		.st13{clip-path:url(#SVGID_00000075872533823338358780000017688189713171444661_);fill-rule:evenodd;clip-rule:evenodd;fill:url(#SVGID_00000057123216304309185910000009859979047090920615_);}
	
		.st14{clip-path:url(#SVGID_00000075872533823338358780000017688189713171444661_);fill-rule:evenodd;clip-rule:evenodd;fill:url(#SVGID_00000118376675720152133020000005109842771611903877_);}
	
		.st15{clip-path:url(#SVGID_00000075872533823338358780000017688189713171444661_);fill-rule:evenodd;clip-rule:evenodd;fill:url(#SVGID_00000140722470803503717900000010811648387715380404_);}
	
		.st16{clip-path:url(#SVGID_00000075872533823338358780000017688189713171444661_);fill-rule:evenodd;clip-rule:evenodd;fill:url(#SVGID_00000065069185824830152360000014795335168531276442_);}
</style>
<g>
	<defs>
		<path id="SVGID_1_" d="M0,0v360.1h79.2v-116l45.4-45.9L233,360.1h99.4L178,142.2L318.8,0h-98.9L79.2,149.3V0H0z"/>
	</defs>
	<clipPath id="SVGID_00000099651172936631433400000007567676635823729807_">
		<use xlink:href="#SVGID_1_"  style="overflow:visible;"/>
	</clipPath>
	
		<linearGradient id="SVGID_00000155134569754861763300000016691649899923069571_" gradientUnits="userSpaceOnUse" x1="-8.5992" y1="9.0277" x2="300.7731" y2="365.3429" gradientTransform="matrix(1 0 0 -1 0 362)">
		<stop  offset="0" style="stop-color:#6C1DEC"/>
		<stop  offset="0.4462" style="stop-color:#62DAFC"/>
		<stop  offset="0.8108" style="stop-color:#0EE094"/>
		<stop  offset="1" style="stop-color:#0EE094"/>
	</linearGradient>
	
		<path style="clip-path:url(#SVGID_00000099651172936631433400000007567676635823729807_);fill-rule:evenodd;clip-rule:evenodd;fill:url(#SVGID_00000155134569754861763300000016691649899923069571_);" d="
		M-31.8,352.9C-82.6,235.1-163.5,213.4-194.8,216l-1.5-17.5c39.8-3.3,127.1,23.6,180.5,147.4c51,118.3,137.9,165.4,173.2,174.1
		l-4.2,17C112.6,527,21.4,476.2-31.8,352.9z"/>
	
		<linearGradient id="SVGID_00000078736782545460062870000005006896714484736417_" gradientUnits="userSpaceOnUse" x1="-6.9562" y1="7.6011" x2="302.4162" y2="363.9163" gradientTransform="matrix(1 0 0 -1 0 362)">
		<stop  offset="0" style="stop-color:#6C1DEC"/>
		<stop  offset="0.4462" style="stop-color:#62DAFC"/>
		<stop  offset="0.8108" style="stop-color:#0EE094"/>
		<stop  offset="1" style="stop-color:#0EE094"/>
	</linearGradient>
	
		<path style="clip-path:url(#SVGID_00000099651172936631433400000007567676635823729807_);fill-rule:evenodd;clip-rule:evenodd;fill:url(#SVGID_00000078736782545460062870000005006896714484736417_);" d="
		M-10.3,331.8c-51-118.1-132.1-140-163.8-137.4l-1.3-15.7c39.4-3.3,126.3,23.4,179.6,146.8c51.1,118.5,138.2,165.8,173.8,174.6
		l-3.8,15.3C133.8,505.5,42.8,454.8-10.3,331.8z"/>
	
		<linearGradient id="SVGID_00000013905210404039564720000009461327217810846088_" gradientUnits="userSpaceOnUse" x1="-5.3995" y1="6.2495" x2="303.9728" y2="362.5647" gradientTransform="matrix(1 0 0 -1 0 362)">
		<stop  offset="0" style="stop-color:#6C1DEC"/>
		<stop  offset="0.4462" style="stop-color:#62DAFC"/>
		<stop  offset="0.8108" style="stop-color:#0EE094"/>
		<stop  offset="1" style="stop-color:#0EE094"/>
	</linearGradient>
	
		<path style="clip-path:url(#SVGID_00000099651172936631433400000007567676635823729807_);fill-rule:evenodd;clip-rule:evenodd;fill:url(#SVGID_00000013905210404039564720000009461327217810846088_);" d="
		M10.4,311.1c-51-118.1-132.1-140-163.8-137.4l-1.3-15.7c39.4-3.3,126.3,23.4,179.6,146.8C76,423.4,163.1,470.7,198.7,479.4
		l-3.8,15.3C154.5,484.8,63.5,434.1,10.4,311.1z"/>
	
		<linearGradient id="SVGID_00000000205495256023859200000005948192117174611381_" gradientUnits="userSpaceOnUse" x1="-3.7565" y1="4.8229" x2="305.6158" y2="361.1381" gradientTransform="matrix(1 0 0 -1 0 362)">
		<stop  offset="0" style="stop-color:#6C1DEC"/>
		<stop  offset="0.4462" style="stop-color:#62DAFC"/>
		<stop  offset="0.8108" style="stop-color:#0EE094"/>
		<stop  offset="1" style="stop-color:#0EE094"/>
	</linearGradient>
	
		<path style="clip-path:url(#SVGID_00000099651172936631433400000007567676635823729807_);fill-rule:evenodd;clip-rule:evenodd;fill:url(#SVGID_00000000205495256023859200000005948192117174611381_);" d="
		M32,290c-51.1-118.4-132.6-140.6-164.7-137.9l-1.2-14C-95,134.9-8.3,161.3,44.8,284.5c51.2,118.8,138.5,166.2,174.4,175.1
		l-3.4,13.6C175.7,463.3,84.9,412.8,32,290z"/>
	
		<linearGradient id="SVGID_00000076590387524140654940000007407021240337435829_" gradientUnits="userSpaceOnUse" x1="-2.2001" y1="3.4716" x2="307.1722" y2="359.7868" gradientTransform="matrix(1 0 0 -1 0 362)">
		<stop  offset="0" style="stop-color:#6C1DEC"/>
		<stop  offset="0.4462" style="stop-color:#62DAFC"/>
		<stop  offset="0.8108" style="stop-color:#0EE094"/>
		<stop  offset="1" style="stop-color:#0EE094"/>
	</linearGradient>
	
		<path style="clip-path:url(#SVGID_00000099651172936631433400000007567676635823729807_);fill-rule:evenodd;clip-rule:evenodd;fill:url(#SVGID_00000076590387524140654940000007407021240337435829_);" d="
		M52.7,269.3C1.6,150.9-79.9,128.7-112,131.4l-1.2-14c38.9-3.2,125.6,23.2,178.7,146.3C116.8,382.6,204.1,430,239.9,438.8l-3.4,13.6
		C196.4,442.5,105.7,392.1,52.7,269.3z"/>
	
		<linearGradient id="SVGID_00000115500541749281693920000008893551538926527668_" gradientUnits="userSpaceOnUse" x1="-0.5574" y1="2.0453" x2="308.8149" y2="358.3605" gradientTransform="matrix(1 0 0 -1 0 362)">
		<stop  offset="0" style="stop-color:#6C1DEC"/>
		<stop  offset="0.4462" style="stop-color:#62DAFC"/>
		<stop  offset="0.8108" style="stop-color:#0EE094"/>
		<stop  offset="1" style="stop-color:#0EE094"/>
	</linearGradient>
	
		<path style="clip-path:url(#SVGID_00000099651172936631433400000007567676635823729807_);fill-rule:evenodd;clip-rule:evenodd;fill:url(#SVGID_00000115500541749281693920000008893551538926527668_);" d="
		M74.2,248.2C23,129.5-58.8,107.1-91.4,109.8l-1-12.2c38.5-3.2,124.8,22.9,177.8,145.8c51.4,119,138.8,166.7,174.9,175.6l-2.9,11.9
		C217.6,421,127.1,370.8,74.2,248.2z"/>
	
		<linearGradient id="SVGID_00000014613151507150537050000011462922122692109720_" gradientUnits="userSpaceOnUse" x1="0.9989" y1="0.694" x2="310.3712" y2="357.0092" gradientTransform="matrix(1 0 0 -1 0 362)">
		<stop  offset="0" style="stop-color:#6C1DEC"/>
		<stop  offset="0.4462" style="stop-color:#62DAFC"/>
		<stop  offset="0.8108" style="stop-color:#0EE094"/>
		<stop  offset="1" style="stop-color:#0EE094"/>
	</linearGradient>
	
		<path style="clip-path:url(#SVGID_00000099651172936631433400000007567676635823729807_);fill-rule:evenodd;clip-rule:evenodd;fill:url(#SVGID_00000014613151507150537050000011462922122692109720_);" d="
		M94.9,227.5C43.7,108.8-38.1,86.4-70.6,89.1l-1-12.2c38.5-3.2,124.8,22.9,177.8,145.8c51.4,119,138.8,166.7,174.9,175.6l-2.9,11.9
		C238.3,400.3,147.8,350,94.9,227.5z"/>
	
		<linearGradient id="SVGID_00000110445730712965562570000002468081444945295752_" gradientUnits="userSpaceOnUse" x1="2.6423" y1="-0.7328" x2="312.0146" y2="355.5824" gradientTransform="matrix(1 0 0 -1 0 362)">
		<stop  offset="0" style="stop-color:#6C1DEC"/>
		<stop  offset="0.4462" style="stop-color:#62DAFC"/>
		<stop  offset="0.8108" style="stop-color:#0EE094"/>
		<stop  offset="1" style="stop-color:#0EE094"/>
	</linearGradient>
	
		<path style="clip-path:url(#SVGID_00000099651172936631433400000007567676635823729807_);fill-rule:evenodd;clip-rule:evenodd;fill:url(#SVGID_00000110445730712965562570000002468081444945295752_);" d="
		M116.5,206.4C65.1,87.4-17,64.7-50,67.5L-50.9,57c38.1-3.2,124.1,22.7,177,145.3c51.5,119.3,139.2,167.1,175.5,176.1l-2.5,10.2
		C259.5,378.8,169.2,328.7,116.5,206.4z"/>
	
		<linearGradient id="SVGID_00000081633586921565445600000013010802940185519244_" gradientUnits="userSpaceOnUse" x1="4.1989" y1="-2.0844" x2="313.5712" y2="354.2308" gradientTransform="matrix(1 0 0 -1 0 362)">
		<stop  offset="0" style="stop-color:#6C1DEC"/>
		<stop  offset="0.4462" style="stop-color:#62DAFC"/>
		<stop  offset="0.8108" style="stop-color:#0EE094"/>
		<stop  offset="1" style="stop-color:#0EE094"/>
	</linearGradient>
	
		<path style="clip-path:url(#SVGID_00000099651172936631433400000007567676635823729807_);fill-rule:evenodd;clip-rule:evenodd;fill:url(#SVGID_00000081633586921565445600000013010802940185519244_);" d="
		M137.2,185.7C85.8,66.7,3.7,44-29.3,46.8l-0.9-10.5C7.9,33.1,94,59,146.8,181.6C198.3,300.9,286,348.7,322.4,357.6l-2.5,10.2
		C280.3,358.1,189.9,308,137.2,185.7z"/>
	
		<linearGradient id="SVGID_00000095298314452770355210000010324453325840289684_" gradientUnits="userSpaceOnUse" x1="5.8417" y1="-3.5107" x2="315.214" y2="352.8044" gradientTransform="matrix(1 0 0 -1 0 362)">
		<stop  offset="0" style="stop-color:#6C1DEC"/>
		<stop  offset="0.4462" style="stop-color:#62DAFC"/>
		<stop  offset="0.8108" style="stop-color:#0EE094"/>
		<stop  offset="1" style="stop-color:#0EE094"/>
	</linearGradient>
	
		<path style="clip-path:url(#SVGID_00000099651172936631433400000007567676635823729807_);fill-rule:evenodd;clip-rule:evenodd;fill:url(#SVGID_00000095298314452770355210000010324453325840289684_);" d="
		M158.7,164.6C107.2,45.3,24.8,22.4-8.6,25.2l-0.7-8.7C28.3,13.3,114,38.9,166.8,161.2c51.6,119.5,139.5,167.5,176.1,176.6l-2.1,8.5
		C301.5,336.6,211.4,286.7,158.7,164.6z"/>
	
		<linearGradient id="SVGID_00000052070263172787649420000002624280977968265887_" gradientUnits="userSpaceOnUse" x1="9.0408" y1="-6.2884" x2="318.4131" y2="350.0268" gradientTransform="matrix(1 0 0 -1 0 362)">
		<stop  offset="0" style="stop-color:#6C1DEC"/>
		<stop  offset="0.4462" style="stop-color:#62DAFC"/>
		<stop  offset="0.8108" style="stop-color:#0EE094"/>
		<stop  offset="1" style="stop-color:#0EE094"/>
	</linearGradient>
	
		<path style="clip-path:url(#SVGID_00000099651172936631433400000007567676635823729807_);fill-rule:evenodd;clip-rule:evenodd;fill:url(#SVGID_00000052070263172787649420000002624280977968265887_);" d="
		M201,122.9C149.4,3.3,66.6-20,32.8-17.1l-0.6-7c37.2-3.1,122.6,22.2,175.2,144.2c51.7,119.8,139.8,168,176.7,177.1l-1.7,6.8
		C343.4,294.3,253.5,244.6,201,122.9z"/>
	
		<linearGradient id="SVGID_00000142172784906568305000000000852186007578871468_" gradientUnits="userSpaceOnUse" x1="12.2405" y1="-9.0666" x2="321.6129" y2="347.2486" gradientTransform="matrix(1 0 0 -1 0 362)">
		<stop  offset="0" style="stop-color:#6C1DEC"/>
		<stop  offset="0.4462" style="stop-color:#62DAFC"/>
		<stop  offset="0.8108" style="stop-color:#0EE094"/>
		<stop  offset="1" style="stop-color:#0EE094"/>
	</linearGradient>
	
		<path style="clip-path:url(#SVGID_00000099651172936631433400000007567676635823729807_);fill-rule:evenodd;clip-rule:evenodd;fill:url(#SVGID_00000142172784906568305000000000852186007578871468_);" d="
		M243.2,81.1C191.5-38.8,108.4-62.3,74.1-59.5l-0.4-5.2C110.5-67.8,195.6-42.7,248,79c51.8,120,140.1,168.4,177.3,177.6l-1.3,5.1
		C385.3,252.1,295.6,202.6,243.2,81.1z"/>
	
		<linearGradient id="SVGID_00000142875871580683979190000005341643694671263391_" gradientUnits="userSpaceOnUse" x1="15.4398" y1="-11.8444" x2="324.8121" y2="344.4708" gradientTransform="matrix(1 0 0 -1 0 362)">
		<stop  offset="0" style="stop-color:#6C1DEC"/>
		<stop  offset="0.4462" style="stop-color:#62DAFC"/>
		<stop  offset="0.8108" style="stop-color:#0EE094"/>
		<stop  offset="1" style="stop-color:#0EE094"/>
	</linearGradient>
	
		<path style="clip-path:url(#SVGID_00000099651172936631433400000007567676635823729807_);fill-rule:evenodd;clip-rule:evenodd;fill:url(#SVGID_00000142875871580683979190000005341643694671263391_);" d="
		M285.5,39.3c-51.8-120.2-135.3-143.9-170-141l-0.3-3.5c36.4-3,121.1,21.8,173.5,143.2C340.6,158.2,429.1,206.7,466.6,216l-0.8,3.4
		C427.2,209.9,337.8,160.6,285.5,39.3z"/>
	
		<linearGradient id="SVGID_00000013169550378534293840000000091559669648429483_" gradientUnits="userSpaceOnUse" x1="3.2901" y1="-1.2953" x2="312.6624" y2="355.0199" gradientTransform="matrix(1 0 0 -1 0 362)">
		<stop  offset="0" style="stop-color:#6C1DEC"/>
		<stop  offset="0.4462" style="stop-color:#62DAFC"/>
		<stop  offset="0.8108" style="stop-color:#0EE094"/>
		<stop  offset="1" style="stop-color:#0EE094"/>
	</linearGradient>
	
		<path style="clip-path:url(#SVGID_00000099651172936631433400000007567676635823729807_);fill-rule:evenodd;clip-rule:evenodd;fill:url(#SVGID_00000013169550378534293840000000091559669648429483_);" d="
		M179.4,143.9C128,24.6,33-0.5-0.4,2.3l-0.7-8.7c37.7-3.1,135.9,24.6,188.6,146.9C239,260,327,308,363.6,317l-2.1,8.5
		C322.2,315.8,232.1,266,179.4,143.9z"/>
	
		<linearGradient id="SVGID_00000154416377719441574630000005782919192531372419_" gradientUnits="userSpaceOnUse" x1="10.5975" y1="-7.64" x2="319.9698" y2="348.6752" gradientTransform="matrix(1 0 0 -1 0 362)">
		<stop  offset="0" style="stop-color:#6C1DEC"/>
		<stop  offset="0.4462" style="stop-color:#62DAFC"/>
		<stop  offset="0.8108" style="stop-color:#0EE094"/>
		<stop  offset="1" style="stop-color:#0EE094"/>
	</linearGradient>
	
		<path style="clip-path:url(#SVGID_00000099651172936631433400000007567676635823729807_);fill-rule:evenodd;clip-rule:evenodd;fill:url(#SVGID_00000154416377719441574630000005782919192531372419_);" d="
		M221.7,102.1C170.1-17.5,87.3-40.7,53.5-37.9l-0.6-7c37.2-3.1,122.6,22.2,175.2,144.2c51.7,119.8,139.8,168,176.7,177.1l-1.7,6.8
		C364.1,273.6,274.2,223.9,221.7,102.1z"/>
	
		<linearGradient id="SVGID_00000091722290525052143120000009859160692146381974_" gradientUnits="userSpaceOnUse" x1="13.7971" y1="-10.4181" x2="323.1695" y2="345.8971" gradientTransform="matrix(1 0 0 -1 0 362)">
		<stop  offset="0" style="stop-color:#6C1DEC"/>
		<stop  offset="0.4462" style="stop-color:#62DAFC"/>
		<stop  offset="0.8108" style="stop-color:#0EE094"/>
		<stop  offset="1" style="stop-color:#0EE094"/>
	</linearGradient>
	
		<path style="clip-path:url(#SVGID_00000099651172936631433400000007567676635823729807_);fill-rule:evenodd;clip-rule:evenodd;fill:url(#SVGID_00000091722290525052143120000009859160692146381974_);" d="
		M263.9,60.3C212.2-59.6,129.1-83,94.9-80.2l-0.4-5.2c36.8-3.1,121.8,22,174.3,143.7c51.8,120,140.1,168.4,177.3,177.6l-1.3,5.1
		C406,231.4,316.4,181.9,263.9,60.3z"/>
	
		<linearGradient id="SVGID_00000012455320445869380630000000755497262338058915_" gradientUnits="userSpaceOnUse" x1="16.9978" y1="-13.1971" x2="326.3701" y2="343.1181" gradientTransform="matrix(1 0 0 -1 0 362)">
		<stop  offset="0" style="stop-color:#6C1DEC"/>
		<stop  offset="0.4462" style="stop-color:#62DAFC"/>
		<stop  offset="0.8108" style="stop-color:#0EE094"/>
		<stop  offset="1" style="stop-color:#0EE094"/>
	</linearGradient>
	
		<path style="clip-path:url(#SVGID_00000099651172936631433400000007567676635823729807_);fill-rule:evenodd;clip-rule:evenodd;fill:url(#SVGID_00000012455320445869380630000000755497262338058915_);" d="
		M306.2,18.5c-51.8-120.2-135.3-143.9-170-141l-0.3-3.5c36.4-3,121.1,21.8,173.5,143.2C361.3,137.4,449.9,186,487.3,195.3l-0.8,3.4
		C448,189.2,358.5,139.8,306.2,18.5z"/>
</g>
</svg>
