<?xml version="1.0" encoding="UTF-8"?>
<!DOCTYPE svg  PUBLIC '-//W3C//DTD SVG 1.1//EN'  'http://www.w3.org/Graphics/SVG/1.1/DTD/svg11.dtd'>
<svg clip-rule="evenodd" fill-rule="evenodd" stroke-linecap="round" version="1.1" viewBox="0 0 1246 1080" xml:space="preserve" xmlns="http://www.w3.org/2000/svg"><clipPath id="_clip1"><rect width="1245.8" height="1079.2"/></clipPath><g clip-path="url(#_clip1)"><rect width="1245.8" height="1079.2" fill="#fff"/><clipPath id="_clip2"><rect width="3462.5" height="2154.2"/></clipPath><g clip-path="url(#_clip2)"><path d="m742.93 608.19c218.8 163.92 492.96-19.98 842.19 213.36 193.8 129.48 156.39 217.52 336.27 328.01 271.26 166.63 723.71 192.11 1043.9-59.695 359.77-282.96 342.04-750.53 338.45-845.54-26.15-690.28-686.29-1074.5-752.6-1111.7-536.84-301.23-1412.4-345.58-1810.3 185.18-302.59 403.53-282.46 1077.2 2.15 1290.4v-0.016z" fill="#aaf9f9" fill-rule="nonzero"/><path d="m571.31 607.34c234.76 175.86 528.88-21.446 903.55 228.9 207.9 138.91 167.78 233.35 360.76 351.91 291.02 178.77 776.44 206.1 1119.9-64.054 385.96-303.56 366.97-805.2 363.1-907.14-28.054-740.56-736.28-1152.8-807.42-1192.7-575.93-323.16-1515.2-370.77-1942.2 198.67-324.62 432.92-303.03 1155.7 2.308 1384.4z" fill="#c6fbfb" fill-rule="nonzero"/><path d="m399.68 606.5c250.68 187.8 564.77-22.892 964.9 244.43 222.02 148.35 179.17 249.2 385.26 375.8 310.79 190.9 829.16 220.09 1196-68.4 412.18-324.17 391.89-859.88 387.76-968.74-29.959-790.84-786.26-1231-862.23-1273.6-615.04-345.11-1618.1-395.94-2074.1 212.15-346.68 462.32-323.61 1234.1 2.457 1478.4z" fill="#e3fdfd" fill-rule="nonzero"/><path d="m228.06 605.63c266.63 199.74 600.69-24.341 1026.2 259.97 236.13 157.77 190.58 265.05 409.75 399.7 330.54 203.04 881.88 234.08 1272-72.742 438.37-344.79 416.8-914.55 412.42-1030.3-31.858-841.12-836.25-1309.3-917.05-1354.6-654.15-367.04-1721-421.11-2206 225.64-368.72 491.71-344.18 1312.6 2.603 1572.4h0.016z" fill="#fff" fill-rule="nonzero"/><path d="m493.47 512.41c235.68 176.56 558.62 10.38 934.78 261.7 208.73 139.46 201.46 253.15 395.2 372.17 292.18 179.49 778.53 192.37 1123.4-78.859 387.5-304.76 348.54-826.59 342.45-928.63-45.3-758.81-749.96-1146.1-821.38-1186.2-578.23-324.45-1538.7-377.63-1967.4 194.06-325.94 434.64-313.6 1136.1-7.062 1365.8z" fill="#ddf1fc" fill-rule="nonzero"/><path d="m758.87 419.18c204.73 153.38 516.55 45.1 843.31 263.42 181.33 121.14 212.35 241.26 380.64 344.65 253.82 155.91 675.21 150.66 974.77-84.958 336.63-264.75 280.22-738.67 272.49-826.98-59.212-676.57-663.66-982.91-725.7-1017.7-502.31-281.86-1356.4-334.16-1728.8 162.47-283.12 377.57-283.01 959.63-16.712 1159.1z" fill="#bbe4f9" fill-rule="nonzero"/><path d="m1024.3 325.94c173.78 130.19 474.47 79.818 751.85 265.14 153.93 102.84 223.23 229.37 366.1 317.12 215.45 132.35 571.87 108.94 826.16-91.059 285.74-224.75 211.79-650.75 202.53-725.3-73.825-594.33-577.37-819.73-630.02-849.27-426.38-239.26-1174.1-290.67-1490.2 130.89-240.36 320.48-252.46 783.13-26.409 952.47z" fill="#9ad6f7" fill-rule="nonzero"/><path d="m1289.7 232.72c142.85 107 432.4 114.54 660.39 266.87 126.51 84.52 234.12 217.46 351.55 289.6 177.09 108.79 468.53 67.208 677.55-97.18 234.86-184.72 143.2-562.8 132.56-623.63-89.576-511.97-491.06-656.54-534.34-680.83-350.46-196.65-991.79-247.2-1251.6 99.296-197.54 263.44-221.87 606.67-36.058 745.86l-0.017 0.016z" fill="#78c9f4" fill-rule="nonzero"/><path d="m763.9 219.89-11.941 5.024c-0.563 0.234-1.221-0.032-1.455-0.595-0.237-0.563 0.03-1.221 0.592-1.455l11.942-5.024c0.566-0.234 1.221 0.032 1.458 0.595 0.233 0.564-0.033 1.221-0.596 1.455z" fill="#56bbf1" fill-rule="nonzero"/><path d="m720.11 141.56c0.516-2.112 3.1-0.955 5.837 2.519 2.742 3.474 4.525 8.044 3.992 10.156-0.534 2.113-3.1 0.955-5.838-2.519-2.737-3.474-4.521-7.996-3.991-10.156z" fill="#56bbf1" fill-rule="nonzero"/><path d="m758.48 153.01c-4.962 2.566 0.858-16.932 5.804-19.452 4.946-2.519-0.862 16.885-5.804 19.452z" fill="#56bbf1" fill-rule="nonzero"/><path d="m779.38 176.7c-2.27-0.469-0.925-3.145 3.067-5.994 3.992-2.848 9.017-4.788 11.283-4.334 2.271 0.454 0.909 3.114-3.066 5.993-3.975 2.88-9.063 4.82-11.284 4.335z" fill="#56bbf1" fill-rule="nonzero"/><path d="m707.15 183.37c2.942 3.661-11.862 4.757-14.946 2.175-1.55-1.299 0.296-3.255 4.6-4.084 4.23-0.814 9 0.25 10.346 1.909z" fill="#56bbf1" fill-rule="nonzero"/><path d="m721.22 211.6c2.238 0.314 1.192 3.13-2.85 6.041-4.037 2.911-9.421 4.288-11.596 3.458-4.787-1.846 10.142-10.093 14.429-9.483l0.017-0.016z" fill="#56bbf1" fill-rule="nonzero"/><path d="m745.01 159.07c-13.113-0.736-24.917 7.981-28.059 20.734-3.208 14.992 6.338 29.732 21.329 32.94 1.034 0.22 2.084 0.376 3.13 0.486 1.112 0.078 1.237 0.532 6.216 5.195 0.875 0.845 2.159 1.095 3.284 0.642l10.004-3.865c1.154-0.408 1.937-1.487 1.954-2.708 0.612-7.887 0.296-8.09 0.971-8.872 15.196-17.605 2.408-43.19-18.842-44.521l0.013-0.031zm-19.092 25.288c-1.004 4.898 0.216 5.899 0.954 9.812 0.029 0.062 0 0.141 0.029 0.25 0.096 0.704 0.017 1.8-0.812 1.753-0.359-0.063-0.688-0.235-0.938-0.485-3.196-2.629-5.071-6.541-5.15-10.673 0.188-5.555 2.663-10.797 6.825-14.49 2.784-2.629 6.4-4.21 10.217-4.491 2.192 0.093 2.083 0.97 0.516 2.331-2.595 1.941-4.974 4.163-7.104 6.619-2.237 2.723-3.804 5.931-4.537 9.374zm32.429 26.587c0.029 0.594-0.425 1.127-1.021 1.158-0.529 0.031-1.016-0.329-1.141-0.845l-2.771-20.218c-1.846 2.817-5.259 4.162-8.529 3.38-2.834-0.704-5.805-0.36-8.405 0.97l14.338 18.106c0.375 0.469 0.296 1.158-0.159 1.549-0.483 0.344-1.141 0.282-1.549-0.156l-14.584-18.356c-0.658-0.799-0.567-1.972 0.233-2.629 0.109-0.094 0.234-0.172 0.375-0.251 3.146-1.705 6.809-2.175 10.284-1.299 2.658 0.485 5.354-0.766 6.667-3.129 0.641-0.845 1.845-1.002 2.674-0.36 0.409 0.313 0.676 0.767 0.738 1.267l2.833 20.797 0.017 0.016z" fill="#56bbf1" fill-rule="nonzero"/><path d="m791.59 732.37-9.021 12.429c-0.438 0.596-1.25 0.725-1.854 0.296-0.6-0.425-0.721-1.25-0.296-1.85l9.021-12.429c0.433-0.596 1.25-0.725 1.854-0.3 0.6 0.429 0.721 1.25 0.296 1.854z" fill="#56bbf1" fill-rule="nonzero"/><path d="m699.01 679.89c-0.783-2.45 2.546-2.88 7.467-1.025 4.929 1.85 9.538 5.375 10.304 7.841 0.767 2.467-2.546 2.88-7.466 1.025-4.93-1.85-9.509-5.329-10.305-7.841z" fill="#56bbf1" fill-rule="nonzero"/><path d="m744.94 667.91c-3.438 5.654-9.555-17.687-6.071-23.283 3.487-5.6 9.504 17.646 6.071 23.283z" fill="#56bbf1" fill-rule="nonzero"/><path d="m780.7 679.05c-2.587 0.917-2.871-2.608-0.575-7.962 2.288-5.342 6.192-10.396 8.775-11.338 2.579-0.937 2.829 2.604 0.579 7.954-2.25 5.355-6.225 10.459-8.775 11.338l-4e-3 8e-3z" fill="#56bbf1" fill-rule="nonzero"/><path d="m711.59 730.25c5.229 1.892-9.1 12.121-13.817 11.408-2.375-0.358-1.7-3.487 2.154-6.975 3.792-3.416 9.283-5.291 11.663-4.433z" fill="#56bbf1" fill-rule="nonzero"/><path d="m743.22 750.2c2.454-1.05 3.125 2.459 0.825 7.867-2.296 5.408-6.917 10.15-9.621 10.633-5.983 1.071 4.067-16.466 8.796-18.5z" fill="#56bbf1" fill-rule="nonzero"/><path d="m735.01 682.32c-13.746 7.329-20.346 23.4-15.701 38.275 5.967 17.162 24.717 26.242 41.88 20.275 1.187-0.413 2.346-0.888 3.475-1.429 1.183-0.609 1.575-0.213 9.487 1.441 1.409 0.321 2.867-0.216 3.729-1.375l7.763-10.079c0.917-1.117 1.05-2.687 0.321-3.946-4.23-8.366-4.671-8.375-4.475-9.604 4.575-27.2-24.121-45.25-46.48-33.546v-0.012zm-3.787 37.383c2 5.588 3.854 5.854 7.013 9.367 0.062 0.042 0.07 0.146 0.199 0.229 0.521 0.654 1.13 1.821 0.255 2.267-0.404 0.162-0.842 0.195-1.263 0.087-4.854-0.712-9.162-3.504-11.796-7.65-3.233-5.754-3.95-12.587-2-18.887 1.209-4.375 3.884-8.205 7.596-10.834 2.271-1.258 2.7-0.296 1.959 2.059-1.425 3.57-2.48 7.279-3.13 11.079-0.6 4.137-0.2 8.346 1.171 12.291l-4e-3 -8e-3zm49.217 7.008c0.404 0.584 0.271 1.392-0.321 1.805-0.525 0.366-1.233 0.3-1.675-0.155l-15.242-18.783c-0.141 3.988-2.775 7.454-6.571 8.675-3.3 1.025-6.112 3.213-7.912 6.154l25.671 9.546c0.666 0.258 1.016 0.992 0.796 1.667-0.28 0.637-0.992 0.983-1.667 0.791l-26.071-9.641c-1.167-0.396-1.783-1.654-1.383-2.813 0.062-0.166 0.133-0.329 0.233-0.471 2.138-3.662 5.575-6.387 9.621-7.633 3.004-1.146 4.946-4.071 4.842-7.287 0.129-1.242 1.245-2.146 2.495-2.009 0.605 0.059 1.155 0.363 1.525 0.838l15.667 19.325-8e-3 -9e-3z" fill="#56bbf1" fill-rule="nonzero"/><path d="m1297 473.15c-64.655-45.046-93.538-27.291-122.42-37.625-12.192-4.504-18.55-27.027-31.534-60.943-1.587-3.975-1.587-7.684 0.796-11.129 6.096-8.744 4.505-15.103 6.888-16.163 3.446-1.59 15.9-11.129 14.575-24.378-0.796-7.419-7.421-17.223-14.838-18.283-1.591-0.265 3.18-7.419-1.062-11.923-7.417-7.95-15.1-3.975-15.634-4.505-0.791-0.795 3.446-12.454-3.975-16.163-12.716-6.624-16.425-1.59-16.691-4.24-0.796-7.154-8.479-10.334-15.104-10.599-7.684-0.53-8.742 4.77-9.538 4.505-0.796-1.855-1.854-3.71-2.65-5.565-4.237-8.744-13.25-11.658-21.462-9.539-13.779 3.445-16.692 15.369-17.488 15.634s-6.096-5.3-18.016-3.445c-10.6 1.59-17.755 11.13-16.696 21.463 0.529 4.77-0.796 1.324-11.392 6.889-17.225 9.009-14.308 30.472-2.917 42.131 1.325 1.325 0.267 1.59-2.12 4.504-7.946 9.804 2.12 20.403 15.104 21.993 2.121 0.265 0.796-0.265 9.275 18.018-17.488 0.265-34.975 8.744-45.842 26.762-23.846 40.276 15.371 88.234 60.417 72.601 0.529-0.262 1.058-0.529 1.325 0.534 1.058 2.649 6.358 14.308 9.8 19.604 0.266 0.266 0.796 6.891 1.591 11.129-2.383 0.796-6.095 1.591-9.537 2.65-0.267-1.058-48.492-24.113-59.092-25.438-9.271-1.058-12.716 6.096-21.991 28.088-9.275-4.504-45.842-19.609-54.055-13.513-4.504 3.179-4.77 7.154-10.066 22.259-2.65 7.416-5.3 13.245-11.396 36.566-25.438 96.184-23.054 91.679-4.238 103.87 9.009 5.829 32.059 17.754 34.18 18.283 5.829 19.079 21.462 31.796 45.045 32.329 2.384 0 11.659-3.712 16.959-6.362 1.058 1.325 1.325 2.121 2.383 2.65 71.279 37.625 72.867 30.737 109.17-22.258 2.912-4.238 12.187-16.163 16.692-22.788 49.283 89.563 165.87 96.979 225.49 33.125 48.488-51.671 65.979-153.69-29.941-220.72zm-236.89 13.517c-10.067-21.463-11.392-20.404-9.8-21.467 7.683-5.829 13.246-12.45 17.488-21.725 2.65 1.588 11.658 4.771 18.545 5.3 14.575 0.792 18.55-4.504 19.609-1.854 1.591 5.033 2.121 10.333 2.121 15.633-15.105 5.563-33.388 13.246-47.963 24.113z" fill="#fff" fill-rule="nonzero"/><path d="m1138.2 377.01c0 7.626 2.738 14.717 4.4 22.042 0.809 3.55 2.671 7.263 4.205 10.521 2.058 4.371 3.42 8.986 5.816 13.22 2.583 4.575 4.646 9.641 7.1 14.333 0.367 0.704 1.242 2.842 1.221 2.046-0.037-1.213-0.342-2.388-0.592-3.571-0.754-3.608-2.02-7.012-3.133-10.521-1.242-3.908-3.708-6.671-5.296-10.236-1.433-3.229-2.946-6.44-4.529-9.606-1.108-2.22-2.237-4.402-3.308-6.665-1.138-2.399-1.613-4.812-2.55-7.253-0.454-1.179-2.067-4.751 0.021-2.548 0.975 1.03 1.741 3.31 1.741 4.705" fill="none" stroke="#eec9aa" stroke-width="12.5px"/><path d="m1133.3 407.93c1.375 14.074 7.683 26.062 12.558 38.883 0.817 2.141 1.9 4.237 2.496 6.479 0.304 1.133-0.425 1.571-1.175 2.304-0.983 0.954-7.713 8.429-8.825 5.354-1.142-3.158-2.087-6.392-3.188-9.567-1.337-3.862-2.966-7.591-3.895-11.616-0.2-0.867-0.938-3.417-0.58-2.613 0.617 1.392 0.309 3.604 0.434 5.1 0.221 2.579 0.437 5.179 0.437 7.771 0 0.567 0.35 2.521-0.066 1.033-0.579-2.083-1.979-2.283-3.267-3.412-0.342-0.3-2.383-1.721-2.692-1.417-0.629 0.633 5e-3 5.046 0.292 5.808 0.642 1.726 0.783 0.021 0.371-0.816-0.325-0.654 0.121-0.296 0.304 0.183 0.454 1.163 1.183 2.029 1.579 3.246 0.621 1.913 2.029 3.55 2.029 5.721 0 1.487 0.288 2.904 0.288 4.408-0 1.471-1.038 4.904 0.871 4.904" fill="none" stroke="#eec9aa" stroke-width="45.83px"/><path d="m1111.6 444.84h2.35" fill="none" stroke="#eec9aa" stroke-width="12.5px"/><path d="m1117 457.38c-0.509 0.067-0.5 1.121-0.7 1.571-0.134 0.3-0.084 0.659-0.084 0.979 0 0.317-0.491 0.938-0.175 0.938 0.313-0 0.175-3.767 0.175-4.271" fill="none" stroke="#eec9aa" stroke-width="12.5px"/><path d="m1113.1 457.78c-0.138 1.254 0.321 2.317 0.391 3.529 0.067 1.121 1.5 1.855 1.571 3.134 0.2 3.666-0.396 7.158-0.396 10.737 0 3.896 1.371 6.367 3.921 9.279 2 2.284 3.129 5.5 5.513 7.409 1.612 1.287 13.116 6.679 14.091 4.725" fill="none" stroke="#eec9aa" stroke-width="12.5px"/><path d="m1115.1 482.48c0 3.046 3.617 5.459 5.317 7.642 1.291 1.662 4.15 3.183 6.054 4.029 1.637 0.729 3.679 0.788 5.096 2.05 3.15 2.8 9.558 3.65 13.529 2.767 4.854-1.079 9.783-2.409 12.958-6.492 2.392-3.075 5.35-5.654 7.929-8.517 1.121-1.245 1.584-2.762 2.742-3.92 1.237-1.238 2.287-3.48 3.137-5.009 1.85-3.329 3.555-7.079 4.38-10.783 0.341-1.546 1.195-3.533 1.195-5.096 0-1.725 1.18-3.012 1.18-4.704-0-2.163 3.091-9.325-0.088-10.304-2.496-0.767-5.629-0.559-7.95-1.85-1.3-0.721-3.537-1.142-4.508-2.354-0.725-0.9-0.684-0.942-0.392 0.22 0.571 2.292 1.367 4.892 2.35 7.034 0.442 0.958 0.663 2.021 1.175 2.921 0.392 0.679 1.775-0.188 2.267 0.304 1.212 1.212-1.55 8.079-1.958 9.712-0.734 2.934-1.726 6.267-2.963 9.017-4.192 9.312-11.229 16.008-20.063 20.975-2.333 1.312-4.05 2.037-6.708 1.375-4.641-1.163-8.312-4.663-12.741-6.275-0.396-0.142-2.771-1.175-1.896-1.175 4.2-0 8.271 0.4 12.525 0.087 3.062-0.229 5.841 0.017 8.691-1.287 4.517-2.063 8.942-4.363 12.567-7.904 2.171-2.121 5.596-5.846 6.358-8.909 0.729-2.916-1.962-0.137-3.396 0.938-5.591 4.192-11.291 7.771-17.491 10.954-0.492 0.254-3.417 1.629-3.417 1.417" fill="none" stroke="#eec9aa" stroke-width="12.5px"/><path d="m1038.9 507.49c-1e-3 2.587-1.267 5.416-0.65 8.046 0.795 3.379 1.704 6.825 2.137 10.266 0.292 2.359 1.763 5.421 2.904 7.459 2.259 4.033 3.5 8.875 6.242 12.641 1.979 2.725 3.392 6.204 6.196 8.234 2.066 1.491 4.137 2.816 6.221 4.204" fill="none" stroke="#eec9aa" stroke-width="12.5px"/><path d="m1062.2 319.52c1.871-0 3.546 0.406 5.275 1.104 5.588 2.255 10.829 4.899 16.138 7.731 4.529 2.416 7.191 4.025 9.625 8.408 0.362 0.647-1.475-0.289-2.117-0.653-5.163-2.921-9.625-7.039-14.267-10.685-8.954-7.031-18.212-13.665-27.254-20.58-2.662-2.036 5.742 3.508 8.813 4.847 5.22 2.274 10.729 3.867 16.029 5.951 3.421 1.345 7.283 2.597 10.208 4.913 1.796 1.421-0.571 1.728-1.892 1.781-4.741 0.19-9.412-0.634-14.112-1.104-0.042-5e-3 -2.054-0.372-1.533 0.27 2.02 2.477 5.945 4.027 8.704 5.365 6.562 3.187 13.416 5.415 20.512 7.078 2.009 0.471 5.65 1.223 7.754 1.623 0.675 0.128 4.921 1.377 5.771 0.811 0.7-0.468-1.466-0.847-2.254-1.15-2.046-0.786-4.033-1.447-6.133-2.096-6.25-1.933-12.659-3.507-19.071-4.824-1.988-0.407-3.321-0.638-5.275-0.901-0.696-0.094-2.733-0.147-2.071-0.383 1.929-0.69 4.613-0.168 6.625-0.293 1.258-0.079 5.542 5e-3 6.221-1.488 1.062-2.333-11.863-2.262-12.958-2.187-0.838 0.058-12.159 1.953-8.546 3.359 3.283 1.276 13.921 1.981 10.504 1.127-7.171-1.793-15.146-1.939-22.496-1.939h-1.487c4.087 0 8.175-8e-3 12.262 0.091 8.113 0.196 16.242 0.501 24.346 0.947 4.171 0.229 8.733 0.276 12.804 1.397 2.113 0.583-4.066 2.488-4.508 2.637-2.058 0.696-4.171 1.166-6.246 1.803-0.812 0.251-2.425 1.236-1.6-0.247 2.4-4.322 5.513-8.245 8.25-12.353 0.692-1.034 0.738-1.137 0.496 0.09-0.754 3.815-1.163 7.747-1.579 11.609-0.346 3.219-0.45 6.412-0.45 9.647-0 1.995-0.684 5.474 0.091 7.372 0.017 0.043 0.775-1.878 0.813-1.984 0.458-1.404 0.966-2.801 1.104-4.283 0.175-1.961-5.429 4.803-5.838 5.274-2.279 2.63-4.562 5.254-6.833 7.89-0.629 0.733-1.441 1.745-1.104 0.18 1.133-5.237 1.463-10.758 3.2-15.846 0.742-2.163 0.163 1.189 0.138 1.555-0.171 2.603-0.171 5.275 0.133 7.867 0.146 1.213 0.175 4.494 1.983 3.539 2.117-1.115 3.575-3.086 5.5-4.463" fill="none" stroke="#eec9aa" stroke-width="12.5px"/><path d="m1019.2 332.09c-0 3.266-1.621 6.716-1.621 10.143 0 1.251-0.617 4.62 0.092 5.591 0.837 1.152 0.162 4.026 1.329 4.958 0.454 0.366 1.012 3.608 1.012 4.261 0 1.67 0.813 3.14 0.813 4.868-0 2.17 1.362 6.675 2.75 8.408 0.617 0.773 1.658 3.487 2.929 3.562 1.267 0.074 7.304 2.401 7.304 1.532 0-1.317-0.558-2.686-0.812-3.967-0.659-3.324-0.996-6.713-1.125-10.098-0.288-7.389-0.905-14.886-0.905-22.27 0-12.309-0.404 24.613-0.404 36.922 0 8.116 0.229-16.257-0.45-24.344-0.483-5.726-1.096-11.524-2.162-17.177-0.467-2.455-0.729 0.845-0.838 1.601-0.579 4.073-0.608 16.444-0.608 12.329 0-4.475 0.304-8.818 0.025-13.299-0.117-1.877-0.467 2.918-0.475 2.976-1.038 6.667-1.692 13.395-2.367 20.106-0.579 5.749-1.096 11.581-0.608 17.357 0.133 1.592 0.158 3.907 0.992 5.364 0.175 0.307 1.65-2.075 1.691-2.141 1.929-3.156 3.2-6.776 4.35-10.279 0.725-2.212 1.404-4.451 1.846-6.739 0.229-1.159 0.113-2.253 0.633-3.291" fill="none" stroke="#eec9aa" stroke-width="12.5px"/><path d="m1032.6 330.88c0.37 11.139 2.82 23.621 7.1 34.082 1.108 2.708 2.066 6.803 2.229 9.738 0.012 0.186-0.021 2.145 0.408 1.397 2.304-4.036 2.821-8.809 3.446-13.344 0.667-4.796 0.229-9.552 0.7-14.336 0.079-0.814 0.112-1.869 0.337-2.66 0.188-0.647 0.446 1.276 0.563 1.938 0.504 2.819 0.837 5.663 1.221 8.499 0.896 6.706 1.687 13.178 1.846 19.949 0.12 5.231 1.862-10.308 2.433-15.509 0.971-8.82 2.437-35.381 2.437-26.508 0 9.867-2.816 19.757-2.208 29.642 0.013 0.202 0.208 2.112 0.271 1.96 1.362-3.413 2.775-6.796 3.967-10.278 1.566-4.576 3.587-9.17 4.687-13.885 0.054-0.232 0.175-0.933 0.133-0.699-0.287 1.731-0.683 3.443-1.037 5.162-2.917 14.167-6.104 28.793-5.429 43.323 8e-3 0.2-0.088 2.135 0.429 0.992 1.358-3.02 1.533-6.84 2.117-10.053 0.833-4.573 2.937-18.357 2.32-13.75-0.691 5.191-2.383 11.1-1.575 16.342 0.563 3.674 2.542-14.641 1.688-11.022-0.321 1.37-0.496 5.6-0.496 4.192 0-6.752-3.942-14.045-6.625-20.061-1.787-4.008-3.717-7.966-5.567-11.947-0.904-1.939-2.075-3.493-3.629-4.959-0.825-0.774-2.7-3.385-3.879-3.562-1.212-0.182-1.392 6.487-1.396 7.033-0.066 5.069 1.779 8.802 4.892 12.691 1.712 2.143 3.637 3.691 5.971 5.162 1.025 0.645 2.954 1.776 3.337 2.93" fill="none" stroke="#eec9aa" stroke-width="12.5px"/><path d="m1048 377.54c0 1.866 1.692 3.063 3.159 4.057 1.529 1.038 2.512 3.149 4.145 3.967 2.775 1.388 4.1 2.973 6.288 5.162 0.691 0.692 0.721 1.636 1.579 2.209 0.412 0.276 0.946 0.674 1.263 1.06 1.004 1.229 2.591 3.866 3.041 5.455 0.367 1.281 0.546 2.556 0.838 3.854 0.479 2.173 2.037 3.714 3.133 5.568 3.029 5.131 2.521 10.777 2.521 16.544-0 4.737 0.225 9.437-0.788 14-0.229 1.029-0.845 1.825 0.588 1.825h3.854c2.796-0 5.738 0.045 8.338 0.787 1.075 0.308 2.512-0.383 3.654-0.383 2.275-0 4.908-0.263 7.1-0.809 2.504-0.629 5.366-1.495 7.687-2.525 2.196-0.979 5.092-0.641 6.896-2.345 1.788-1.688 3.558-2.755 4.871-5.05 0.808-1.413 3.296-2.675 4.687-3.471 2.092-1.196 4.075-3.963 5.138-6.084 0.85-1.7 5.758-15.741 3.967-16.637" fill="none" stroke="#eec9aa" stroke-width="12.5px"/><path d="m1063.5 385.57c6.191 6.316 11.141 13.606 14.004 22.091 1.341 3.986 4.079 9.688 2.733 14.079-0.717 2.342-0.467 5.988-0.592 8.413-0.07 1.404-0.391 2.754-0.391 4.217-0 2.075 1.325-2.046 1.575-2.7 2.783-7.25 1.033-15.422 0.391-22.894-0.887-10.38-2.675-20.75-4.55-30.994-2.166-11.864-2.537-23.443-2.537-35.524-0-2.239-1.342 4.268-1.838 6.449-2.312 10.172-3.887 20.159-4.77 30.57-0.046 0.561-0.088 3.792-0.088 1.428 0-5.497-0.15-10.956-0.371-16.445-0.037-0.944 0.225-3.379-0.241-1.072-0.63 3.126-0.963 6.25-0.963 9.439 0 8.36 1.092-16.683 1.775-25.014 0.446-5.457-1.196 3.015-1.379 4.173-0.975 6.118-1.192 12.218-1.775 18.365-0.083 0.899-0.196 3.854 0.396 1.182 1.325-6.002 2.225-12.536 2.866-18.655 0.459-4.38-0.237 2.4-0.308 3.214-0.5 6.043-0.787 12.056-0.787 18.119-0 4.853 2.683-6.448 2.758-1.607 0.021 1.462-0.696 8.819 1.971 8.971 0.45 0.025 1.137-0.825 1.487-0.224 0.688 1.193 0.75 2.687 1.071 3.995 0.121 0.494 0.592 1.838 0.592 0.557-0-1.197 0.391-4.768 0.391-3.57 0 2.023-0.021 4.047 0 6.07 0.059 5.304 1.179-0.474 1.4-2.5 1.009-9.144 1.359-18.226 1.359-27.424-0-5.76 0.725-12.06-0.021-17.784-0.729-5.55-0.988 11.16-1.117 16.758-0.079 3.286-0.087 6.582 0.154 9.863 0.067 0.925-0.1 2.514 0.196 3.414 0.1 0.309 0.288-0.585 0.392-0.893 0.633-1.821 0.887-3.83 1.271-5.712 0.641-3.179 1.187-6.383 1.879-9.551 4e-3 -1e-3 0.575-2.47 0.7-2.677 0.079-0.124 0.117 0.278 0.112 0.423-0.071 1.776-0.796 8.408-0.854 8.971-0.675 6.576-1.408 13.132-1.508 19.748-0.021 1.216-0.367 3.567-0 4.864 0.129 0.471 0.646-0.741 0.85-1.182 2.012-4.287 3.442-8.866 5.033-13.322 1.384-3.876 2.771-7.762 4.463-11.514 0.25-0.548 1.146-2.844 0.962-0.714-0.925 10.879-3.716 21.522-4.2 32.467-0.087 2.001-0.358 5.282 0.809 1.473 2.929-9.555 5.37-19.285 8.12-28.897 0.117-0.413 2.405-8.217 1.88-4.641-1.321 9.025-2.08 18.104-2.755 27.201-0.033 0.447-0.5 7.254 0.413 3.749 3.354-12.885 5.696-26.213 8.162-39.296 0.675-3.579 1.313-7.181 1.75-10.8 0.15-1.248 0.1-0.799 0 0.179-0.979 9.702-2.55 19.327-3.37 29.053-0.33 3.931-1.321 15.678-0.48 11.826 1.117-5.12 2.696-10.214 4.155-15.24 1.095-3.769 2.191-7.537 3.262-11.314 0.279-0.992 1.046-3.88 1.179-2.856 0.3 2.27-0.537 5.466-0.787 7.654-0.9 8.009-1.967 15.994-2.6 24.032-0.242 3.021-0.484 6.071-0.484 9.105 0 0.5 0.446-0.9 0.571-1.384 4.067-16.179 8.038-32.386 12.621-48.422 0.763-2.659 1.638-5.343 2.125-8.077 0.158-0.891-0.283 1.786-0.437 2.677-2.142 12.369-3.63 24.83-4.992 37.31-0.309 2.834-0.654 5.674-0.809 8.523-8e-3 0.157-0.025 0.618 0.021 0.469 0.159-0.48 0.284-0.969 0.438-1.45 2.716-8.454 5.229-16.954 8.708-25.126 0.154-0.362 1.379-3.39 0.7-0.848-1.104 4.153-2.204 8.289-3.104 12.496-0.863 4.01-1.55 8.024-2.058 12.094-0.017 0.137-0.421 3.439-0.13 3.035 1.105-1.537 1.588-3.893 2.163-5.645 1.308-3.961 2.642-7.908 4.004-11.849 1.104-3.187 3.254-7.159 3.417-10.622 0.083-1.837-0.717 0.568-0.792 1.205-0.029 0.281 1.15-5.98 2.892-5.98 0.154-0-0.104 0.925-0.113 1.004-0.058 0.701-0.021 1.417-0.021 2.12 0 1.616 1.313-1.889 1.663-2.455 1.758-2.849 3.346-5.881 5.338-8.568 0.475-0.641 0.758-0.04 1.466-0.201 1.788-0.405 1.775-0.376 1.775 1.629v3.815c0 2.315-0.175 4.639-1.579 6.427-1.25 1.594-2.138 3.768-3.454 5.11-1.567 1.597-2.45 3.166-2.45 5.534-0 5.072-0.284 10.156-1.163 15.084-0.466 2.636-0.708 5.877-0.808 8.524-0.125 3.355-1.575 6.615-1.575 10.041 0 3.264-1.604 13.344-5.908 13.344" fill="none" stroke="#eec9aa" stroke-width="12.5px"/><path d="m1129.2 372.66c-0.983 7.395-3.342 14.739-5.588 21.82-1.895 5.976-2.795 12.563-5.162 18.348-3.567 8.717-7.192 18.667-17.446 20.896-4.387 0.954-9.308-0.204-13.775-0.204-0.275 0-2.887-0.087-2.479-0.313 2.308-1.283 5.404-1.649 7.933-2.3 13.867-3.566 23.23-18.682 29.217-30.656 1.537-3.081 3.004-6.189 4.463-9.31 0.366-0.786 2.433-4.149 2.433-4.08-0 7.591-1.754 14.717-3.425 22.113-1.129 4.992-2.104 10.546-5.188 14.808-0.966 1.342-2.033 2.805-3.358 3.834-0.55 0.429-0.438 0.591-0.292 0.133 0.95-2.954 1.246-6.4 1.738-9.442 1.117-6.942 2.316-13.875 3.2-20.852 0.821-6.49 2.2-13.115 2.458-19.655 0.021-0.56 0.263-2.425-0.25-0.947-1.533 4.435-3.729 8.484-5.929 12.623-3.238 6.098-6.542 12.219-9.15 18.619-0.35 0.853-0.704 1.71-1.038 2.57-0.362 0.931 0.45-1.948 0.63-2.931 1.141-6.209 5.075-24.726 3.475-18.619-2.092 7.975-3.471 16.125-5.275 24.164-1.179 5.249 2.566-10.444 3.941-15.643 1.213-4.573 2.446-9.137 3.496-13.75 0.5-2.2 0.721-4.666 1.488-6.808 3.32-9.301-13.725 37.04-9.963 27.906 0.946-2.297 1-5.363 1.442-7.799 0.179-0.984 1.333-3.292 0.383-2.975-1.154 0.385-2.862 8.965-3.112 9.783-0.842 2.77-1.75 5.523-2.592 8.295-0.071 0.237-0.229 0.964-0.179 0.721 0.25-1.227 0.383-2.136 0.587-3.471 0.975-6.463 2.317-13.058 2.909-19.566 0.696-7.659-3.834 14.914-5.117 22.496-0.858 5.056 1.579-10.139 2.137-15.238 0.242-2.175 0.63-4.415-0.041-0.789-0.988 5.309-1.888 10.636-2.909 15.937-0.162 0.841-0.904 4.257-0.225 1.42 1.959-8.198 3.784-16.44 5.546-24.683 0.879-4.124 2.717-16.639 2.296-12.442-0.546 5.466-2.479 11.022-3.629 16.387-0.975 4.574-2.538 9.356-2.863 14.043-0.137 2.017 0-4.042 0-6.063 0-2.289 0.063-4.588 0-6.875-4e-3 -0.22 0.117-0.533-0.066-0.654-0.55-0.368-0.425 1.256-0.609 1.893-1.5 5.212-3.079 10.427-4.104 15.756-0.391 2.052-0.754 4.841-0.496 1.082 0.421-6.076 0.492-12.173 0.721-18.258 0.075-1.908 0.934-7.48 0.184-5.725-1.546 3.603-1.929 8.337-2.705 12.149-0.75 3.678-1.312 7.386-2.029 11.068-0.475 2.444-0.196-0.637-0.137-1.352 0.204-2.497 0.362-4.977 0.316-7.484-0.029-1.69-0.779 3.035-0.833 3.313-0.458 2.36-0.637 4.753-1.104 7.101-0.029 0.137 0.467-4.106 0.542-5.072 0.312-4.258 0.775-8.515 0.966-12.78 0.125-2.704-0.295 0.333-0.47 1.217-1.213 6.105-2.23 12.207-2.934 18.393-0.062 0.574-0.454 5.212-0.312 4.825 0.745-2.075 0.9-4.948 0.9-0.88-0 0.717-0.05 8.996 1.441 8.046 1.4-0.891 3.479-6.896 4.646-6.896 0.367 0-0.771 6.584 0.854 2.705 1.3-3.105 2.571-6.183 4.125-9.175 1.275-2.453 1.104-1.067 1.104 0.789 0 1.962-0.179 4.111 0.409 6.019 0.275 0.904 3.191-2.883 3.287-3 1.059-1.215 2.804-4.236 4.738-4.236 0.633-0 1.258 0.601 1.079 1.262-0.483 1.778-1.346 2.349-2.413 3.653-3.108 3.8-9.912-0.467-13.591-1.94-2.792-1.117-4.204-3.417-6.084-5.567-0.129-0.147-1.291-0.968-1.129-1.15 0.938-1.053 2.546-1.862 3.609-2.817 8.52-7.669 15.137-18.828 20.058-29.056 3.025-6.277 4.292-12.795 4.962-19.656 0.096-1 1.067-16.274 0.675-16.274-1.008-0-2.62 2.181-3.154 2.727-3.354 3.414-6.971 6.556-10.641 9.625-4.28 3.578-7.634 7.634-11.542 11.541" fill="none" stroke="#eec9aa" stroke-width="12.5px"/><path d="m1080.5 334.53c-2.234-0.373-4.842-2.091-6.988-2.84-7.075-2.471-14.283-3.682-21.75-4.216-4.442-0.317-13.171 0.203-13.842 6.244-0.733 6.6 11.438 6.927 15.488 7.304 9.658 0.9 19.337 1.119 29.008 0.203 2.509-0.238 3.142-0.392 0.834-1.42-3.18-1.418-6.375-2.838-9.601-4.148-9.479-3.847-19.266-7.014-29.483-8.025-1.083-0.107-8.25-1.272-8.25 1.218 0 3.522 9.225 3.325 11.088 3.471 4.466 0.348 8.983 0.476 13.458 0.564 0.921 0.017 6.183 0.741 6.921-0.181 0.096-0.12-2.388-0.509-2.479-0.518-2.413-0.241-4.859-0.407-7.284-0.474-0.887-0.024-8.87-0.134-4.662 1.285 8.712 2.939 18.058 3.907 27.071 5.545 1.35 0.246 5.408 0.791 4.033 0.857-0.883 0.042-1.504 0.125-2.346 0.405" fill="none" stroke="#eec9aa" stroke-width="12.5px"/><path d="m1091 630.03c16.163 31.796 29.409 56.175 57.496 75.784 22.258 15.633 49.287 24.112 76.842 25.17 83.995 3.709 147.06-73.395 135.4-156.86-10.067-71.279-91.15-130.1-164.02-131.16-7.417 0-25.7-3.708-30.471-7.154-2.917-2.121-13.25-20.932-18.812-39.215-6.096-19.344-9.542-23.583-8.48-28.882 1.325-6.889 6.096-7.949 7.684-21.463 1.325-9.274-10.334-7.949-15.634 1.854-3.445 6.625-12.716 6.625-16.691 0.266-1.063-1.59-1.592-3.445-2.121-5.3-4.771 3.18-9.804 3.18-14.838 1.59-10.333-3.179-7.95-13.513-6.095-23.317-9.275 5.299-17.488 4.769-24.642-3.445-5.3 15.103-19.342 14.838-25.704 5.565-1.059 2.119-1.854 4.238-3.179 6.093-5.83 8.745-14.571 9.804-22.521 2.65-4.504 11.659 2.121 27.558 0.796 28.088-0.534 0.265-2.121-2.385-2.388-3.71-0.792-2.915-10.067-0-16.958-9.009-4.767-6.095-2.65-11.129 2.387-16.694 2.384-2.65-9.008-5.829-9.275-24.907-0.266-12.453 9.538-19.608 21.463-22.523 2.65-0.53 2.65-0.795 2.383-3.444-1.854-16.428 15.633-27.292 32.592-19.078 0.796 0.265 1.591 1.59 2.121 1.06 0.529-0.265 0.529-1.325 1.058-2.12 8.479-16.693 30.208-19.078 37.629-3.974 2.913 6.094 2.65 6.094 3.442 5.299 4.241-6.094 12.983-4.24 18.812-1.06 6.363 3.71 4.242 9.009 6.096 8.744 5.567-1.06 10.863 0.795 15.633 3.18 7.421 3.974 3.18 15.103 3.976 16.163 0.529 0.795 8.212-3.445 15.633 4.505 2.65 2.914 1.591 7.154 0.529 10.864-0.796 2.384 3.446-1.326 10.333 7.684 7.421 9.539 6.625 20.402-1.058 28.352-2.65 2.649-5.033 5.829-8.746 7.419-0.792 0.265-1.058 1.06-1.325 2.119-3.179 15.899-10.333 15.104-6.358 25.173 8.216 21.198 12.187 35.507 23.316 55.115 5.038 9.008 28.088 10.333 38.421 10.067 62.004-0.263 136.46 54.054 155.54 113.14 16.692 52.2-1.325 122.15-52.729 157.66-70.221 48.487-179.12 26.762-217.01-74.192-1.854-2.121-1.854-2.121-0.529-6.096zm-94.862-322.74c1.854 16.693 15.366 15.898 12.454 13.249-5.3-4.505-7.421-12.719-5.034-19.078 0.53-1.325 1.059-2.385 1.588-3.71 2.121-5.3-8.479-4.504-9.008 9.539zm22.787-29.412c-0.796 7.419 6.358 11.924 5.033 9.009-2.116-4.769-1.058-11.393 1.063-16.428 1.587-3.974-6.096-3.445-6.096 7.419z" fill="#59322a" fill-rule="nonzero"/><path d="m1028.2 528.28c0.529 5.567-6.887 6.359 2.65 30.471 1.325 3.446 2.913 3.446-29.412-9.008-19.609-7.421 2.65-15.367-7.95-27.559-11.392-13.245-33.121-17.487-32.325-19.87 9.537-25.438 15.633-21.463 32.325-15.9 1.591 0.533 26.762 11.925 28.616 12.983 9.804 5.567 3.713-0.263 6.096 28.883z" fill="#78c9f4" fill-rule="nonzero"/><path d="m909.55 495.42c18.021 0.267 49.55 15.633 59.883 20.671 16.429 7.946 20.142 11.391 18.283 20.4-1.587 8.479-5.3 10.333-0.791 13.779 6.358 4.504 95.125 37.096 95.125 37.362 11.129 4.238 10.862 16.692 6.092 27.821-20.934 50.079-29.676 73.929-53.788 112.88-1.325 2.121-1.325 1.855-3.446 1.325-26.762-6.625-32.858-11.395-55.112-23.054-4.505-2.383-14.046-27.292-16.959-57.5-0.796-6.887-7.687-9.804-12.721-3.442-3.975 5.034-3.708-2.387-9.275-6.362-2.116-1.588-3.441-0.529-5.033 1.063-3.708 3.179-4.504-3.18-6.887-6.359-1.855-2.121-4.505-2.387-6.363 0-1.325 1.588-1.854 1.325-2.646-0.266-2.65-5.563-9.541-4.771-11.129-0.267-2.121 6.625-0.533 23.054 0 29.942 0.792 8.745 3.179 10.337-0.796 10.07-5.3-0.529-21.729-10.071-26.5-13.25-8.741-5.829-14.308-9.008-14.571-17.75-0.266-15.104 17.755-87.441 30.209-122.68 6.358-18.283 6.621-24.642 16.425-24.379zm95.125 91.946c-0 4.504 2.916 4.77 24.379 13.779 33.917 14.042 35.242 15.104 38.154 11.925 7.688-8.746 12.721-11.659-2.65-15.9-38.421-11.129-58.558-26.233-59.883-9.804zm-0.529 12.72c-2.384-0.266-4.504 4.238-0.263 6.092 0 0 36.034 15.634 52.992 19.875 2.65 0.796 2.65 0.796 4.242-1.325 1.325-1.854 1.058-3.179-0.796-4.241-7.155-3.18-47.696-19.342-56.175-20.401z" fill="#78c9f4" fill-rule="nonzero"/><path d="m1083.9 636.12c11.392 38.683 19.342 21.725 1.587 47.692-10.6 15.371-27.291 44.516-45.308 46.108-6.096 0.792 4.767 2.383 43.721-93.8z" fill="#78c9f4" fill-rule="nonzero"/><path d="m1069.9 510.26c-2.12-1e-3 -19.608-36.305-21.995-41.601-0.792-1.591-0.53 0.263-7.946 3.18-1.859 0.796 0.262 0.262 7.683 20.929 2.65 7.154-6.358-8.213-10.6-18.813-0.263-0.791-0.796-0.529-1.325-0.529-44.779 15.633-84.258-32.325-60.413-72.601 19.609-32.856 64.121-35.506 85.321-7.949 15.105 19.873 14.309 41.071 3.179 58.825-7.949 12.717-15.104 13.513-13.779 15.896 5.83 10.333 16.163 31.533 19.875 42.662zm-30.475-41.6c19.875-9.012 32.329-30.737 28.621-52.996-3.446-20.668-23.054-39.745-47.696-38.686-24.379 1.06-44.516 18.283-48.491 42.132-6.096 36.301 31.004 66.242 67.566 49.55z" fill="#191919" fill-rule="nonzero"/><path d="m1122 436.07c-10.862 10.071-15.896 8.217-14.308 10.6 3.708 6.887 3.975 18.812 3.179 27.025-1.058 12.192 6.625 24.908 23.846 27.825 25.971 4.504 48.491-27.558 49.021-54.321-0-0.262-0.263-0.796 0.266-0.796s0.529 0.267 0.529 0.796c6.888 21.729-20.404 65.45-52.995 57.762-15.896-3.708-23.846-15.1-24.375-26.229-0.267-6.625 2.912-17.487-1.325-31.004-0.796-2.65-5.034 2.65-19.609 1.854-12.454-0.529-19.87-6.62-7.95-3.97 15.105 3.179 33.388-2.388 44.517-15.371 5.829-6.888 10.862-20.667 12.188-24.907 1.591-5.83 2.649 16.165-12.984 30.736z" fill="#191919" fill-rule="nonzero"/><path d="m1111.2 567.23c-4.771 14.575-11.659 19.346-16.429 24.646-0.53 0.529-0.53 0.263-1.059-0.267-1.062-1.325-0.796-2.12 0.263-3.179 18.021-16.958 12.187-26.496 19.341-22.258 60.946 35.242 164.81 43.192 164.81 43.721-0.263 6.625-125.07-12.188-166.93-42.663z" fill="#191919" fill-rule="nonzero"/><path d="m910.87 635.06c7.421-0.796-12.717 69.954 50.346 71.808 2.65-0 4.771-1.058 5.033-0.529 1.592 4.237-29.408 8.741-46.9-14.575-14.571-19.079-10.862-56.704-8.479-56.704z" fill="#191919" fill-rule="nonzero"/><path d="m1231.8 520.33c1.858 3.179 9.542 54.054-0.529 76.842-0.263 0.529-0.529 1.591-1.325 1.325-2.117-0.529 0.796-4.771 2.387-25.171 1.059-18.283-1.062-44.517-0.533-52.996z" fill="#191919" fill-rule="nonzero"/><path d="m1078.9 508.94c1.324-0.796 5.3 2.65 6.362 3.708 12.983 14.046 22.254 26.762 18.813 45.312-1.592 8.213-4.505 6.888-4.242 5.034 0.796-8.479 3.179-18.017-4.504-30.471-10.596-16.429-15.896-22.258-16.43-23.583z" fill="#191919" fill-rule="nonzero"/><path d="m933.13 688.85c0 6.096-11.129-3.708-12.716-30.471-1.063-17.754 1.587-20.933 2.383-17.754 1.854 10.337 0.796 13.779 5.033 32.329 1.592 6.888 4.242 12.454 5.3 15.896z" fill="#191919" fill-rule="nonzero"/><path d="m937.9 647.52c1.058 28.087 4.767 31.795 7.154 42.658 0.263 1.063-1.854 3.712-4.241-1.588-10.067-20.666-6.092-46.9-3.18-45.841 0.529 0.266 0.529 0.796 0.529 1.062-0.529 1.325-0.262 2.65-0.262 3.709z" fill="#191919" fill-rule="nonzero"/><path d="m953 646.99c1.063 0-0.262 20.671 6.096 41.338 0.796 2.913 2.917 8.213 1.062 9.008-2.387 0.796-5.037-8.212-5.833-10.6-5.829-17.75-3.179-40.008-1.325-39.745z" fill="#191919" fill-rule="nonzero"/><path d="m1037.8 506.55c-3.442 28.617 1.858 36.304 13.516 52.467 0.53 0.795 0 1.587-1.062 1.058-3.442-1.854-13.775-14.042-15.896-28.087-1.854-12.984 1.587-24.642 3.442-25.438z" fill="#191919" fill-rule="nonzero"/><path d="m1104.3 467.07c-3.971 4.241-17.487 8.746-25.967 12.454-16.162 7.421-15.895 7.683-16.425 7.154-1.062-2.121 51.667-29.412 42.392-19.608z" fill="#191919" fill-rule="nonzero"/><path d="m1043.9 505.75c0.529 37.363 19.87 36.3 18.283 39.746-1.858 3.975-26.762-14.837-19.608-37.362 0.262-1.059 0.529-1.855 1.325-2.384z" fill="#191919" fill-rule="nonzero"/><path d="m1048.7 504.17c9.271 31.266 27.025 25.966 25.967 29.941-0.267 1.325-1.592 0.796-2.65 0.529-9.804-2.916-17.754-7.95-21.729-18.016-1.059-3.179-3.442-9.542-1.588-12.454z" fill="#191919" fill-rule="nonzero"/><path d="m1084.2 414.34c0.529-6.889 19.345-21.992 20.666-19.873 0.534 0.795-7.683 9.01-9.8 11.13-5.3 5.299-7.154 8.744-8.479 10.333-0.796 1.059-2.387 0.796-2.387-1.59z" fill="#191919" fill-rule="nonzero"/><path d="m1043.6 567.5c-4.504-1.854-4.771-1.854-5.3-2.65-2.383-5.829-7.683-21.729-6.892-27.558 0.267-1.325 1.859-1.588 2.121-0.263 3.713 17.488 5.567 21.196 10.071 30.471z" fill="#191919" fill-rule="nonzero"/><path d="m1063.8 353.13c-2.116-0-2.383-1.855-1.058-3.179 4.771-4.24 6.358-5.831 10.6-12.455 11.925-18.813 0.529 15.104-9.542 15.634z" fill="#191919" fill-rule="nonzero"/><path d="m1019.8 366.91c-1.854-5.3 2.917-13.779 8.479-15.898 4.242-1.59 11.129-0 10.867 2.119-0.267 1.325-2.121 1.325-3.179 1.06-9.013-1.855-14.575 7.419-15.371 11.923-0.267 0.265-0.263 0.531-0.796 0.796z" fill="#191919" fill-rule="nonzero"/><path d="m1083.4 372.21c-0 1.855-0 3.445-1.592 3.975-1.591 0.795-2.916 0-4.242-1.06-5.562-4.505-2.116-12.719 2.121-9.274 2.121 2.12 3.713 3.974 3.713 6.359z" fill="#191919" fill-rule="nonzero"/><path d="m1054.2 377.24c-0 0.53-0 1.325-0.796 1.59-0.792 0.265-1.058-0.529-1.587-1.059-10.334-21.993 0.529-11.659 2.383-0.531z" fill="#191919" fill-rule="nonzero"/><path d="m972.34 436.87c-10.863-42.133 42.396-78.699 77.904-50.347 45.046 35.772 0.262 104.66-51.933 82.405-0.534-0.263-0.796-0.263-1.063-0.792 0.529-2.387 1.592-4.771 1.592-7.154-0-0.533 0.262-0.796 0.529-1.062 8.479 3.975 6.887 2.65 13.779 4.504-0.796 1.591-1.325 2.387 0.262 2.65 38.688 4.504 65.184-39.217 38.955-69.157-20.404-23.318-59.621-17.223-72.075 15.634-0.529 1.324 0.529 1.324 2.121 1.324-1.059 7.153-2.384 10.07-0.267 22.257-0.792-1.058-1.854-1.325-2.913-0.796-2.383 1.063-4.504 0.534-6.891 0.534z" fill="#78c9f4" fill-rule="nonzero"/><path d="m1013.2 464.95c32.063 3.975 53.792-26.496 45.046-51.669-12.717-37.096-63.858-34.446-76.046 2.12-1.592-0.265-2.65 0-2.121-1.325 12.454-32.856 51.671-38.951 72.071-15.634 26.233 29.941-0.262 73.929-38.95 69.158-1.325-0.529-0.792-1.325 0-2.65z" fill="#191919" fill-rule="nonzero"/><path d="m999.37 460.18c-0.792 1.059-0.529 2.384-2.117 1.588-10.866-6.888-14.841-14.838-18.283-24.909 5.562-3.441-0.796 8.48 20.4 23.321z" fill="#191919" fill-rule="nonzero"/><path d="m1023.2 400.56c-0-6.359 7.417-3.974 9.275 3.445 1.321 6.095-8.217 4.77-9.275-3.445z" fill="#191919" fill-rule="nonzero"/></g></g></svg>
