<?xml version="1.0" encoding="UTF-8" standalone="no"?><!DOCTYPE svg PUBLIC "-//W3C//DTD SVG 1.1//EN" "http://www.w3.org/Graphics/SVG/1.1/DTD/svg11.dtd"><svg width="100%" height="100%" viewBox="0 0 14325 3475" version="1.1" xmlns="http://www.w3.org/2000/svg" xmlns:xlink="http://www.w3.org/1999/xlink" xml:space="preserve" xmlns:serif="http://www.serif.com/" style="fill-rule:evenodd;clip-rule:evenodd;stroke-linecap:round;"><g><g><clipPath id="_clip1"><rect x="0" y="-0.154" width="14322.9" height="3476.3"/></clipPath><g clip-path="url(#_clip1)"><rect x="0" y="0" width="14322.9" height="3492.73" style="fill:#fff;"/><g><g><clipPath id="_clip2"><rect x="-54.167" y="-8.485" width="14427.1" height="9036.63"/></clipPath><g clip-path="url(#_clip2)"><path d="M6679.83,1435.94c1180.75,890.559 2660.25,-108.544 4544.79,1159.19c1045.8,703.422 843.942,1181.8 1814.65,1782.08c1463.85,905.324 3905.47,1043.76 5633.12,-324.304c1941.49,-1537.34 1845.83,-4077.67 1826.39,-4593.89c-140.971,-3750.34 -3703.44,-5837.73 -4061.25,-6039.89c-2896.98,-1636.61 -7621.58,-1877.57 -9769.29,1006.09c-1632.88,2192.4 -1524.27,5852.41 11.596,7010.81l-0,-0.088l-0.013,-0.005Z" style="fill:#aaf9f9;fill-rule:nonzero;"/><path d="M5753.71,1431.34c1266.82,955.437 2854.04,-116.502 4875.92,1243.6c1121.93,754.705 905.4,1267.84 1946.81,1911.95c1570.45,971.252 4189.96,1119.75 6043.54,-348.009c2082.81,-1649.24 1980.38,-4374.66 1959.38,-4928.52c-151.392,-4023.49 -3973.21,-6263.02 -4357.12,-6479.85c-3107.97,-1755.74 -8176.71,-2014.38 -10481,1079.38c-1751.77,2352.06 -1635.26,6278.75 12.462,7521.46l0.021,-0.004Z" style="fill:#c6fbfb;fill-rule:nonzero;"/><path d="M4827.5,1426.75c1352.78,1020.32 3047.74,-124.372 5206.96,1328.02c1198.16,805.971 966.875,1353.92 2079.05,2041.7c1677.15,1037.2 4474.46,1195.79 6453.88,-371.601c2224.3,-1761.23 2114.75,-4671.75 2092.36,-5263.19c-161.63,-4296.72 -4242.92,-6688.18 -4652.88,-6919.78c-3319,-1875 -8731.96,-2151.14 -11192.6,1152.65c-1870.85,2511.78 -1746.34,6705.04 13.263,8032.2l-0.042,0.008Z" style="fill:#e3fdfd;fill-rule:nonzero;"/><path d="M3901.39,1422.06c1438.82,1085.2 3241.53,-132.238 5538,1412.43c1274.27,857.15 1028.42,1440.02 2211.2,2171.57c1783.73,1103.13 4758.96,1271.79 6864.17,-395.214c2365.62,-1873.22 2249.13,-4968.75 2225.52,-5597.74c-171.875,-4569.85 -4512.71,-7113.42 -4948.75,-7359.79c-3530.07,-1994.16 -9287.17,-2287.89 -11904.3,1225.92c-1989.74,2671.5 -1857.31,7131.37 14.063,8542.85l0.083,0l0.008,-0.02Z" style="fill:#fff;fill-rule:nonzero;"/><path d="M5333.62,915.57c1271.82,959.234 3014.55,56.392 5044.42,1421.8c1126.41,757.713 1087.15,1375.4 2132.69,2022c1576.68,975.15 4201.29,1045.15 6062.17,-428.443c2091.15,-1655.78 1880.9,-4490.9 1848.09,-5045.31c-244.446,-4122.65 -4047.14,-6226.86 -4432.54,-6444.57c-3120.36,-1762.73 -8303.33,-2051.7 -10616.8,1054.35c-1758.89,2361.43 -1692.33,6172.49 -38.108,7420.15l0.033,0.03Z" style="fill:#ddf1fc;fill-rule:nonzero;"/><path d="M6765.88,409.076c1104.81,833.28 2787.48,245.027 4550.83,1431.17c978.542,658.166 1145.9,1310.78 2054.1,1872.52c1369.72,847.065 3643.7,818.519 5260.25,-461.587c1816.67,-1438.43 1512.15,-4013.23 1470.49,-4493.04c-319.617,-3675.83 -3581.41,-5340.17 -3916.22,-5529.32c-2710.64,-1531.33 -7319.62,-1815.5 -9329.29,882.689c-1527.87,2051.35 -1527.24,5213.69 -90.175,6297.58l0.017,-0.017Z" style="fill:#bbe4f9;fill-rule:nonzero;"/><path d="M8198.12,-97.506c937.796,707.323 2560.42,433.657 4057.29,1440.54c830.658,558.738 1204.63,1246.17 1975.59,1722.96c1162.67,719.086 3086.02,591.874 4458.25,-494.74c1542.01,-1221.06 1143.05,-3535.54 1093.05,-3940.56c-398.437,-3228.99 -3115.74,-4453.61 -3399.89,-4614.11c-2300.94,-1299.91 -6335.92,-1579.24 -8041.79,711.111c-1297.1,1741.17 -1362.34,4254.81 -142.517,5174.81l0.017,-0.008Z" style="fill:#9ad6f7;fill-rule:nonzero;"/><path d="M9630.38,-604c770.867,581.361 2333.42,622.291 3563.7,1449.91c682.708,459.204 1263.39,1181.46 1897.1,1573.39c955.625,591.085 2528.28,365.154 3656.41,-527.968c1267.36,-1003.62 772.742,-3057.69 715.275,-3388.2c-483.333,-2781.56 -2649.93,-3567.01 -2883.5,-3698.98c-1891.22,-1068.42 -5352.08,-1343.05 -6754.29,539.45c-1066,1431.27 -1197.27,3296.09 -194.583,4052.3l-0.083,0.088l-0.017,-0Z" style="fill:#78c9f4;fill-rule:nonzero;"/><path d="M11062.6,-1110.58c603.854,455.487 2106.35,810.917 3070.14,1459.28c534.845,359.763 1322.14,1116.85 1818.6,1423.92c748.663,463.001 1970.71,138.521 2854.39,-561.116c992.708,-786.167 401.388,-2579.58 337.675,-2835.83c-579.517,-2331.28 -2184.2,-2680.35 -2367.19,-2783.76c-1481.6,-836.997 -4368.38,-1106.87 -5466.79,367.88c-835.138,1121.28 -1032.19,2337.3 -246.821,2929.71l0,-0.088Z" style="fill:#56bbf1;fill-rule:nonzero;"/><path d="M12444.5,-1053.57c477.412,360.112 1686.89,570.044 2448.97,1082.64c422.879,284.451 1028.25,909.033 1420.75,1151.77c591.908,366.123 1617.69,80.791 2298.24,-542.117c730.905,-668.868 293.23,-2002.1 242.884,-2204.79c-458.334,-1843.26 -1727.07,-2119.3 -1871.77,-2200.99c-1171.44,-661.804 -3453.94,-875.188 -4322.46,290.903c-660.33,886.498 -837.709,1954.19 -216.634,2422.59l0.013,0Z" style="fill:#5185de;fill-rule:nonzero;"/><path d="M13826.5,-996.551c351.059,264.735 1267.43,329.085 1827.74,705.993c310.921,209.139 734.254,701.136 1022.87,879.689c435.191,269.157 1267.03,27.314 1742.38,-523.022c471.875,-546.446 184.721,-1424.72 147.741,-1573.66c-336.979,-1355.25 -1269.83,-1558.19 -1376.16,-1618.31c-861.321,-486.593 -2539.51,-643.417 -3178.05,213.909c-485.504,651.807 -643.109,1571.11 -186.513,1915.49l0,-0.088Z" style="fill:#4b4eca;fill-rule:nonzero;"/><path d="M9263.54,581.849l-49.759,21.071c-2.341,0.986 -5.083,-0.13 -6.058,-2.492c-0.987,-2.366 0.121,-5.122 2.467,-6.108l49.758,-21.071c2.358,-0.986 5.083,0.135 6.075,2.496c0.971,2.362 -0.137,5.118 -2.483,6.104Z" style="fill:#56bbf1;fill-rule:nonzero;"/><path d="M9081.08,253.233c2.155,-8.864 12.917,-4.006 24.325,10.567c11.425,14.574 18.855,33.745 16.63,42.604c-2.205,8.864 -12.896,4.007 -24.321,-10.567c-11.409,-14.577 -18.838,-33.547 -16.634,-42.604Z" style="fill:#56bbf1;fill-rule:nonzero;"/><path d="M9240.92,301.282c-20.679,10.769 3.575,-71.024 24.183,-81.596c20.608,-10.567 -3.596,70.832 -24.183,81.596Z" style="fill:#56bbf1;fill-rule:nonzero;"/><path d="M9328.04,400.669c-9.463,-1.967 -3.854,-13.193 12.779,-25.14c16.633,-11.948 37.571,-20.086 47.012,-18.181c9.463,1.9 3.788,13.063 -12.775,25.14c-16.566,12.077 -37.762,20.22 -47.016,18.181Z" style="fill:#56bbf1;fill-rule:nonzero;"/><path d="M9027.08,428.641c12.259,15.358 -49.429,19.955 -62.275,9.124c-6.458,-5.449 1.234,-13.655 19.167,-17.136c17.621,-3.411 37.5,1.053 43.108,8.012Z" style="fill:#56bbf1;fill-rule:nonzero;"/><path d="M9085.71,547.06c9.321,1.313 4.946,13.13 -11.875,25.342c-16.825,12.207 -39.254,17.984 -48.316,14.506c-19.946,-7.744 42.258,-42.34 60.121,-39.781l0.07,-0.067Z" style="fill:#56bbf1;fill-rule:nonzero;"/><path d="M9184.83,326.691c-54.633,-3.087 -103.816,33.476 -116.925,86.978c-13.37,62.887 26.421,124.724 88.888,138.182c4.304,0.919 8.683,1.577 13.037,2.039c4.638,0.327 5.159,2.227 25.905,21.792c3.645,3.545 8.991,4.594 13.679,2.689l41.666,-16.213c4.829,-1.708 8.092,-6.234 8.163,-11.356c2.533,-33.085 1.233,-33.937 4.041,-37.222c63.317,-73.848 10.038,-181.18 -78.52,-186.759l0.066,-0.13Zm-79.546,106.082c-4.187,20.547 0.9,24.746 3.976,41.161c0.12,0.26 -0.001,0.587 0.12,1.049c0.4,2.953 0.071,7.55 -3.387,7.353c-1.492,-0.264 -2.863,-0.985 -3.904,-2.034c-13.317,-11.033 -21.129,-27.444 -21.459,-44.773c0.78,-23.303 11.075,-45.293 28.438,-60.785c11.596,-11.032 26.667,-17.66 42.571,-18.843c9.129,0.394 8.679,4.069 2.15,9.782c-10.817,8.138 -20.729,17.464 -29.6,27.767c-9.321,11.422 -15.85,24.88 -18.904,39.323Zm135.104,111.531c0.137,2.492 -1.754,4.724 -4.238,4.858c-2.204,0.13 -4.237,-1.38 -4.758,-3.545l-11.546,-84.813c-7.687,11.813 -21.908,17.459 -35.537,14.179c-11.805,-2.958 -24.184,-1.511 -35.017,4.069l59.742,75.949c1.562,1.972 1.229,4.858 -0.663,6.502c-2.012,1.443 -4.754,1.179 -6.458,-0.658l-60.763,-76.998c-2.741,-3.352 -2.362,-8.273 0.971,-11.033c0.454,-0.39 0.975,-0.722 1.563,-1.049c13.108,-7.152 28.37,-9.124 42.85,-5.449c11.075,2.034 22.291,-3.214 27.775,-13.126c2.675,-3.545 7.691,-4.204 11.145,-1.51c1.705,1.313 2.813,3.213 3.075,5.315l11.805,87.242l0.054,0.067Z" style="fill:#56bbf1;fill-rule:nonzero;"/><path d="M8712.88,1840.23l-37.604,52.143c-1.808,2.496 -5.208,3.041 -7.708,1.238c-2.517,-1.783 -3.021,-5.244 -1.234,-7.761l37.588,-52.139c1.804,-2.5 5.208,-3.041 7.725,-1.259c2.5,1.8 3.004,5.244 1.233,7.778Z" style="fill:#56bbf1;fill-rule:nonzero;"/><path d="M8327.12,1620.1c-3.262,-10.282 10.608,-12.081 31.113,-4.3c20.537,7.753 39.741,22.552 42.933,32.889c3.196,10.34 -10.608,12.085 -31.108,4.299c-20.542,-7.752 -39.621,-22.35 -42.938,-32.888Z" style="fill:#56bbf1;fill-rule:nonzero;"/><path d="M8518.5,1569.84c-14.325,23.714 -39.812,-74.2 -25.296,-97.679c14.513,-23.484 39.6,74.024 25.296,97.679Z" style="fill:#56bbf1;fill-rule:nonzero;"/><path d="M8667.5,1616.59c-10.763,3.846 -11.946,-10.949 -2.379,-33.396c9.517,-22.414 25.8,-43.624 36.562,-47.563c10.746,-3.943 11.788,10.911 2.413,33.367c-9.375,22.456 -25.938,43.862 -36.563,47.562l-0.033,0.03Z" style="fill:#56bbf1;fill-rule:nonzero;"/><path d="M8379.5,1831.34c21.808,7.932 -37.917,50.842 -57.55,47.856c-9.896,-1.502 -7.083,-14.632 8.975,-29.26c15.8,-14.334 38.679,-22.2 48.575,-18.596Z" style="fill:#56bbf1;fill-rule:nonzero;"/><path d="M8511.33,1915.06c10.225,-4.404 13.021,10.295 3.438,33.002c-9.567,22.686 -28.821,42.579 -40.088,44.605c-24.929,4.493 16.946,-69.078 36.65,-77.607Z" style="fill:#56bbf1;fill-rule:nonzero;"/><path d="M8477.12,1630.28c-57.275,30.758 -84.775,98.166 -65.421,160.57c24.863,71.994 102.988,110.08 174.5,85.053c4.946,-1.733 9.775,-3.725 14.479,-6.016c4.913,-2.533 6.563,-0.872 39.53,6.066c5.87,1.347 11.945,-0.91 15.537,-5.785l32.346,-42.264c3.8,-4.685 4.375,-11.276 1.337,-16.553c-17.641,-35.099 -19.462,-35.133 -18.645,-40.288c19.062,-114.116 -100.505,-189.822 -193.663,-140.72l0,-0.063Zm-15.783,156.828c8.333,23.438 16.058,24.558 29.2,39.294c0.279,0.156 0.312,0.609 0.854,0.961c2.167,2.744 4.704,7.639 1.058,9.506c-1.683,0.684 -3.508,0.822 -5.262,0.369c-20.225,-3.008 -38.192,-14.699 -49.15,-32.091c-13.471,-24.138 -16.459,-52.806 -8.35,-79.226c5.037,-18.366 16.2,-34.432 31.666,-45.457c9.463,-5.277 11.234,-1.241 8.163,8.646c-5.938,14.98 -10.333,30.527 -13.042,46.463c-2.516,17.363 -0.833,35.016 4.879,51.569l-0.016,-0.034Zm205.07,29.399c1.684,2.449 1.13,5.839 -1.337,7.567c-2.188,1.523 -5.138,1.242 -6.979,-0.663l-63.509,-78.776c-0.608,16.725 -11.579,31.269 -27.395,36.391c-13.734,4.283 -25.467,13.474 -32.967,25.815l106.979,40.045c2.775,1.083 4.234,4.162 3.317,6.972c-1.167,2.694 -4.133,4.145 -6.946,3.34l-108.629,-40.465c-4.863,-1.64 -7.429,-6.922 -5.763,-11.779c0.259,-0.701 0.555,-1.38 0.971,-1.976c8.904,-15.362 23.229,-26.793 40.088,-32.02c12.516,-4.808 20.608,-17.078 20.154,-30.573c0.558,-5.21 5.208,-9.002 10.417,-8.423c2.5,0.251 4.791,1.522 6.354,3.507l65.279,81.054l-0.033,-0.016Z" style="fill:#56bbf1;fill-rule:nonzero;"/><path d="M11014.8,1108.42c-290.834,-204.004 -420.763,-123.604 -550.679,-170.403c-54.825,-20.4 -83.438,-122.404 -141.838,-276.007c-7.154,-18 -7.154,-34.797 3.575,-50.402c27.413,-39.6 20.258,-68.399 30.992,-73.202c15.5,-7.198 71.508,-50.398 65.554,-110.398c-3.579,-33.602 -33.371,-78.001 -66.754,-82.804c-7.154,-1.2 14.304,-33.598 -4.759,-53.998c-33.383,-36.001 -67.95,-18 -70.329,-20.4c-3.575,-3.603 15.504,-56.405 -17.883,-73.206c-57.204,-29.998 -73.888,-7.198 -75.083,-19.2c-3.58,-32.402 -38.146,-46.799 -67.938,-47.999c-34.562,-2.399 -39.337,21.6 -42.917,20.4c-3.575,-8.398 -8.333,-16.8 -11.908,-25.199c-19.079,-39.604 -59.6,-52.806 -96.562,-43.204c-61.98,15.601 -75.088,69.603 -78.663,70.803c-3.575,1.2 -27.412,-24 -81.042,-15.601c-47.691,7.203 -79.862,50.402 -75.104,97.205c2.396,21.6 -3.575,5.999 -51.25,31.198c-77.466,40.8 -64.358,138.005 -13.108,190.807c5.954,5.999 1.2,7.199 -9.529,20.396c-35.767,44.404 9.529,92.406 67.933,99.605c9.529,1.2 3.575,-1.204 41.717,81.6c-78.663,1.2 -157.342,39.6 -206.196,121.205c-107.275,182.4 69.129,399.606 271.754,328.804c2.375,-1.2 4.771,-2.399 5.954,2.4c4.775,12.001 28.609,64.803 44.113,88.803c1.183,1.199 3.579,31.202 7.154,50.398c-10.729,3.603 -27.429,7.202 -42.917,12.001c-1.2,-4.799 -218.125,-109.198 -265.8,-115.201c-41.717,-4.799 -57.221,27.598 -98.942,127.203c-41.716,-20.4 -206.195,-88.799 -243.141,-61.204c-20.275,14.401 -21.459,32.402 -45.296,100.804c-11.925,33.602 -23.833,60.001 -51.267,165.604c-114.408,435.617 -103.679,415.2 -19.062,470.418c40.521,26.39 144.221,80.384 153.766,82.796c26.217,86.399 96.546,143.991 202.626,146.403c10.729,0 52.445,-16.796 76.283,-28.802c4.775,5.994 5.954,9.594 10.729,12.006c320.625,170.403 327.779,139.201 491.075,-100.817c13.108,-19.192 54.829,-73.202 75.088,-103.196c221.7,405.614 746.145,439.211 1014.34,150.003c218.125,-234.007 296.788,-696.014 -134.687,-999.619Zm-1065.59,61.2c-45.296,-97.201 -51.25,-92.402 -44.096,-97.201c34.567,-26.403 59.6,-56.401 78.663,-98.401c11.925,7.199 52.445,21.6 83.437,23.999c65.554,3.6 83.438,-20.4 88.196,-8.398c7.15,22.8 9.546,46.799 9.546,70.798c-67.95,25.199 -150.192,60.005 -215.746,109.203Z" style="fill:#fff;fill-rule:nonzero;"/><path d="M10300.6,673.005c0,34.537 12.308,66.658 19.792,99.832c3.629,16.07 12.016,32.888 18.908,47.642c9.25,19.796 15.4,40.703 26.163,59.878c11.629,20.715 20.904,43.666 31.945,64.909c1.646,3.188 5.588,12.866 5.484,9.271c-0.154,-5.504 -1.525,-10.815 -2.638,-16.18c-3.404,-16.348 -9.116,-31.76 -14.116,-47.642c-5.571,-17.699 -16.684,-30.208 -23.8,-46.363c-6.459,-14.624 -13.263,-29.167 -20.384,-43.502c-5,-10.059 -10.066,-19.938 -14.896,-30.186c-5.104,-10.865 -7.237,-21.793 -11.458,-32.847c-2.05,-5.344 -9.287,-21.52 0.088,-11.54c4.391,4.665 7.845,14.988 7.845,21.306" style="fill:none;fill-rule:nonzero;stroke:#eec9aa;stroke-width:52.26px;"/><path d="M10278.5,813.028c6.18,63.738 34.567,118.025 56.492,176.083c3.667,9.716 8.542,19.192 11.233,29.348c1.354,5.139 -1.908,7.123 -5.296,10.441c-4.408,4.33 -34.687,38.17 -39.687,24.251c-5.138,-14.304 -9.408,-28.945 -14.337,-43.321c-6.025,-17.509 -13.351,-34.39 -17.538,-52.613c-0.9,-3.935 -4.2,-15.475 -2.604,-11.838c2.779,6.297 1.391,16.323 1.962,23.097c0.992,11.675 1.946,23.454 1.946,35.188c0,2.575 1.579,11.418 -0.279,4.685c-2.621,-9.442 -8.904,-10.336 -14.704,-15.458c-1.546,-1.355 -10.729,-7.794 -12.1,-6.41c-2.85,2.869 0.017,22.842 1.3,26.307c2.9,7.802 3.525,0.096 1.667,-3.7c-1.459,-2.966 0.541,-1.338 1.37,0.822c2.034,5.269 5.334,9.199 7.105,14.716c2.791,8.658 9.129,16.066 9.129,25.895c-0,6.742 1.304,13.16 1.304,19.977c-0,6.653 -4.688,22.191 3.904,22.191" style="fill:none;fill-rule:nonzero;stroke:#eec9aa;stroke-width:191.61px;"/><path d="M10180.8,980.193l10.575,-0" style="fill:none;fill-rule:nonzero;stroke:#eec9aa;stroke-width:52.26px;"/><path d="M10205.4,1037c-2.275,0.289 -2.242,5.076 -3.125,7.106c-0.609,1.368 -0.4,2.979 -0.4,4.438c-0,1.439 -2.204,4.242 -0.784,4.242c1.425,-0 0.784,-17.053 0.784,-19.335" style="fill:none;fill-rule:nonzero;stroke:#eec9aa;stroke-width:52.26px;"/><path d="M10187.8,1038.78c-0.625,5.684 1.441,10.491 1.754,15.982c0.312,5.08 6.733,8.411 7.062,14.204c0.921,16.608 -1.77,32.419 -1.77,48.632c-0,17.64 6.166,28.82 17.641,42.021c8.992,10.337 14.063,24.906 24.792,33.539c7.237,5.839 58.992,30.254 63.383,21.407" style="fill:none;fill-rule:nonzero;stroke:#eec9aa;stroke-width:52.26px;"/><path d="M10196.6,1150.64c0,13.793 16.25,24.721 23.909,34.621c5.8,7.517 18.662,14.422 27.237,18.252c7.346,3.293 16.546,3.562 22.917,9.271c14.167,12.681 42.987,16.524 60.854,12.526c21.838,-4.887 44.008,-10.898 58.296,-29.394c10.766,-13.931 24.062,-25.597 35.662,-38.568c5.034,-5.638 7.134,-12.505 12.342,-17.757c5.554,-5.601 10.296,-15.765 14.117,-22.687c8.312,-15.081 15.987,-32.053 19.687,-48.829c1.542,-7.005 5.396,-15.999 5.396,-23.085c0,-7.807 5.279,-13.633 5.279,-21.306c0,-9.799 13.925,-42.226 -0.383,-46.656c-11.229,-3.478 -25.313,-2.542 -35.763,-8.386c-5.85,-3.272 -15.921,-5.16 -20.279,-10.655c-3.262,-4.09 -3.071,-4.27 -1.771,0.986c2.588,10.387 6.146,22.158 10.575,31.865c1.979,4.333 2.988,9.145 5.296,13.218c1.754,3.079 7.983,-0.847 10.192,1.38c5.466,5.5 -6.979,36.601 -8.821,43.993c-3.3,13.285 -7.763,28.387 -13.317,40.842c-18.854,42.163 -50.504,72.488 -90.241,94.99c-10.505,5.948 -18.213,9.229 -30.175,6.217c-20.884,-5.252 -37.396,-21.117 -57.325,-28.408c-1.771,-0.65 -12.45,-5.328 -8.525,-5.328c18.887,0 37.204,1.821 56.337,0.394c13.783,-1.027 26.283,0.08 39.096,-5.818c20.312,-9.35 40.225,-19.775 56.529,-35.808c9.775,-9.594 25.171,-26.479 28.608,-40.347c3.284,-13.197 -8.833,-0.621 -15.275,4.241c-25.141,18.986 -50.783,35.2 -78.683,49.618c-2.204,1.145 -15.379,7.387 -15.379,6.414" style="fill:none;fill-rule:nonzero;stroke:#eec9aa;stroke-width:52.26px;"/><path d="M9854.08,1263.92c0,11.725 -5.712,24.528 -2.916,36.455c3.579,15.299 7.658,30.908 9.583,46.484c1.338,10.676 7.954,24.557 13.092,33.782c10.154,18.265 15.729,40.187 28.054,57.252c8.925,12.338 15.262,28.102 27.9,37.281c9.271,6.754 18.596,12.757 27.971,19.053" style="fill:none;fill-rule:nonzero;stroke:#eec9aa;stroke-width:52.26px;"/><path d="M9958.96,412.604c8.421,-0 15.955,1.841 23.734,5.004c25.137,10.211 48.716,22.187 72.604,35.015c20.367,10.937 32.342,18.223 43.3,38.074c1.612,2.928 -6.65,-1.309 -9.533,-2.958c-23.23,-13.226 -43.317,-31.877 -64.184,-48.388c-40.279,-31.844 -81.925,-61.888 -122.604,-93.204c-11.979,-9.224 25.833,15.887 39.654,21.948c23.488,10.299 48.263,17.514 72.1,26.949c15.4,6.095 32.758,11.766 45.921,22.258c8.087,6.431 -2.571,7.824 -8.508,8.063c-21.338,0.86 -42.342,-2.874 -63.471,-5.001c-0.192,-0.021 -9.254,-1.686 -6.913,1.225c9.1,11.213 26.754,18.232 39.15,24.293c29.517,14.439 60.35,24.524 92.275,32.058c9.029,2.131 25.417,5.537 34.88,7.35c3.037,0.578 22.133,6.237 25.954,3.674c3.158,-2.118 -6.596,-3.838 -10.138,-5.206c-9.204,-3.565 -18.141,-6.556 -27.587,-9.497c-28.125,-8.755 -56.946,-15.882 -85.784,-21.843c-8.937,-1.85 -14.945,-2.89 -23.712,-4.082c-3.142,-0.428 -12.309,-0.667 -9.342,-1.736c8.679,-3.126 20.763,-0.76 29.808,-1.33c5.68,-0.353 24.95,0.025 27.988,-6.737c4.775,-10.567 -53.367,-10.244 -58.3,-9.905c-3.75,0.265 -54.688,8.848 -38.421,15.215c14.758,5.781 62.604,8.969 47.242,5.102c-32.259,-8.118 -68.125,-8.781 -101.2,-8.781c-2.221,0 -8.904,0 -6.683,0c18.387,0 36.77,-0.037 55.158,0.412c36.492,0.889 73.054,2.269 109.512,4.287c18.767,1.04 39.288,1.254 57.588,6.33c9.512,2.639 -18.283,11.268 -20.279,11.943c-9.255,3.15 -18.767,5.277 -28.088,8.168c-3.646,1.132 -10.904,5.591 -7.187,-1.125c10.795,-19.569 24.791,-37.339 37.1,-55.943c3.108,-4.682 3.333,-5.148 2.237,0.411c-3.4,17.274 -5.225,35.082 -7.1,52.571c-1.562,14.581 -2.029,29.041 -2.029,43.694c-0,9.032 -3.092,24.788 0.417,33.384c0.066,0.197 3.487,-8.503 3.645,-8.986c2.084,-6.359 4.355,-12.681 4.963,-19.397c0.8,-8.877 -24.425,21.755 -26.267,23.89c-10.241,11.909 -20.504,23.789 -30.712,35.728c-2.846,3.319 -6.492,7.908 -4.984,0.818c5.105,-23.722 6.6,-48.72 14.413,-71.767c3.317,-9.795 0.712,5.386 0.608,7.043c-0.783,11.788 -0.783,23.891 0.604,35.628c0.646,5.496 0.784,20.354 8.925,16.029c9.496,-5.051 16.059,-13.973 24.742,-20.215" style="fill:none;fill-rule:nonzero;stroke:#eec9aa;stroke-width:52.26px;"/><path d="M9765.5,469.571c0,14.8 -7.292,30.418 -7.292,45.943c0,5.663 -2.779,20.92 0.4,25.317c3.767,5.218 0.73,18.231 5.971,22.455c2.067,1.657 4.567,16.34 4.567,19.297c-0,7.564 3.662,14.225 3.662,22.049c0,9.824 6.13,30.228 12.363,38.077c2.779,3.503 7.467,15.794 13.175,16.13c5.696,0.34 32.867,10.873 32.867,6.942c-0,-5.965 -2.517,-12.165 -3.663,-17.967c-2.954,-15.059 -4.462,-30.405 -5.071,-45.733c-1.283,-33.467 -4.046,-67.417 -4.046,-100.859c0,-55.743 -1.82,111.472 -1.82,167.215c-0,36.756 1.025,-73.626 -2.034,-110.252c-2.171,-25.929 -4.929,-52.189 -9.737,-77.791c-2.084,-11.117 -3.267,3.83 -3.75,7.249c-2.621,18.449 -2.746,74.477 -2.746,55.839c-0,-20.266 1.375,-39.936 0.104,-60.227c-0.521,-8.507 -2.083,13.21 -2.117,13.474c-4.67,30.195 -7.62,60.663 -10.658,91.06c-2.604,26.034 -4.933,52.445 -2.725,78.605c0.588,7.211 0.708,17.694 4.458,24.297c0.784,1.384 7.417,-9.401 7.605,-9.699c8.683,-14.292 14.395,-30.69 19.566,-46.551c3.267,-10.018 6.304,-20.161 8.317,-30.522c1.008,-5.248 0.504,-10.207 2.829,-14.905" style="fill:none;fill-rule:nonzero;stroke:#eec9aa;stroke-width:52.26px;"/><path d="M9825.75,464.055c1.667,50.448 12.692,106.975 31.946,154.353c4.983,12.266 9.304,30.812 10.033,44.101c0.054,0.844 -0.104,9.712 1.825,6.326c10.379,-18.277 12.692,-39.898 15.521,-60.432c2.983,-21.722 1.004,-43.258 3.142,-64.925c0.345,-3.688 0.504,-8.466 1.508,-12.048c0.833,-2.928 2.017,5.78 2.537,8.78c2.255,12.761 3.767,25.639 5.484,38.484c4.029,30.372 7.604,59.682 8.316,90.347c0.538,23.693 8.371,-46.677 10.938,-70.232c4.358,-39.948 10.954,-160.239 10.954,-120.055c0,44.684 -12.654,89.478 -9.929,134.242c0.054,0.919 0.937,9.569 1.217,8.881c6.145,-15.458 12.483,-30.778 17.845,-46.551c7.05,-20.723 16.13,-41.526 21.096,-62.883c0.242,-1.048 0.779,-4.224 0.604,-3.167c-1.3,7.845 -3.07,15.597 -4.666,23.379c-13.146,64.161 -27.484,130.404 -24.446,196.206c0.05,0.91 -0.383,9.669 1.925,4.493c6.112,-13.676 6.912,-30.98 9.533,-45.528c3.75,-20.711 13.213,-83.14 10.45,-62.274c-3.108,23.513 -10.729,50.276 -7.1,74.011c2.554,16.642 11.442,-66.305 7.604,-49.92c-1.441,6.205 -2.22,25.363 -2.22,18.991c-0,-30.581 -17.746,-63.608 -29.809,-90.858c-8.058,-18.148 -16.721,-36.077 -25.054,-54.103c-4.062,-8.784 -9.321,-15.819 -16.321,-22.459c-3.696,-3.503 -12.15,-15.329 -17.446,-16.13c-5.45,-0.826 -6.25,29.377 -6.283,31.848c-0.279,22.959 8,39.865 21.996,57.475c7.725,9.707 16.387,16.721 26.875,23.379c4.6,2.919 13.279,8.041 15,13.272" style="fill:none;fill-rule:nonzero;stroke:#eec9aa;stroke-width:52.26px;"/><path d="M9895.12,675.379c0,8.453 7.604,13.873 14.2,18.374c6.875,4.703 11.304,14.263 18.646,17.967c12.5,6.289 18.458,13.466 28.3,23.379c3.108,3.133 3.229,7.408 7.1,10.005c1.858,1.25 4.254,3.049 5.679,4.795c4.512,5.57 11.65,17.513 13.679,24.708c1.65,5.806 2.467,11.578 3.75,17.455c2.188,9.841 9.167,16.822 14.096,25.216c13.646,23.24 11.354,48.812 11.354,74.93c0,21.445 1.025,42.742 -3.542,63.394c-1.02,4.661 -3.8,8.273 2.642,8.273l17.342,-0c12.571,-0 25.8,0.205 37.5,3.569c4.829,1.389 11.304,-1.736 16.441,-1.736c10.225,-0 22.084,-1.192 31.93,-3.675c11.266,-2.836 24.145,-6.766 34.583,-11.431c9.875,-4.422 22.917,-2.899 31.021,-10.618c8.041,-7.643 16.008,-12.471 21.912,-22.866c3.625,-6.406 14.825,-12.12 21.092,-15.723c9.412,-5.416 18.333,-17.942 23.108,-27.561c3.821,-7.698 25.904,-71.285 17.846,-75.341" style="fill:none;fill-rule:nonzero;stroke:#eec9aa;stroke-width:52.26px;"/><path d="M9964.54,711.746c27.846,28.605 50.121,61.619 62.983,100.045c6.042,18.055 18.35,43.871 12.308,63.767c-3.229,10.601 -2.1,27.108 -2.671,38.103c-0.312,6.347 -1.77,12.476 -1.77,19.095c-0,9.405 5.97,-9.275 7.1,-12.228c12.5,-32.834 4.633,-69.846 1.771,-103.682c-4.013,-47.009 -12.05,-93.975 -20.488,-140.372c-9.737,-53.729 -11.404,-106.17 -11.404,-160.884c-0,-10.135 -6.042,19.33 -8.267,29.209c-10.416,46.069 -17.5,91.299 -21.458,138.446c-0.209,2.542 -0.396,17.174 -0.396,6.469c-0.004,-24.893 -0.679,-49.618 -1.671,-74.482c-0.171,-4.27 1.009,-15.303 -1.091,-4.849c-2.83,14.158 -4.325,28.303 -4.325,42.751c-0,37.859 4.916,-75.56 7.97,-113.289c2.013,-24.717 -5.362,13.654 -6.195,18.898c-4.38,27.708 -5.367,55.336 -7.971,83.169c-0.384,4.078 -0.888,17.46 1.771,5.357c5.954,-27.183 10.016,-56.774 12.9,-84.482c2.045,-19.842 -1.08,10.865 -1.392,14.552c-2.254,27.364 -3.542,54.602 -3.542,82.058c0,21.977 12.067,-29.201 12.396,-7.274c0.104,6.615 -3.125,39.94 8.875,40.624c2.013,0.113 5.121,-3.734 6.683,-1.011c3.092,5.403 3.384,12.169 4.825,18.088c0.538,2.24 2.659,8.327 2.659,2.526c-0,-5.424 1.771,-21.592 1.771,-16.168c-0.001,9.162 -0.105,18.328 -0.001,27.49c0.259,24.02 5.292,-2.148 6.301,-11.322c4.533,-41.413 6.095,-82.54 6.095,-124.196c0,-26.088 3.263,-54.623 -0.087,-80.543c-3.267,-25.136 -4.446,50.541 -5.038,75.891c-0.329,14.888 -0.379,29.813 0.696,44.668c0.313,4.19 -0.433,11.389 0.888,15.462c0.45,1.401 1.3,-2.651 1.771,-4.044c2.845,-8.247 3.991,-17.346 5.708,-25.87c2.9,-14.393 5.35,-28.907 8.475,-43.25c-0,-0.008 2.567,-11.188 3.142,-12.128c0.345,-0.562 0.52,1.259 0.487,1.918c-0.296,8.041 -3.579,38.077 -3.837,40.628c-3.038,29.784 -6.321,59.471 -6.788,89.436c-0.087,5.508 -1.633,16.155 0,22.028c0.588,2.135 2.896,-3.356 3.833,-5.353c9.046,-19.414 15.488,-40.154 22.642,-60.332c6.233,-17.56 12.463,-35.158 20.067,-52.147c1.112,-2.484 5.158,-12.883 4.341,-3.235c-4.166,49.27 -16.737,97.47 -18.904,147.038c-0.383,9.065 -1.6,23.923 3.646,6.669c13.175,-43.27 24.146,-87.338 36.508,-130.869c0.538,-1.867 10.817,-37.21 8.471,-21.017c-5.937,40.876 -9.354,81.99 -12.396,123.189c-0.154,2.022 -2.237,32.855 1.859,16.977c15.087,-58.356 25.625,-118.709 36.721,-177.963c3.037,-16.209 5.9,-32.523 7.862,-48.913c0.696,-5.654 0.454,-3.62 0,0.81c-4.392,43.942 -11.458,87.532 -15.154,131.579c-1.496,17.799 -5.938,71.003 -2.154,53.561c5.016,-23.19 12.116,-46.262 18.7,-69.024c4.929,-17.069 9.841,-34.134 14.65,-51.237c1.266,-4.497 4.725,-17.573 5.329,-12.937c1.321,10.282 -2.446,24.754 -3.558,34.663c-4.046,36.273 -8.855,72.438 -11.7,108.842c-1.075,13.68 -2.171,27.489 -2.171,41.228c-0,2.265 2.012,-4.069 2.571,-6.263c18.295,-73.269 36.145,-146.672 56.77,-219.295c3.438,-12.044 7.359,-24.201 9.546,-36.585c0.713,-4.031 -1.266,8.092 -1.958,12.128c-9.638,56.015 -16.321,112.45 -22.45,168.968c-1.388,12.837 -2.933,25.703 -3.629,38.607c-0.034,0.704 -0.121,2.793 0.087,2.118c0.713,-2.173 1.284,-4.388 1.979,-6.565c12.205,-38.292 23.509,-76.784 39.167,-113.792c0.696,-1.641 6.2,-15.35 3.142,-3.839c-4.963,18.806 -9.913,37.537 -13.975,56.59c-3.854,18.16 -6.963,36.341 -9.238,54.774c-0.083,0.62 -1.908,15.571 -0.587,13.742c4.962,-6.963 7.133,-17.627 9.737,-25.568c5.871,-17.933 11.875,-35.812 18.004,-53.662c4.95,-14.43 14.638,-32.418 15.367,-48.099c0.379,-8.323 -3.229,2.571 -3.562,5.458c-0.138,1.266 5.158,-27.087 13.004,-27.087c0.696,-0 -0.467,4.191 -0.504,4.547c-0.259,3.176 -0.084,6.418 -0.084,9.602c0,7.321 5.9,-8.553 7.479,-11.116c7.9,-12.904 15.038,-26.638 24.013,-38.808c2.133,-2.898 3.404,-0.18 6.596,-0.91c8.021,-1.833 7.971,-1.699 7.971,7.379l-0,17.283c-0,10.479 -0.784,21.004 -7.084,29.105c-5.625,7.215 -9.637,17.065 -15.558,23.139c-7.046,7.232 -11.021,14.343 -11.021,25.061c0,22.975 -1.271,45.997 -5.208,68.319c-2.121,11.934 -3.196,26.612 -3.646,38.601c-0.575,15.195 -7.083,29.961 -7.083,45.478c-0,14.779 -7.225,60.432 -26.584,60.432" style="fill:none;fill-rule:nonzero;stroke:#eec9aa;stroke-width:52.26px;"/><path d="M10260.1,653.318c-4.425,33.489 -15.033,66.75 -25.137,98.816c-8.525,27.066 -12.571,56.901 -23.213,83.098c-16.042,39.483 -32.362,84.541 -78.492,94.634c-19.737,4.321 -41.875,-0.919 -61.958,-0.919c-1.25,0 -12.987,-0.402 -11.146,-1.43c10.379,-5.802 24.304,-7.463 35.692,-10.412c62.379,-16.146 104.479,-84.608 131.408,-138.836c6.925,-13.952 13.525,-28.026 20.088,-42.159c1.65,-3.562 10.937,-18.794 10.937,-18.479c0,34.378 -7.9,66.649 -15.4,100.146c-5.087,22.607 -9.479,47.755 -23.333,67.069c-4.358,6.078 -9.15,12.698 -15.104,17.354c-2.484,1.947 -1.979,2.681 -1.321,0.613c4.271,-13.382 5.608,-28.983 7.812,-42.772c5.038,-31.433 10.417,-62.836 14.392,-94.432c3.7,-29.394 9.917,-59.397 11.063,-89.017c0.083,-2.538 1.179,-10.978 -1.113,-4.287c-6.912,20.089 -16.787,38.425 -26.683,57.168c-14.55,27.616 -29.429,55.336 -41.167,84.323c-1.562,3.864 -3.158,7.744 -4.65,11.637c-1.633,4.216 2.013,-8.822 2.829,-13.269c5.121,-28.127 22.813,-111.98 15.625,-84.322c-9.408,36.11 -15.625,73.025 -23.733,109.433c-5.296,23.765 11.562,-47.302 17.742,-70.848c5.437,-20.707 10.991,-41.379 15.712,-62.27c2.258,-9.967 3.267,-21.13 6.704,-30.829c14.929,-42.126 -61.737,167.744 -44.829,126.381c4.254,-10.407 4.517,-24.293 6.496,-35.321c0.796,-4.459 5.987,-14.909 1.717,-13.478c-5.192,1.749 -12.863,40.602 -13.992,44.307c-3.804,12.547 -7.867,25.014 -11.65,37.565c-0.329,1.074 -1.042,4.367 -0.817,3.268c1.129,-5.554 1.738,-9.673 2.638,-15.722c4.396,-29.269 10.416,-59.137 13.075,-88.61c3.141,-34.684 -17.242,67.547 -23.021,101.882c-3.854,22.905 7.117,-45.918 9.637,-69.011c1.075,-9.845 2.83,-19.997 -0.191,-3.574c-4.446,24.046 -8.492,48.171 -13.092,72.174c-0.729,3.814 -4.062,19.28 -1.008,6.435c8.821,-37.129 17.016,-74.452 24.95,-111.782c3.958,-18.681 12.221,-75.359 10.329,-56.355c-2.446,24.758 -11.163,49.919 -16.321,74.217c-4.392,20.714 -11.421,42.373 -12.879,63.599c-0.625,9.133 -0,-18.307 -0,-27.46c-0,-10.366 0.275,-20.773 -0,-31.135c-0.021,-0.994 0.521,-2.412 -0.296,-2.961c-2.483,-1.666 -1.929,5.688 -2.746,8.574c-6.733,23.605 -13.85,47.223 -18.454,71.36c-1.771,9.288 -3.4,21.919 -2.221,4.9c1.875,-27.519 2.188,-55.13 3.229,-82.691c0.33,-8.641 4.2,-33.878 0.817,-25.929c-6.946,16.319 -8.683,37.759 -12.171,55.025c-3.35,16.654 -5.904,33.447 -9.116,50.122c-2.15,11.07 -0.884,-2.882 -0.605,-6.125c0.9,-11.305 1.613,-22.535 1.405,-33.891c-0.138,-7.652 -3.505,13.747 -3.75,15.005c-2.05,10.685 -2.846,21.525 -4.963,32.159c-0.125,0.621 2.117,-18.596 2.429,-22.972c1.421,-19.284 3.488,-38.564 4.359,-57.882c0.554,-12.241 -1.338,1.515 -2.121,5.513c-5.45,27.653 -10.034,55.285 -13.192,83.303c-0.279,2.596 -2.033,23.596 -1.408,21.847c3.35,-9.401 4.045,-22.405 4.045,-3.981c0,3.247 -0.208,40.737 6.492,36.442c6.304,-4.036 15.646,-31.236 20.888,-31.236c1.666,0 -3.455,29.826 3.854,12.249c5.85,-14.057 11.579,-28.001 18.558,-41.551c5.729,-11.108 4.967,-4.828 4.967,3.574c-0,8.885 -0.817,18.626 1.821,27.259c1.25,4.099 14.358,-13.063 14.808,-13.579c4.758,-5.508 12.604,-19.192 21.304,-19.192c2.846,0 5.675,2.723 4.863,5.718c-2.188,8.05 -6.063,10.634 -10.855,16.536c-13.991,17.217 -44.6,-2.114 -61.145,-8.78c-12.567,-5.059 -18.905,-15.475 -27.375,-25.215c-0.575,-0.663 -5.8,-4.38 -5.071,-5.202c4.216,-4.774 11.458,-8.44 16.233,-12.765c38.317,-34.726 68.088,-85.263 90.242,-131.588c13.596,-28.425 19.287,-57.944 22.308,-89.016c0.433,-4.527 4.792,-73.706 3.038,-73.706c-4.546,0 -11.788,9.879 -14.2,12.35c-15.071,15.467 -31.355,29.696 -47.863,43.594c-19.237,16.201 -34.342,34.571 -51.912,52.265" style="fill:none;fill-rule:nonzero;stroke:#eec9aa;stroke-width:52.26px;"/><path d="M10041.1,480.595c-10.054,-1.686 -21.771,-9.468 -31.425,-12.861c-31.842,-11.188 -64.254,-16.671 -97.846,-19.087c-19.967,-1.439 -59.237,0.914 -62.258,28.278c-3.3,29.885 51.425,31.365 69.654,33.073c43.454,4.073 86.996,5.067 130.504,0.919c11.283,-1.074 14.129,-1.775 3.746,-6.431c-14.304,-6.423 -28.679,-12.854 -43.192,-18.785c-42.637,-17.422 -86.666,-31.764 -132.637,-36.341c-4.863,-0.487 -37.104,-5.76 -37.104,5.512c-0,15.953 41.495,15.064 49.879,15.723c20.087,1.573 40.4,2.152 60.537,2.55c4.15,0.084 27.813,3.36 31.129,-0.818c0.434,-0.541 -10.729,-2.303 -11.145,-2.345c-10.85,-1.095 -21.859,-1.846 -32.759,-2.143c-3.996,-0.114 -39.912,-0.609 -20.991,5.818c39.204,13.311 81.25,17.69 121.787,25.111c6.079,1.116 24.325,3.582 18.146,3.88c-3.979,0.189 -6.771,0.567 -10.542,1.838" style="fill:none;fill-rule:nonzero;stroke:#eec9aa;stroke-width:52.26px;"/><path d="M10088.5,1818.89c72.708,143.992 132.308,254.407 258.646,343.197c100.12,70.811 221.7,109.212 345.658,113.998c377.85,16.818 661.529,-332.395 609.079,-710.406c-45.292,-322.806 -410.017,-589.21 -737.812,-594.013c-33.367,-0 -115.605,-16.801 -137.067,-32.398c-13.104,-9.602 -59.6,-94.802 -84.633,-177.606c-27.413,-87.599 -42.9,-106.799 -38.142,-130.802c5.971,-31.203 27.412,-36.002 34.567,-97.202c5.97,-42 -46.48,-36.001 -70.313,8.399c-15.504,30.002 -57.225,30.002 -75.087,1.199c-4.775,-7.198 -7.155,-15.596 -9.55,-23.999c-21.459,14.401 -44.096,14.406 -66.734,7.203c-46.496,-14.401 -35.766,-61.2 -27.416,-105.6c-41.717,24 -78.68,21.596 -110.85,-15.605c-23.838,68.403 -87.013,67.203 -115.625,25.203c-4.775,9.598 -8.35,19.196 -14.305,27.599c-26.216,39.6 -65.554,44.399 -101.32,11.998c-20.259,52.801 9.55,124.803 3.575,127.203c-2.375,1.204 -9.53,-10.798 -10.709,-16.797c-3.579,-13.201 -45.296,0 -76.304,-40.8c-21.442,-27.602 -11.908,-50.402 10.746,-75.605c10.712,-11.998 -40.538,-26.399 -41.717,-112.802c-1.2,-56.402 42.9,-88.799 96.546,-102.001c11.908,-2.399 11.908,-3.599 10.729,-15.601c-8.35,-74.401 70.313,-123.604 146.596,-86.403c3.575,1.204 7.154,7.203 9.533,4.799c2.396,-1.2 2.396,-5.995 4.771,-9.598c38.146,-75.601 135.888,-86.399 169.254,-17.996c13.109,27.598 11.93,27.598 15.505,23.999c19.062,-27.603 58.404,-19.205 84.616,-4.803c28.613,16.8 19.084,40.804 27.417,39.6c25.033,-4.799 48.871,3.603 70.329,14.401c33.367,18.001 14.304,68.403 17.879,73.202c2.379,3.604 36.946,-15.601 70.313,20.4c11.929,13.202 7.154,32.402 2.396,49.203c-3.575,10.798 15.487,-6.003 46.479,34.801c33.366,43.2 29.808,92.398 -4.759,128.399c-11.929,12.002 -22.658,26.403 -39.341,33.602c-3.575,1.199 -4.775,4.803 -5.954,9.602c-14.305,72.002 -46.492,68.403 -28.613,114.002c36.946,96.001 54.829,160.805 104.896,249.603c22.642,40.805 126.337,46.804 172.833,45.6c278.904,-1.2 613.834,244.804 699.65,512.413c75.104,236.402 -5.954,553.204 -237.187,714.009c-315.867,219.606 -805.746,121.201 -976.196,-335.998c-8.333,-9.615 -8.333,-9.615 -2.379,-27.599Zm-426.721,-1461.64c8.354,75.606 69.133,72.007 56.025,60.005c-23.838,-20.4 -33.367,-57.601 -22.638,-86.399c2.38,-6.003 4.759,-10.802 7.155,-16.805c9.529,-24 -38.146,-20.4 -40.542,43.199Zm102.517,-133.202c-3.575,33.602 28.595,54.006 22.641,40.804c-9.533,-21.599 -4.758,-51.602 4.775,-74.401c7.15,-18.001 -27.416,-15.601 -27.416,33.597Z" style="fill:#59322a;fill-rule:nonzero;"/><path d="M9806.04,1358.07c2.379,25.199 -30.992,28.798 11.908,138.001c5.954,15.601 13.108,15.601 -132.308,-40.8c-88.196,-33.601 11.929,-69.602 -35.746,-124.804c-51.267,-60 -148.992,-79.2 -145.417,-90.002c42.9,-115.198 70.313,-97.197 145.417,-71.998c7.154,2.403 120.383,54.001 128.733,58.8c44.096,25.199 16.684,-1.2 27.413,130.803Z" style="fill:#78c9f4;fill-rule:nonzero;"/><path d="M9272.04,1209.27c81.058,1.199 222.9,70.802 269.375,93.601c73.904,36.001 90.587,51.602 82.237,92.403c-7.133,38.4 -23.837,46.798 -3.575,62.399c28.613,20.4 427.917,168.004 427.917,169.204c50.05,19.2 48.871,75.601 27.412,125.995c-94.166,226.808 -133.487,334.812 -241.962,511.226c-5.954,9.598 -5.954,8.39 -15.504,5.994c-120.379,-30.01 -147.792,-51.597 -247.917,-104.399c-20.258,-10.802 -63.175,-123.613 -76.283,-260.402c-3.575,-31.202 -34.567,-44.416 -57.204,-15.609c-17.884,22.808 -16.7,-10.802 -41.721,-28.807c-9.546,-7.198 -15.5,-2.395 -22.654,4.808c-16.684,14.401 -20.263,-14.402 -30.992,-28.807c-8.333,-9.594 -20.258,-10.802 -28.608,-0c-5.955,7.203 -8.334,6.015 -11.913,-1.187c-11.925,-25.204 -42.917,-21.604 -50.067,-1.204c-9.533,29.994 -2.379,104.399 0,135.601c3.575,39.605 14.305,46.808 -3.579,45.6c-23.837,-2.392 -97.725,-45.6 -119.183,-60.005c-39.342,-26.39 -64.375,-40.796 -65.554,-80.4c-1.2,-68.399 79.858,-396.008 135.883,-555.609c28.596,-82.804 29.792,-111.602 73.892,-110.402Zm427.896,416.407c-0,20.4 13.125,21.6 109.67,62.404c152.571,63.604 158.525,68.394 171.634,53.989c34.566,-39.592 57.221,-52.793 -11.909,-71.994c-172.829,-50.398 -263.42,-118.801 -269.395,-44.399Zm-2.375,57.601c-10.73,-1.2 -20.263,19.2 -1.184,27.603c0,-0 162.104,70.798 238.388,90.006c11.908,3.604 11.908,3.604 19.062,-6.011c5.954,-8.39 4.775,-14.401 -3.575,-19.192c-32.187,-14.401 -214.55,-87.603 -252.691,-92.406Z" style="fill:#78c9f4;fill-rule:nonzero;"/><path d="M10056.3,1846.49c51.25,175.193 87.013,98.388 7.15,216.006c-47.67,69.598 -122.758,201.601 -203.816,208.804c-27.413,3.599 21.458,10.802 196.666,-424.81Z" style="fill:#78c9f4;fill-rule:nonzero;"/><path d="M9993.17,1276.47c-9.534,-0 -88.213,-164.4 -98.925,-188.404c-3.575,-7.199 -2.396,1.204 -35.763,14.401c-8.354,3.604 1.196,1.2 34.563,94.802c11.929,32.398 -28.609,-37.201 -47.671,-85.199c-1.2,-3.604 -3.579,-2.4 -5.975,-2.4c-201.421,70.798 -379.025,-146.404 -271.75,-328.809c88.208,-148.803 288.454,-160.8 383.8,-36.001c67.933,90.003 64.358,186.004 14.304,266.405c-35.762,57.601 -67.933,61.204 -61.979,72.002c26.217,46.803 72.708,142.8 89.396,193.203Zm-137.067,-188.404c89.392,-40.8 145.417,-139.201 128.713,-240.006c-15.484,-93.602 -103.696,-180.001 -214.546,-175.202c-109.654,4.804 -200.246,82.804 -218.125,190.808c-27.413,164.4 139.462,300.001 303.958,224.4Z" style="fill:#191919;fill-rule:nonzero;"/><path d="M10228,940.475c-48.858,45.603 -71.512,37.201 -64.358,48.003c16.683,31.198 17.879,85.199 14.304,122.404c-4.775,55.198 29.792,112.798 107.275,126c116.804,20.4 218.125,-124.8 220.504,-246.005c0,-1.199 -1.2,-3.599 1.196,-3.599c2.379,0 2.379,1.2 2.379,3.599c30.992,98.406 -91.771,296.407 -238.387,261.606c-71.508,-16.801 -107.271,-68.403 -109.65,-118.805c-1.2,-29.998 13.108,-79.201 -5.954,-140.401c-3.58,-12.002 -22.659,12.002 -88.213,8.398c-56.025,-2.399 -89.392,-29.998 -35.746,-18c67.934,14.401 150.171,-10.802 200.225,-69.603c26.234,-31.198 48.871,-93.598 54.842,-112.798c7.137,-26.403 11.912,73.202 -58.417,139.201Z" style="fill:#191919;fill-rule:nonzero;"/><path d="M10179.1,1534.48c-21.458,65.999 -52.45,87.603 -73.908,111.602c-2.379,2.4 -2.379,1.2 -4.775,-1.199c-4.755,-5.999 -3.559,-9.603 1.2,-14.402c81.058,-76.801 54.825,-120 87.012,-100.8c274.15,159.601 741.388,195.602 741.388,198.002c-1.196,29.993 -562.605,-55.202 -750.917,-193.203Z" style="fill:#191919;fill-rule:nonzero;"/><path d="M9278,1841.68c33.383,-3.599 -57.204,316.807 226.475,325.214c11.908,-0 21.458,-4.808 22.637,-2.412c7.155,19.208 -132.291,39.608 -210.97,-66c-65.555,-86.399 -48.855,-256.802 -38.142,-256.802Z" style="fill:#191919;fill-rule:nonzero;"/><path d="M10721.5,1322.07c8.334,14.401 42.9,244.809 -2.395,348.008c-1.184,2.4 -2.38,7.199 -5.955,5.999c-9.533,-2.399 3.575,-21.6 10.73,-114.002c4.775,-82.8 -4.775,-201.605 -2.38,-240.005Z" style="fill:#191919;fill-rule:nonzero;"/><path d="M10033.7,1270.48c5.955,-3.603 23.834,11.998 28.609,16.797c58.404,63.604 100.121,121.204 84.621,205.204c-7.155,37.201 -20.263,31.202 -19.063,22.804c3.575,-38.401 14.304,-81.604 -20.262,-138.006c-47.692,-74.401 -71.53,-100.8 -73.909,-106.799l0.004,0Z" style="fill:#191919;fill-rule:nonzero;"/><path d="M9378.12,2085.28c0,27.599 -50.05,-16.796 -57.204,-137.997c-4.775,-80.4 7.15,-94.806 10.729,-80.4c8.333,46.79 3.575,62.4 22.638,146.403c7.154,31.198 19.079,56.385 23.837,71.994Z" style="fill:#191919;fill-rule:nonzero;"/><path d="M9399.58,1898.09c4.775,127.195 21.459,143.991 32.188,193.194c1.179,4.807 -8.35,16.796 -19.079,-7.199c-45.296,-93.602 -27.413,-212.407 -14.305,-207.599c2.396,1.208 2.396,3.599 2.396,4.807c-2.396,5.995 -1.2,11.989 -1.2,16.797Z" style="fill:#191919;fill-rule:nonzero;"/><path d="M9467.5,1895.69c4.775,0 -1.179,93.602 27.413,187.2c3.579,13.214 13.125,37.213 4.775,40.813c-10.73,3.603 -22.638,-37.21 -26.217,-48.012c-26.229,-80.404 -14.304,-181.205 -5.971,-180.001Z" style="fill:#191919;fill-rule:nonzero;"/><path d="M9848.96,1259.67c-15.487,129.603 8.35,164.404 60.8,237.602c2.375,3.603 0,7.202 -4.775,4.803c-15.487,-8.398 -61.979,-63.604 -71.512,-127.203c-8.35,-58.801 7.154,-111.603 15.487,-115.202Z" style="fill:#191919;fill-rule:nonzero;"/><path d="M10148.1,1080.87c-17.883,19.2 -78.662,39.6 -116.804,56.397c-72.708,33.601 -71.529,34.801 -73.908,32.401c-4.775,-9.598 232.429,-133.202 190.712,-88.798Z" style="fill:#191919;fill-rule:nonzero;"/><path d="M9876.38,1256.06c2.379,169.203 89.392,164.4 82.242,180.005c-8.354,17.997 -120.384,-67.203 -88.213,-169.203c1.196,-4.803 2.396,-8.402 5.971,-10.802Z" style="fill:#191919;fill-rule:nonzero;"/><path d="M9897.79,1248.87c41.716,141.6 121.579,117.601 116.804,135.602c-1.179,5.998 -7.15,3.599 -11.908,2.399c-44.113,-13.201 -79.863,-36.001 -97.742,-81.6c-4.775,-14.401 -15.504,-43.204 -7.154,-56.401Z" style="fill:#191919;fill-rule:nonzero;"/><path d="M10057.5,842.074c2.379,-31.202 87.016,-99.605 92.971,-90.002c2.379,3.599 -34.567,40.8 -44.096,50.402c-23.838,23.999 -32.192,39.6 -38.146,46.799c-3.575,4.799 -10.729,3.599 -10.729,-7.199Z" style="fill:#191919;fill-rule:nonzero;"/><path d="M9875.17,1535.68c-20.263,-8.399 -21.459,-8.399 -23.838,-11.998c-10.729,-26.403 -34.566,-98.401 -30.991,-124.804c1.183,-5.999 8.333,-7.199 9.533,-1.2c16.683,79.201 25.033,96.002 45.296,138.002Z" style="fill:#191919;fill-rule:nonzero;"/><path d="M9965.75,564.851c-9.529,-0 -10.729,-8.398 -4.754,-14.397c21.458,-19.2 28.592,-26.403 47.671,-56.405c53.629,-85.2 2.379,68.402 -42.917,70.802Z" style="fill:#191919;fill-rule:nonzero;"/><path d="M9767.92,627.263c-8.35,-23.999 13.108,-62.399 38.141,-71.997c19.063,-7.203 50.055,-0 48.871,9.598c-1.196,5.998 -9.529,5.998 -14.304,4.799c-40.521,-8.399 -65.554,33.601 -69.133,54.001c-1.196,1.2 -1.196,2.4 -3.575,3.599Z" style="fill:#191919;fill-rule:nonzero;"/><path d="M10054,651.254c0,8.403 0,15.601 -7.154,18.001c-7.15,3.599 -13.104,-0 -19.062,-4.799c-25.034,-20.4 -9.546,-57.601 9.533,-42c9.529,9.598 16.683,17.996 16.683,28.798Z" style="fill:#191919;fill-rule:nonzero;"/><path d="M9922.83,674.058c0,2.4 0,6.003 -3.575,7.203c-3.575,1.2 -4.775,-2.4 -7.154,-4.799c-46.491,-99.601 2.379,-52.802 10.729,-2.404Z" style="fill:#191919;fill-rule:nonzero;"/><path d="M9554.54,944.07c-48.875,-190.803 190.708,-356.411 350.433,-228.008c202.621,162.005 1.179,474.013 -233.629,373.208c-2.379,-1.196 -3.579,-1.2 -4.758,-3.599c2.379,-10.798 7.137,-21.6 7.137,-32.398c0,-2.399 1.196,-3.599 2.396,-4.799c38.142,18.001 30.987,11.998 61.979,20.4c-3.579,7.199 -5.975,10.798 1.179,11.998c174.029,20.4 293.229,-177.606 175.225,-313.208c-91.787,-105.603 -268.196,-77.997 -324.216,70.803c-2.38,6.003 2.395,6.003 9.545,6.003c-4.775,32.401 -10.729,45.599 -1.195,100.8c-3.58,-4.799 -8.334,-6.003 -13.109,-3.599c-10.729,4.799 -20.262,2.399 -30.991,2.399l0.004,0Z" style="fill:#78c9f4;fill-rule:nonzero;"/><path d="M9738.08,1071.27c144.234,18.001 241.963,-120 202.638,-234.002c-57.221,-168.004 -287.259,-156.002 -342.084,9.598c-7.154,-1.2 -11.925,-0 -9.549,-5.999c56.025,-148.803 232.433,-176.406 324.22,-70.802c118.005,135.601 -1.2,334.807 -175.225,313.207c-5.954,-2.4 -3.579,-6.003 0,-12.002Z" style="fill:#191919;fill-rule:nonzero;"/><path d="M9676.12,1049.67c-3.579,4.799 -2.379,10.802 -9.533,7.198c-48.871,-31.198 -66.755,-67.203 -82.238,-112.806c25.017,-15.597 -3.579,38.405 91.771,105.608Z" style="fill:#191919;fill-rule:nonzero;"/><path d="M9783.38,779.662c0,-28.799 33.367,-17.997 41.717,15.605c5.954,27.599 -36.946,21.6 -41.717,-15.605Z" style="fill:#191919;fill-rule:nonzero;"/><rect x="136.804" y="568.32" width="2031.25" height="838.99" style="fill:none;"/></g></g></g></g></g></g></svg>