<?xml version="1.0" encoding="UTF-8"?>
<!DOCTYPE svg  PUBLIC '-//W3C//DTD SVG 1.1//EN'  'http://www.w3.org/Graphics/SVG/1.1/DTD/svg11.dtd'>
<svg clip-rule="evenodd" fill-rule="evenodd" stroke-linecap="round" version="1.1" viewBox="0 0 14325 3475" xml:space="preserve" xmlns="http://www.w3.org/2000/svg"><clipPath id="_clip1"><rect y="-.154" width="14323" height="3476.3"/></clipPath><g clip-path="url(#_clip1)"><rect width="14323" height="3492.7" fill="#fff"/><clipPath id="_clip2"><rect x="-54.167" y="-8.485" width="14427" height="9036.6"/></clipPath><g clip-path="url(#_clip2)"><path d="m6679.8 1435.9c1180.8 890.56 2660.2-108.54 4544.8 1159.2 1045.8 703.42 843.94 1181.8 1814.6 1782.1 1463.8 905.32 3905.5 1043.8 5633.1-324.3 1941.5-1537.3 1845.8-4077.7 1826.4-4593.9-140.97-3750.3-3703.4-5837.7-4061.2-6039.9-2897-1636.6-7621.6-1877.6-9769.3 1006.1-1632.9 2192.4-1524.3 5852.4 11.596 7010.8v-0.088l-0.013-5e-3z" fill="#aaf9f9" fill-rule="nonzero"/><path d="m5753.7 1431.3c1266.8 955.44 2854-116.5 4875.9 1243.6 1121.9 754.7 905.4 1267.8 1946.8 1912 1570.4 971.25 4190 1119.8 6043.5-348.01 2082.8-1649.2 1980.4-4374.7 1959.4-4928.5-151.39-4023.5-3973.2-6263-4357.1-6479.8-3108-1755.7-8176.7-2014.4-10481 1079.4-1751.8 2352.1-1635.3 6278.8 12.462 7521.5l0.021-4e-3z" fill="#c6fbfb" fill-rule="nonzero"/><path d="m4827.5 1426.8c1352.8 1020.3 3047.7-124.37 5207 1328 1198.2 805.97 966.88 1353.9 2079 2041.7 1677.2 1037.2 4474.5 1195.8 6453.9-371.6 2224.3-1761.2 2114.8-4671.8 2092.4-5263.2-161.63-4296.7-4242.9-6688.2-4652.9-6919.8-3319-1875-8732-2151.1-11193 1152.6-1870.8 2511.8-1746.3 6705 13.263 8032.2l-0.042 8e-3z" fill="#e3fdfd" fill-rule="nonzero"/><path d="m3901.4 1422.1c1438.8 1085.2 3241.5-132.24 5538 1412.4 1274.3 857.15 1028.4 1440 2211.2 2171.6 1783.7 1103.1 4759 1271.8 6864.2-395.21 2365.6-1873.2 2249.1-4968.8 2225.5-5597.7-171.88-4569.8-4512.7-7113.4-4948.8-7359.8-3530.1-1994.2-9287.2-2287.9-11904 1225.9-1989.7 2671.5-1857.3 7131.4 14.063 8542.8h0.083l8e-3 -0.02z" fill="#fff" fill-rule="nonzero"/><path d="m5333.6 915.57c1271.8 959.23 3014.6 56.392 5044.4 1421.8 1126.4 757.71 1087.2 1375.4 2132.7 2022 1576.7 975.15 4201.3 1045.2 6062.2-428.44 2091.2-1655.8 1880.9-4490.9 1848.1-5045.3-244.45-4122.6-4047.1-6226.9-4432.5-6444.6-3120.4-1762.7-8303.3-2051.7-10617 1054.4-1758.9 2361.4-1692.3 6172.5-38.108 7420.2l0.033 0.03z" fill="#ddf1fc" fill-rule="nonzero"/><path d="m6765.9 409.08c1104.8 833.28 2787.5 245.03 4550.8 1431.2 978.54 658.17 1145.9 1310.8 2054.1 1872.5 1369.7 847.06 3643.7 818.52 5260.2-461.59 1816.7-1438.4 1512.2-4013.2 1470.5-4493-319.62-3675.8-3581.4-5340.2-3916.2-5529.3-2710.6-1531.3-7319.6-1815.5-9329.3 882.69-1527.9 2051.4-1527.2 5213.7-90.175 6297.6l0.017-0.017z" fill="#bbe4f9" fill-rule="nonzero"/><path d="m8198.1-97.506c937.8 707.32 2560.4 433.66 4057.3 1440.5 830.66 558.74 1204.6 1246.2 1975.6 1723 1162.7 719.09 3086 591.87 4458.2-494.74 1542-1221.1 1143-3535.5 1093-3940.6-398.44-3229-3115.7-4453.6-3399.9-4614.1-2300.9-1299.9-6335.9-1579.2-8041.8 711.11-1297.1 1741.2-1362.3 4254.8-142.52 5174.8l0.017-8e-3z" fill="#9ad6f7" fill-rule="nonzero"/><path d="m9630.4-604c770.87 581.36 2333.4 622.29 3563.7 1449.9 682.71 459.2 1263.4 1181.5 1897.1 1573.4 955.62 591.08 2528.3 365.15 3656.4-527.97 1267.4-1003.6 772.74-3057.7 715.28-3388.2-483.33-2781.6-2649.9-3567-2883.5-3699-1891.2-1068.4-5352.1-1343-6754.3 539.45-1066 1431.3-1197.3 3296.1-194.58 4052.3l-0.083 0.088h-0.017z" fill="#78c9f4" fill-rule="nonzero"/><path d="m11063-1110.6c603.85 455.49 2106.4 810.92 3070.1 1459.3 534.84 359.76 1322.1 1116.8 1818.6 1423.9 748.66 463 1970.7 138.52 2854.4-561.12 992.71-786.17 401.39-2579.6 337.68-2835.8-579.52-2331.3-2184.2-2680.4-2367.2-2783.8-1481.6-837-4368.4-1106.9-5466.8 367.88-835.14 1121.3-1032.2 2337.3-246.82 2929.7v-0.088z" fill="#56bbf1" fill-rule="nonzero"/><path d="m12444-1053.6c477.41 360.11 1686.9 570.04 2449 1082.6 422.88 284.45 1028.2 909.03 1420.8 1151.8 591.91 366.12 1617.7 80.791 2298.2-542.12 730.9-668.87 293.23-2002.1 242.88-2204.8-458.33-1843.3-1727.1-2119.3-1871.8-2201-1171.4-661.8-3453.9-875.19-4322.5 290.9-660.33 886.5-837.71 1954.2-216.63 2422.6h0.013z" fill="#5185de" fill-rule="nonzero"/><path d="m13826-996.55c351.06 264.74 1267.4 329.08 1827.7 705.99 310.92 209.14 734.25 701.14 1022.9 879.69 435.19 269.16 1267 27.314 1742.4-523.02 471.88-546.45 184.72-1424.7 147.74-1573.7-336.98-1355.2-1269.8-1558.2-1376.2-1618.3-861.32-486.59-2539.5-643.42-3178 213.91-485.5 651.81-643.11 1571.1-186.51 1915.5v-0.088z" fill="#4b4eca" fill-rule="nonzero"/><path d="m9263.5 581.85-49.759 21.071c-2.341 0.986-5.083-0.13-6.058-2.492-0.987-2.366 0.121-5.122 2.467-6.108l49.758-21.071c2.358-0.986 5.083 0.135 6.075 2.496 0.971 2.362-0.137 5.118-2.483 6.104z" fill="#56bbf1" fill-rule="nonzero"/><path d="m9081.1 253.23c2.155-8.864 12.917-4.006 24.325 10.567 11.425 14.574 18.855 33.745 16.63 42.604-2.205 8.864-12.896 4.007-24.321-10.567-11.409-14.577-18.838-33.547-16.634-42.604z" fill="#56bbf1" fill-rule="nonzero"/><path d="m9240.9 301.28c-20.679 10.769 3.575-71.024 24.183-81.596 20.608-10.567-3.596 70.832-24.183 81.596z" fill="#56bbf1" fill-rule="nonzero"/><path d="m9328 400.67c-9.463-1.967-3.854-13.193 12.779-25.14 16.633-11.948 37.571-20.086 47.012-18.181 9.463 1.9 3.788 13.063-12.775 25.14-16.566 12.077-37.762 20.22-47.016 18.181z" fill="#56bbf1" fill-rule="nonzero"/><path d="m9027.1 428.64c12.259 15.358-49.429 19.955-62.275 9.124-6.458-5.449 1.234-13.655 19.167-17.136 17.621-3.411 37.5 1.053 43.108 8.012z" fill="#56bbf1" fill-rule="nonzero"/><path d="m9085.7 547.06c9.321 1.313 4.946 13.13-11.875 25.342-16.825 12.207-39.254 17.984-48.316 14.506-19.946-7.744 42.258-42.34 60.121-39.781l0.07-0.067z" fill="#56bbf1" fill-rule="nonzero"/><path d="m9184.8 326.69c-54.633-3.087-103.82 33.476-116.92 86.978-13.37 62.887 26.421 124.72 88.888 138.18 4.304 0.919 8.683 1.577 13.037 2.039 4.638 0.327 5.159 2.227 25.905 21.792 3.645 3.545 8.991 4.594 13.679 2.689l41.666-16.213c4.829-1.708 8.092-6.234 8.163-11.356 2.533-33.085 1.233-33.937 4.041-37.222 63.317-73.848 10.038-181.18-78.52-186.76l0.066-0.13zm-79.546 106.08c-4.187 20.547 0.9 24.746 3.976 41.161 0.12 0.26-1e-3 0.587 0.12 1.049 0.4 2.953 0.071 7.55-3.387 7.353-1.492-0.264-2.863-0.985-3.904-2.034-13.317-11.033-21.129-27.444-21.459-44.773 0.78-23.303 11.075-45.293 28.438-60.785 11.596-11.032 26.667-17.66 42.571-18.843 9.129 0.394 8.679 4.069 2.15 9.782-10.817 8.138-20.729 17.464-29.6 27.767-9.321 11.422-15.85 24.88-18.904 39.323zm135.1 111.53c0.137 2.492-1.754 4.724-4.238 4.858-2.204 0.13-4.237-1.38-4.758-3.545l-11.546-84.813c-7.687 11.813-21.908 17.459-35.537 14.179-11.805-2.958-24.184-1.511-35.017 4.069l59.742 75.949c1.562 1.972 1.229 4.858-0.663 6.502-2.012 1.443-4.754 1.179-6.458-0.658l-60.763-76.998c-2.741-3.352-2.362-8.273 0.971-11.033 0.454-0.39 0.975-0.722 1.563-1.049 13.108-7.152 28.37-9.124 42.85-5.449 11.075 2.034 22.291-3.214 27.775-13.126 2.675-3.545 7.691-4.204 11.145-1.51 1.705 1.313 2.813 3.213 3.075 5.315l11.805 87.242 0.054 0.067z" fill="#56bbf1" fill-rule="nonzero"/><path d="m8712.9 1840.2-37.604 52.143c-1.808 2.496-5.208 3.041-7.708 1.238-2.517-1.783-3.021-5.244-1.234-7.761l37.588-52.139c1.804-2.5 5.208-3.041 7.725-1.259 2.5 1.8 3.004 5.244 1.233 7.778z" fill="#56bbf1" fill-rule="nonzero"/><path d="m8327.1 1620.1c-3.262-10.282 10.608-12.081 31.113-4.3 20.537 7.753 39.741 22.552 42.933 32.889 3.196 10.34-10.608 12.085-31.108 4.299-20.542-7.752-39.621-22.35-42.938-32.888z" fill="#56bbf1" fill-rule="nonzero"/><path d="m8518.5 1569.8c-14.325 23.714-39.812-74.2-25.296-97.679 14.513-23.484 39.6 74.024 25.296 97.679z" fill="#56bbf1" fill-rule="nonzero"/><path d="m8667.5 1616.6c-10.763 3.846-11.946-10.949-2.379-33.396 9.517-22.414 25.8-43.624 36.562-47.563 10.746-3.943 11.788 10.911 2.413 33.367s-25.938 43.862-36.563 47.562l-0.033 0.03z" fill="#56bbf1" fill-rule="nonzero"/><path d="m8379.5 1831.3c21.808 7.932-37.917 50.842-57.55 47.856-9.896-1.502-7.083-14.632 8.975-29.26 15.8-14.334 38.679-22.2 48.575-18.596z" fill="#56bbf1" fill-rule="nonzero"/><path d="m8511.3 1915.1c10.225-4.404 13.021 10.295 3.438 33.002-9.567 22.686-28.821 42.579-40.088 44.605-24.929 4.493 16.946-69.078 36.65-77.607z" fill="#56bbf1" fill-rule="nonzero"/><path d="m8477.1 1630.3c-57.275 30.758-84.775 98.166-65.421 160.57 24.863 71.994 102.99 110.08 174.5 85.053 4.946-1.733 9.775-3.725 14.479-6.016 4.913-2.533 6.563-0.872 39.53 6.066 5.87 1.347 11.945-0.91 15.537-5.785l32.346-42.264c3.8-4.685 4.375-11.276 1.337-16.553-17.641-35.099-19.462-35.133-18.645-40.288 19.062-114.12-100.5-189.82-193.66-140.72v-0.063zm-15.783 156.83c8.333 23.438 16.058 24.558 29.2 39.294 0.279 0.156 0.312 0.609 0.854 0.961 2.167 2.744 4.704 7.639 1.058 9.506-1.683 0.684-3.508 0.822-5.262 0.369-20.225-3.008-38.192-14.699-49.15-32.091-13.471-24.138-16.459-52.806-8.35-79.226 5.037-18.366 16.2-34.432 31.666-45.457 9.463-5.277 11.234-1.241 8.163 8.646-5.938 14.98-10.333 30.527-13.042 46.463-2.516 17.363-0.833 35.016 4.879 51.569l-0.016-0.034zm205.07 29.399c1.684 2.449 1.13 5.839-1.337 7.567-2.188 1.523-5.138 1.242-6.979-0.663l-63.509-78.776c-0.608 16.725-11.579 31.269-27.395 36.391-13.734 4.283-25.467 13.474-32.967 25.815l106.98 40.045c2.775 1.083 4.234 4.162 3.317 6.972-1.167 2.694-4.133 4.145-6.946 3.34l-108.63-40.465c-4.863-1.64-7.429-6.922-5.763-11.779 0.259-0.701 0.555-1.38 0.971-1.976 8.904-15.362 23.229-26.793 40.088-32.02 12.516-4.808 20.608-17.078 20.154-30.573 0.558-5.21 5.208-9.002 10.417-8.423 2.5 0.251 4.791 1.522 6.354 3.507l65.279 81.054-0.033-0.016z" fill="#56bbf1" fill-rule="nonzero"/><path d="m11015 1108.4c-290.83-204-420.76-123.6-550.68-170.4-54.825-20.4-83.438-122.4-141.84-276.01-7.154-18-7.154-34.797 3.575-50.402 27.413-39.6 20.258-68.399 30.992-73.202 15.5-7.198 71.508-50.398 65.554-110.4-3.579-33.602-33.371-78.001-66.754-82.804-7.154-1.2 14.304-33.598-4.759-53.998-33.383-36.001-67.95-18-70.329-20.4-3.575-3.603 15.504-56.405-17.883-73.206-57.204-29.998-73.888-7.198-75.083-19.2-3.58-32.402-38.146-46.799-67.938-47.999-34.562-2.399-39.337 21.6-42.917 20.4-3.575-8.398-8.333-16.8-11.908-25.199-19.079-39.604-59.6-52.806-96.562-43.204-61.98 15.601-75.088 69.603-78.663 70.803s-27.412-24-81.042-15.601c-47.691 7.203-79.862 50.402-75.104 97.205 2.396 21.6-3.575 5.999-51.25 31.198-77.466 40.8-64.358 138-13.108 190.81 5.954 5.999 1.2 7.199-9.529 20.396-35.767 44.404 9.529 92.406 67.933 99.605 9.529 1.2 3.575-1.204 41.717 81.6-78.663 1.2-157.34 39.6-206.2 121.2-107.28 182.4 69.129 399.61 271.75 328.8 2.375-1.2 4.771-2.399 5.954 2.4 4.775 12.001 28.609 64.803 44.113 88.803 1.183 1.199 3.579 31.202 7.154 50.398-10.729 3.603-27.429 7.202-42.917 12.001-1.2-4.799-218.12-109.2-265.8-115.2-41.717-4.799-57.221 27.598-98.942 127.2-41.716-20.4-206.2-88.799-243.14-61.204-20.275 14.401-21.459 32.402-45.296 100.8-11.925 33.602-23.833 60.001-51.267 165.6-114.41 435.62-103.68 415.2-19.062 470.42 40.521 26.39 144.22 80.384 153.77 82.796 26.217 86.399 96.546 143.99 202.63 146.4 10.729 0 52.445-16.796 76.283-28.802 4.775 5.994 5.954 9.594 10.729 12.006 320.62 170.4 327.78 139.2 491.08-100.82 13.108-19.192 54.829-73.202 75.088-103.2 221.7 405.61 746.14 439.21 1014.3 150 218.12-234.01 296.79-696.01-134.69-999.62zm-1065.6 61.2c-45.296-97.201-51.25-92.402-44.096-97.201 34.567-26.403 59.6-56.401 78.663-98.401 11.925 7.199 52.445 21.6 83.437 23.999 65.554 3.6 83.438-20.4 88.196-8.398 7.15 22.8 9.546 46.799 9.546 70.798-67.95 25.199-150.19 60.005-215.75 109.2z" fill="#fff" fill-rule="nonzero"/><path d="m10301 673c0 34.537 12.308 66.658 19.792 99.832 3.629 16.07 12.016 32.888 18.908 47.642 9.25 19.796 15.4 40.703 26.163 59.878 11.629 20.715 20.904 43.666 31.945 64.909 1.646 3.188 5.588 12.866 5.484 9.271-0.154-5.504-1.525-10.815-2.638-16.18-3.404-16.348-9.116-31.76-14.116-47.642-5.571-17.699-16.684-30.208-23.8-46.363-6.459-14.624-13.263-29.167-20.384-43.502-5-10.059-10.066-19.938-14.896-30.186-5.104-10.865-7.237-21.793-11.458-32.847-2.05-5.344-9.287-21.52 0.088-11.54 4.391 4.665 7.845 14.988 7.845 21.306" fill="none" stroke="#eec9aa" stroke-width="52.26px"/><path d="m10278 813.03c6.18 63.738 34.567 118.02 56.492 176.08 3.667 9.716 8.542 19.192 11.233 29.348 1.354 5.139-1.908 7.123-5.296 10.441-4.408 4.33-34.687 38.17-39.687 24.251-5.138-14.304-9.408-28.945-14.337-43.321-6.025-17.509-13.351-34.39-17.538-52.613-0.9-3.935-4.2-15.475-2.604-11.838 2.779 6.297 1.391 16.323 1.962 23.097 0.992 11.675 1.946 23.454 1.946 35.188 0 2.575 1.579 11.418-0.279 4.685-2.621-9.442-8.904-10.336-14.704-15.458-1.546-1.355-10.729-7.794-12.1-6.41-2.85 2.869 0.017 22.842 1.3 26.307 2.9 7.802 3.525 0.096 1.667-3.7-1.459-2.966 0.541-1.338 1.37 0.822 2.034 5.269 5.334 9.199 7.105 14.716 2.791 8.658 9.129 16.066 9.129 25.895-0 6.742 1.304 13.16 1.304 19.977-0 6.653-4.688 22.191 3.904 22.191" fill="none" stroke="#eec9aa" stroke-width="191.61px"/><path d="m10181 980.19h10.575" fill="none" stroke="#eec9aa" stroke-width="52.26px"/><path d="m10205 1037c-2.275 0.289-2.242 5.076-3.125 7.106-0.609 1.368-0.4 2.979-0.4 4.438-0 1.439-2.204 4.242-0.784 4.242 1.425-0 0.784-17.053 0.784-19.335" fill="none" stroke="#eec9aa" stroke-width="52.26px"/><path d="m10188 1038.8c-0.625 5.684 1.441 10.491 1.754 15.982 0.312 5.08 6.733 8.411 7.062 14.204 0.921 16.608-1.77 32.419-1.77 48.632-0 17.64 6.166 28.82 17.641 42.021 8.992 10.337 14.063 24.906 24.792 33.539 7.237 5.839 58.992 30.254 63.383 21.407" fill="none" stroke="#eec9aa" stroke-width="52.26px"/><path d="m10197 1150.6c0 13.793 16.25 24.721 23.909 34.621 5.8 7.517 18.662 14.422 27.237 18.252 7.346 3.293 16.546 3.562 22.917 9.271 14.167 12.681 42.987 16.524 60.854 12.526 21.838-4.887 44.008-10.898 58.296-29.394 10.766-13.931 24.062-25.597 35.662-38.568 5.034-5.638 7.134-12.505 12.342-17.757 5.554-5.601 10.296-15.765 14.117-22.687 8.312-15.081 15.987-32.053 19.687-48.829 1.542-7.005 5.396-15.999 5.396-23.085 0-7.807 5.279-13.633 5.279-21.306 0-9.799 13.925-42.226-0.383-46.656-11.229-3.478-25.313-2.542-35.763-8.386-5.85-3.272-15.921-5.16-20.279-10.655-3.262-4.09-3.071-4.27-1.771 0.986 2.588 10.387 6.146 22.158 10.575 31.865 1.979 4.333 2.988 9.145 5.296 13.218 1.754 3.079 7.983-0.847 10.192 1.38 5.466 5.5-6.979 36.601-8.821 43.993-3.3 13.285-7.763 28.387-13.317 40.842-18.854 42.163-50.504 72.488-90.241 94.99-10.505 5.948-18.213 9.229-30.175 6.217-20.884-5.252-37.396-21.117-57.325-28.408-1.771-0.65-12.45-5.328-8.525-5.328 18.887 0 37.204 1.821 56.337 0.394 13.783-1.027 26.283 0.08 39.096-5.818 20.312-9.35 40.225-19.775 56.529-35.808 9.775-9.594 25.171-26.479 28.608-40.347 3.284-13.197-8.833-0.621-15.275 4.241-25.141 18.986-50.783 35.2-78.683 49.618-2.204 1.145-15.379 7.387-15.379 6.414" fill="none" stroke="#eec9aa" stroke-width="52.26px"/><path d="m9854.1 1263.9c0 11.725-5.712 24.528-2.916 36.455 3.579 15.299 7.658 30.908 9.583 46.484 1.338 10.676 7.954 24.557 13.092 33.782 10.154 18.265 15.729 40.187 28.054 57.252 8.925 12.338 15.262 28.102 27.9 37.281 9.271 6.754 18.596 12.757 27.971 19.053" fill="none" stroke="#eec9aa" stroke-width="52.26px"/><path d="m9959 412.6c8.421-0 15.955 1.841 23.734 5.004 25.137 10.211 48.716 22.187 72.604 35.015 20.367 10.937 32.342 18.223 43.3 38.074 1.612 2.928-6.65-1.309-9.533-2.958-23.23-13.226-43.317-31.877-64.184-48.388-40.279-31.844-81.925-61.888-122.6-93.204-11.979-9.224 25.833 15.887 39.654 21.948 23.488 10.299 48.263 17.514 72.1 26.949 15.4 6.095 32.758 11.766 45.921 22.258 8.087 6.431-2.571 7.824-8.508 8.063-21.338 0.86-42.342-2.874-63.471-5.001-0.192-0.021-9.254-1.686-6.913 1.225 9.1 11.213 26.754 18.232 39.15 24.293 29.517 14.439 60.35 24.524 92.275 32.058 9.029 2.131 25.417 5.537 34.88 7.35 3.037 0.578 22.133 6.237 25.954 3.674 3.158-2.118-6.596-3.838-10.138-5.206-9.204-3.565-18.141-6.556-27.587-9.497-28.125-8.755-56.946-15.882-85.784-21.843-8.937-1.85-14.945-2.89-23.712-4.082-3.142-0.428-12.309-0.667-9.342-1.736 8.679-3.126 20.763-0.76 29.808-1.33 5.68-0.353 24.95 0.025 27.988-6.737 4.775-10.567-53.367-10.244-58.3-9.905-3.75 0.265-54.688 8.848-38.421 15.215 14.758 5.781 62.604 8.969 47.242 5.102-32.259-8.118-68.125-8.781-101.2-8.781h-6.683c18.387 0 36.77-0.037 55.158 0.412 36.492 0.889 73.054 2.269 109.51 4.287 18.767 1.04 39.288 1.254 57.588 6.33 9.512 2.639-18.283 11.268-20.279 11.943-9.255 3.15-18.767 5.277-28.088 8.168-3.646 1.132-10.904 5.591-7.187-1.125 10.795-19.569 24.791-37.339 37.1-55.943 3.108-4.682 3.333-5.148 2.237 0.411-3.4 17.274-5.225 35.082-7.1 52.571-1.562 14.581-2.029 29.041-2.029 43.694-0 9.032-3.092 24.788 0.417 33.384 0.066 0.197 3.487-8.503 3.645-8.986 2.084-6.359 4.355-12.681 4.963-19.397 0.8-8.877-24.425 21.755-26.267 23.89-10.241 11.909-20.504 23.789-30.712 35.728-2.846 3.319-6.492 7.908-4.984 0.818 5.105-23.722 6.6-48.72 14.413-71.767 3.317-9.795 0.712 5.386 0.608 7.043-0.783 11.788-0.783 23.891 0.604 35.628 0.646 5.496 0.784 20.354 8.925 16.029 9.496-5.051 16.059-13.973 24.742-20.215" fill="none" stroke="#eec9aa" stroke-width="52.26px"/><path d="m9765.5 469.57c0 14.8-7.292 30.418-7.292 45.943 0 5.663-2.779 20.92 0.4 25.317 3.767 5.218 0.73 18.231 5.971 22.455 2.067 1.657 4.567 16.34 4.567 19.297-0 7.564 3.662 14.225 3.662 22.049 0 9.824 6.13 30.228 12.363 38.077 2.779 3.503 7.467 15.794 13.175 16.13 5.696 0.34 32.867 10.873 32.867 6.942-0-5.965-2.517-12.165-3.663-17.967-2.954-15.059-4.462-30.405-5.071-45.733-1.283-33.467-4.046-67.417-4.046-100.86 0-55.743-1.82 111.47-1.82 167.22-0 36.756 1.025-73.626-2.034-110.25-2.171-25.929-4.929-52.189-9.737-77.791-2.084-11.117-3.267 3.83-3.75 7.249-2.621 18.449-2.746 74.477-2.746 55.839-0-20.266 1.375-39.936 0.104-60.227-0.521-8.507-2.083 13.21-2.117 13.474-4.67 30.195-7.62 60.663-10.658 91.06-2.604 26.034-4.933 52.445-2.725 78.605 0.588 7.211 0.708 17.694 4.458 24.297 0.784 1.384 7.417-9.401 7.605-9.699 8.683-14.292 14.395-30.69 19.566-46.551 3.267-10.018 6.304-20.161 8.317-30.522 1.008-5.248 0.504-10.207 2.829-14.905" fill="none" stroke="#eec9aa" stroke-width="52.26px"/><path d="m9825.8 464.06c1.667 50.448 12.692 106.98 31.946 154.35 4.983 12.266 9.304 30.812 10.033 44.101 0.054 0.844-0.104 9.712 1.825 6.326 10.379-18.277 12.692-39.898 15.521-60.432 2.983-21.722 1.004-43.258 3.142-64.925 0.345-3.688 0.504-8.466 1.508-12.048 0.833-2.928 2.017 5.78 2.537 8.78 2.255 12.761 3.767 25.639 5.484 38.484 4.029 30.372 7.604 59.682 8.316 90.347 0.538 23.693 8.371-46.677 10.938-70.232 4.358-39.948 10.954-160.24 10.954-120.06 0 44.684-12.654 89.478-9.929 134.24 0.054 0.919 0.937 9.569 1.217 8.881 6.145-15.458 12.483-30.778 17.845-46.551 7.05-20.723 16.13-41.526 21.096-62.883 0.242-1.048 0.779-4.224 0.604-3.167-1.3 7.845-3.07 15.597-4.666 23.379-13.146 64.161-27.484 130.4-24.446 196.21 0.05 0.91-0.383 9.669 1.925 4.493 6.112-13.676 6.912-30.98 9.533-45.528 3.75-20.711 13.213-83.14 10.45-62.274-3.108 23.513-10.729 50.276-7.1 74.011 2.554 16.642 11.442-66.305 7.604-49.92-1.441 6.205-2.22 25.363-2.22 18.991-0-30.581-17.746-63.608-29.809-90.858-8.058-18.148-16.721-36.077-25.054-54.103-4.062-8.784-9.321-15.819-16.321-22.459-3.696-3.503-12.15-15.329-17.446-16.13-5.45-0.826-6.25 29.377-6.283 31.848-0.279 22.959 8 39.865 21.996 57.475 7.725 9.707 16.387 16.721 26.875 23.379 4.6 2.919 13.279 8.041 15 13.272" fill="none" stroke="#eec9aa" stroke-width="52.26px"/><path d="m9895.1 675.38c0 8.453 7.604 13.873 14.2 18.374 6.875 4.703 11.304 14.263 18.646 17.967 12.5 6.289 18.458 13.466 28.3 23.379 3.108 3.133 3.229 7.408 7.1 10.005 1.858 1.25 4.254 3.049 5.679 4.795 4.512 5.57 11.65 17.513 13.679 24.708 1.65 5.806 2.467 11.578 3.75 17.455 2.188 9.841 9.167 16.822 14.096 25.216 13.646 23.24 11.354 48.812 11.354 74.93 0 21.445 1.025 42.742-3.542 63.394-1.02 4.661-3.8 8.273 2.642 8.273h17.342c12.571-0 25.8 0.205 37.5 3.569 4.829 1.389 11.304-1.736 16.441-1.736 10.225-0 22.084-1.192 31.93-3.675 11.266-2.836 24.145-6.766 34.583-11.431 9.875-4.422 22.917-2.899 31.021-10.618 8.041-7.643 16.008-12.471 21.912-22.866 3.625-6.406 14.825-12.12 21.092-15.723 9.412-5.416 18.333-17.942 23.108-27.561 3.821-7.698 25.904-71.285 17.846-75.341" fill="none" stroke="#eec9aa" stroke-width="52.26px"/><path d="m9964.5 711.75c27.846 28.605 50.121 61.619 62.983 100.04 6.042 18.055 18.35 43.871 12.308 63.767-3.229 10.601-2.1 27.108-2.671 38.103-0.312 6.347-1.77 12.476-1.77 19.095-0 9.405 5.97-9.275 7.1-12.228 12.5-32.834 4.633-69.846 1.771-103.68-4.013-47.009-12.05-93.975-20.488-140.37-9.737-53.729-11.404-106.17-11.404-160.88-0-10.135-6.042 19.33-8.267 29.209-10.416 46.069-17.5 91.299-21.458 138.45-0.209 2.542-0.396 17.174-0.396 6.469-4e-3 -24.893-0.679-49.618-1.671-74.482-0.171-4.27 1.009-15.303-1.091-4.849-2.83 14.158-4.325 28.303-4.325 42.751-0 37.859 4.916-75.56 7.97-113.29 2.013-24.717-5.362 13.654-6.195 18.898-4.38 27.708-5.367 55.336-7.971 83.169-0.384 4.078-0.888 17.46 1.771 5.357 5.954-27.183 10.016-56.774 12.9-84.482 2.045-19.842-1.08 10.865-1.392 14.552-2.254 27.364-3.542 54.602-3.542 82.058 0 21.977 12.067-29.201 12.396-7.274 0.104 6.615-3.125 39.94 8.875 40.624 2.013 0.113 5.121-3.734 6.683-1.011 3.092 5.403 3.384 12.169 4.825 18.088 0.538 2.24 2.659 8.327 2.659 2.526-0-5.424 1.771-21.592 1.771-16.168-1e-3 9.162-0.105 18.328-1e-3 27.49 0.259 24.02 5.292-2.148 6.301-11.322 4.533-41.413 6.095-82.54 6.095-124.2 0-26.088 3.263-54.623-0.087-80.543-3.267-25.136-4.446 50.541-5.038 75.891-0.329 14.888-0.379 29.813 0.696 44.668 0.313 4.19-0.433 11.389 0.888 15.462 0.45 1.401 1.3-2.651 1.771-4.044 2.845-8.247 3.991-17.346 5.708-25.87 2.9-14.393 5.35-28.907 8.475-43.25-0-8e-3 2.567-11.188 3.142-12.128 0.345-0.562 0.52 1.259 0.487 1.918-0.296 8.041-3.579 38.077-3.837 40.628-3.038 29.784-6.321 59.471-6.788 89.436-0.087 5.508-1.633 16.155 0 22.028 0.588 2.135 2.896-3.356 3.833-5.353 9.046-19.414 15.488-40.154 22.642-60.332 6.233-17.56 12.463-35.158 20.067-52.147 1.112-2.484 5.158-12.883 4.341-3.235-4.166 49.27-16.737 97.47-18.904 147.04-0.383 9.065-1.6 23.923 3.646 6.669 13.175-43.27 24.146-87.338 36.508-130.87 0.538-1.867 10.817-37.21 8.471-21.017-5.937 40.876-9.354 81.99-12.396 123.19-0.154 2.022-2.237 32.855 1.859 16.977 15.087-58.356 25.625-118.71 36.721-177.96 3.037-16.209 5.9-32.523 7.862-48.913 0.696-5.654 0.454-3.62 0 0.81-4.392 43.942-11.458 87.532-15.154 131.58-1.496 17.799-5.938 71.003-2.154 53.561 5.016-23.19 12.116-46.262 18.7-69.024 4.929-17.069 9.841-34.134 14.65-51.237 1.266-4.497 4.725-17.573 5.329-12.937 1.321 10.282-2.446 24.754-3.558 34.663-4.046 36.273-8.855 72.438-11.7 108.84-1.075 13.68-2.171 27.489-2.171 41.228-0 2.265 2.012-4.069 2.571-6.263 18.295-73.269 36.145-146.67 56.77-219.3 3.438-12.044 7.359-24.201 9.546-36.585 0.713-4.031-1.266 8.092-1.958 12.128-9.638 56.015-16.321 112.45-22.45 168.97-1.388 12.837-2.933 25.703-3.629 38.607-0.034 0.704-0.121 2.793 0.087 2.118 0.713-2.173 1.284-4.388 1.979-6.565 12.205-38.292 23.509-76.784 39.167-113.79 0.696-1.641 6.2-15.35 3.142-3.839-4.963 18.806-9.913 37.537-13.975 56.59-3.854 18.16-6.963 36.341-9.238 54.774-0.083 0.62-1.908 15.571-0.587 13.742 4.962-6.963 7.133-17.627 9.737-25.568 5.871-17.933 11.875-35.812 18.004-53.662 4.95-14.43 14.638-32.418 15.367-48.099 0.379-8.323-3.229 2.571-3.562 5.458-0.138 1.266 5.158-27.087 13.004-27.087 0.696-0-0.467 4.191-0.504 4.547-0.259 3.176-0.084 6.418-0.084 9.602 0 7.321 5.9-8.553 7.479-11.116 7.9-12.904 15.038-26.638 24.013-38.808 2.133-2.898 3.404-0.18 6.596-0.91 8.021-1.833 7.971-1.699 7.971 7.379v17.283c-0 10.479-0.784 21.004-7.084 29.105-5.625 7.215-9.637 17.065-15.558 23.139-7.046 7.232-11.021 14.343-11.021 25.061 0 22.975-1.271 45.997-5.208 68.319-2.121 11.934-3.196 26.612-3.646 38.601-0.575 15.195-7.083 29.961-7.083 45.478-0 14.779-7.225 60.432-26.584 60.432" fill="none" stroke="#eec9aa" stroke-width="52.26px"/><path d="m10260 653.32c-4.425 33.489-15.033 66.75-25.137 98.816-8.525 27.066-12.571 56.901-23.213 83.098-16.042 39.483-32.362 84.541-78.492 94.634-19.737 4.321-41.875-0.919-61.958-0.919-1.25 0-12.987-0.402-11.146-1.43 10.379-5.802 24.304-7.463 35.692-10.412 62.379-16.146 104.48-84.608 131.41-138.84 6.925-13.952 13.525-28.026 20.088-42.159 1.65-3.562 10.937-18.794 10.937-18.479 0 34.378-7.9 66.649-15.4 100.15-5.087 22.607-9.479 47.755-23.333 67.069-4.358 6.078-9.15 12.698-15.104 17.354-2.484 1.947-1.979 2.681-1.321 0.613 4.271-13.382 5.608-28.983 7.812-42.772 5.038-31.433 10.417-62.836 14.392-94.432 3.7-29.394 9.917-59.397 11.063-89.017 0.083-2.538 1.179-10.978-1.113-4.287-6.912 20.089-16.787 38.425-26.683 57.168-14.55 27.616-29.429 55.336-41.167 84.323-1.562 3.864-3.158 7.744-4.65 11.637-1.633 4.216 2.013-8.822 2.829-13.269 5.121-28.127 22.813-111.98 15.625-84.322-9.408 36.11-15.625 73.025-23.733 109.43-5.296 23.765 11.562-47.302 17.742-70.848 5.437-20.707 10.991-41.379 15.712-62.27 2.258-9.967 3.267-21.13 6.704-30.829 14.929-42.126-61.737 167.74-44.829 126.38 4.254-10.407 4.517-24.293 6.496-35.321 0.796-4.459 5.987-14.909 1.717-13.478-5.192 1.749-12.863 40.602-13.992 44.307-3.804 12.547-7.867 25.014-11.65 37.565-0.329 1.074-1.042 4.367-0.817 3.268 1.129-5.554 1.738-9.673 2.638-15.722 4.396-29.269 10.416-59.137 13.075-88.61 3.141-34.684-17.242 67.547-23.021 101.88-3.854 22.905 7.117-45.918 9.637-69.011 1.075-9.845 2.83-19.997-0.191-3.574-4.446 24.046-8.492 48.171-13.092 72.174-0.729 3.814-4.062 19.28-1.008 6.435 8.821-37.129 17.016-74.452 24.95-111.78 3.958-18.681 12.221-75.359 10.329-56.355-2.446 24.758-11.163 49.919-16.321 74.217-4.392 20.714-11.421 42.373-12.879 63.599-0.625 9.133-0-18.307-0-27.46-0-10.366 0.275-20.773-0-31.135-0.021-0.994 0.521-2.412-0.296-2.961-2.483-1.666-1.929 5.688-2.746 8.574-6.733 23.605-13.85 47.223-18.454 71.36-1.771 9.288-3.4 21.919-2.221 4.9 1.875-27.519 2.188-55.13 3.229-82.691 0.33-8.641 4.2-33.878 0.817-25.929-6.946 16.319-8.683 37.759-12.171 55.025-3.35 16.654-5.904 33.447-9.116 50.122-2.15 11.07-0.884-2.882-0.605-6.125 0.9-11.305 1.613-22.535 1.405-33.891-0.138-7.652-3.505 13.747-3.75 15.005-2.05 10.685-2.846 21.525-4.963 32.159-0.125 0.621 2.117-18.596 2.429-22.972 1.421-19.284 3.488-38.564 4.359-57.882 0.554-12.241-1.338 1.515-2.121 5.513-5.45 27.653-10.034 55.285-13.192 83.303-0.279 2.596-2.033 23.596-1.408 21.847 3.35-9.401 4.045-22.405 4.045-3.981 0 3.247-0.208 40.737 6.492 36.442 6.304-4.036 15.646-31.236 20.888-31.236 1.666 0-3.455 29.826 3.854 12.249 5.85-14.057 11.579-28.001 18.558-41.551 5.729-11.108 4.967-4.828 4.967 3.574-0 8.885-0.817 18.626 1.821 27.259 1.25 4.099 14.358-13.063 14.808-13.579 4.758-5.508 12.604-19.192 21.304-19.192 2.846 0 5.675 2.723 4.863 5.718-2.188 8.05-6.063 10.634-10.855 16.536-13.991 17.217-44.6-2.114-61.145-8.78-12.567-5.059-18.905-15.475-27.375-25.215-0.575-0.663-5.8-4.38-5.071-5.202 4.216-4.774 11.458-8.44 16.233-12.765 38.317-34.726 68.088-85.263 90.242-131.59 13.596-28.425 19.287-57.944 22.308-89.016 0.433-4.527 4.792-73.706 3.038-73.706-4.546 0-11.788 9.879-14.2 12.35-15.071 15.467-31.355 29.696-47.863 43.594-19.237 16.201-34.342 34.571-51.912 52.265" fill="none" stroke="#eec9aa" stroke-width="52.26px"/><path d="m10041 480.6c-10.054-1.686-21.771-9.468-31.425-12.861-31.842-11.188-64.254-16.671-97.846-19.087-19.967-1.439-59.237 0.914-62.258 28.278-3.3 29.885 51.425 31.365 69.654 33.073 43.454 4.073 86.996 5.067 130.5 0.919 11.283-1.074 14.129-1.775 3.746-6.431-14.304-6.423-28.679-12.854-43.192-18.785-42.637-17.422-86.666-31.764-132.64-36.341-4.863-0.487-37.104-5.76-37.104 5.512-0 15.953 41.495 15.064 49.879 15.723 20.087 1.573 40.4 2.152 60.537 2.55 4.15 0.084 27.813 3.36 31.129-0.818 0.434-0.541-10.729-2.303-11.145-2.345-10.85-1.095-21.859-1.846-32.759-2.143-3.996-0.114-39.912-0.609-20.991 5.818 39.204 13.311 81.25 17.69 121.79 25.111 6.079 1.116 24.325 3.582 18.146 3.88-3.979 0.189-6.771 0.567-10.542 1.838" fill="none" stroke="#eec9aa" stroke-width="52.26px"/><path d="m10088 1818.9c72.708 143.99 132.31 254.41 258.65 343.2 100.12 70.811 221.7 109.21 345.66 114 377.85 16.818 661.53-332.4 609.08-710.41-45.292-322.81-410.02-589.21-737.81-594.01-33.367-0-115.6-16.801-137.07-32.398-13.104-9.602-59.6-94.802-84.633-177.61-27.413-87.599-42.9-106.8-38.142-130.8 5.971-31.203 27.412-36.002 34.567-97.202 5.97-42-46.48-36.001-70.313 8.399-15.504 30.002-57.225 30.002-75.087 1.199-4.775-7.198-7.155-15.596-9.55-23.999-21.459 14.401-44.096 14.406-66.734 7.203-46.496-14.401-35.766-61.2-27.416-105.6-41.717 24-78.68 21.596-110.85-15.605-23.838 68.403-87.013 67.203-115.62 25.203-4.775 9.598-8.35 19.196-14.305 27.599-26.216 39.6-65.554 44.399-101.32 11.998-20.259 52.801 9.55 124.8 3.575 127.2-2.375 1.204-9.53-10.798-10.709-16.797-3.579-13.201-45.296 0-76.304-40.8-21.442-27.602-11.908-50.402 10.746-75.605 10.712-11.998-40.538-26.399-41.717-112.8-1.2-56.402 42.9-88.799 96.546-102 11.908-2.399 11.908-3.599 10.729-15.601-8.35-74.401 70.313-123.6 146.6-86.403 3.575 1.204 7.154 7.203 9.533 4.799 2.396-1.2 2.396-5.995 4.771-9.598 38.146-75.601 135.89-86.399 169.25-17.996 13.109 27.598 11.93 27.598 15.505 23.999 19.062-27.603 58.404-19.205 84.616-4.803 28.613 16.8 19.084 40.804 27.417 39.6 25.033-4.799 48.871 3.603 70.329 14.401 33.367 18.001 14.304 68.403 17.879 73.202 2.379 3.604 36.946-15.601 70.313 20.4 11.929 13.202 7.154 32.402 2.396 49.203-3.575 10.798 15.487-6.003 46.479 34.801 33.366 43.2 29.808 92.398-4.759 128.4-11.929 12.002-22.658 26.403-39.341 33.602-3.575 1.199-4.775 4.803-5.954 9.602-14.305 72.002-46.492 68.403-28.613 114 36.946 96.001 54.829 160.8 104.9 249.6 22.642 40.805 126.34 46.804 172.83 45.6 278.9-1.2 613.83 244.8 699.65 512.41 75.104 236.4-5.954 553.2-237.19 714.01-315.87 219.61-805.75 121.2-976.2-336-8.333-9.615-8.333-9.615-2.379-27.599zm-426.72-1461.6c8.354 75.606 69.133 72.007 56.025 60.005-23.838-20.4-33.367-57.601-22.638-86.399 2.38-6.003 4.759-10.802 7.155-16.805 9.529-24-38.146-20.4-40.542 43.199zm102.52-133.2c-3.575 33.602 28.595 54.006 22.641 40.804-9.533-21.599-4.758-51.602 4.775-74.401 7.15-18.001-27.416-15.601-27.416 33.597z" fill="#59322a" fill-rule="nonzero"/><path d="m9806 1358.1c2.379 25.199-30.992 28.798 11.908 138 5.954 15.601 13.108 15.601-132.31-40.8-88.196-33.601 11.929-69.602-35.746-124.8-51.267-60-148.99-79.2-145.42-90.002 42.9-115.2 70.313-97.197 145.42-71.998 7.154 2.403 120.38 54.001 128.73 58.8 44.096 25.199 16.684-1.2 27.413 130.8z" fill="#78c9f4" fill-rule="nonzero"/><path d="m9272 1209.3c81.058 1.199 222.9 70.802 269.38 93.601 73.904 36.001 90.587 51.602 82.237 92.403-7.133 38.4-23.837 46.798-3.575 62.399 28.613 20.4 427.92 168 427.92 169.2 50.05 19.2 48.871 75.601 27.412 126-94.166 226.81-133.49 334.81-241.96 511.23-5.954 9.598-5.954 8.39-15.504 5.994-120.38-30.01-147.79-51.597-247.92-104.4-20.258-10.802-63.175-123.61-76.283-260.4-3.575-31.202-34.567-44.416-57.204-15.609-17.884 22.808-16.7-10.802-41.721-28.807-9.546-7.198-15.5-2.395-22.654 4.808-16.684 14.401-20.263-14.402-30.992-28.807-8.333-9.594-20.258-10.802-28.608-0-5.955 7.203-8.334 6.015-11.913-1.187-11.925-25.204-42.917-21.604-50.067-1.204-9.533 29.994-2.379 104.4 0 135.6 3.575 39.605 14.305 46.808-3.579 45.6-23.837-2.392-97.725-45.6-119.18-60.005-39.342-26.39-64.375-40.796-65.554-80.4-1.2-68.399 79.858-396.01 135.88-555.61 28.596-82.804 29.792-111.6 73.892-110.4zm427.9 416.41c-0 20.4 13.125 21.6 109.67 62.404 152.57 63.604 158.52 68.394 171.63 53.989 34.566-39.592 57.221-52.793-11.909-71.994-172.83-50.398-263.42-118.8-269.4-44.399zm-2.375 57.601c-10.73-1.2-20.263 19.2-1.184 27.603 0-0 162.1 70.798 238.39 90.006 11.908 3.604 11.908 3.604 19.062-6.011 5.954-8.39 4.775-14.401-3.575-19.192-32.187-14.401-214.55-87.603-252.69-92.406z" fill="#78c9f4" fill-rule="nonzero"/><path d="m10056 1846.5c51.25 175.19 87.013 98.388 7.15 216.01-47.67 69.598-122.76 201.6-203.82 208.8-27.413 3.599 21.458 10.802 196.67-424.81z" fill="#78c9f4" fill-rule="nonzero"/><path d="m9993.2 1276.5c-9.534-0-88.213-164.4-98.925-188.4-3.575-7.199-2.396 1.204-35.763 14.401-8.354 3.604 1.196 1.2 34.563 94.802 11.929 32.398-28.609-37.201-47.671-85.199-1.2-3.604-3.579-2.4-5.975-2.4-201.42 70.798-379.02-146.4-271.75-328.81 88.208-148.8 288.45-160.8 383.8-36.001 67.933 90.003 64.358 186 14.304 266.4-35.762 57.601-67.933 61.204-61.979 72.002 26.217 46.803 72.708 142.8 89.396 193.2zm-137.07-188.4c89.392-40.8 145.42-139.2 128.71-240.01-15.484-93.602-103.7-180-214.55-175.2-109.65 4.804-200.25 82.804-218.12 190.81-27.413 164.4 139.46 300 303.96 224.4z" fill="#191919" fill-rule="nonzero"/><path d="m10228 940.48c-48.858 45.603-71.512 37.201-64.358 48.003 16.683 31.198 17.879 85.199 14.304 122.4-4.775 55.198 29.792 112.8 107.28 126 116.8 20.4 218.12-124.8 220.5-246 0-1.199-1.2-3.599 1.196-3.599 2.379 0 2.379 1.2 2.379 3.599 30.992 98.406-91.771 296.41-238.39 261.61-71.508-16.801-107.27-68.403-109.65-118.8-1.2-29.998 13.108-79.201-5.954-140.4-3.58-12.002-22.659 12.002-88.213 8.398-56.025-2.399-89.392-29.998-35.746-18 67.934 14.401 150.17-10.802 200.22-69.603 26.234-31.198 48.871-93.598 54.842-112.8 7.137-26.403 11.912 73.202-58.417 139.2z" fill="#191919" fill-rule="nonzero"/><path d="m10179 1534.5c-21.458 65.999-52.45 87.603-73.908 111.6-2.379 2.4-2.379 1.2-4.775-1.199-4.755-5.999-3.559-9.603 1.2-14.402 81.058-76.801 54.825-120 87.012-100.8 274.15 159.6 741.39 195.6 741.39 198-1.196 29.993-562.6-55.202-750.92-193.2z" fill="#191919" fill-rule="nonzero"/><path d="m9278 1841.7c33.383-3.599-57.204 316.81 226.48 325.21 11.908-0 21.458-4.808 22.637-2.412 7.155 19.208-132.29 39.608-210.97-66-65.555-86.399-48.855-256.8-38.142-256.8z" fill="#191919" fill-rule="nonzero"/><path d="m10722 1322.1c8.334 14.401 42.9 244.81-2.395 348.01-1.184 2.4-2.38 7.199-5.955 5.999-9.533-2.399 3.575-21.6 10.73-114 4.775-82.8-4.775-201.6-2.38-240z" fill="#191919" fill-rule="nonzero"/><path d="m10034 1270.5c5.955-3.603 23.834 11.998 28.609 16.797 58.404 63.604 100.12 121.2 84.621 205.2-7.155 37.201-20.263 31.202-19.063 22.804 3.575-38.401 14.304-81.604-20.262-138.01-47.692-74.401-71.53-100.8-73.909-106.8h4e-3z" fill="#191919" fill-rule="nonzero"/><path d="m9378.1 2085.3c0 27.599-50.05-16.796-57.204-138-4.775-80.4 7.15-94.806 10.729-80.4 8.333 46.79 3.575 62.4 22.638 146.4 7.154 31.198 19.079 56.385 23.837 71.994z" fill="#191919" fill-rule="nonzero"/><path d="m9399.6 1898.1c4.775 127.2 21.459 143.99 32.188 193.19 1.179 4.807-8.35 16.796-19.079-7.199-45.296-93.602-27.413-212.41-14.305-207.6 2.396 1.208 2.396 3.599 2.396 4.807-2.396 5.995-1.2 11.989-1.2 16.797z" fill="#191919" fill-rule="nonzero"/><path d="m9467.5 1895.7c4.775 0-1.179 93.602 27.413 187.2 3.579 13.214 13.125 37.213 4.775 40.813-10.73 3.603-22.638-37.21-26.217-48.012-26.229-80.404-14.304-181.2-5.971-180z" fill="#191919" fill-rule="nonzero"/><path d="m9849 1259.7c-15.487 129.6 8.35 164.4 60.8 237.6 2.375 3.603 0 7.202-4.775 4.803-15.487-8.398-61.979-63.604-71.512-127.2-8.35-58.801 7.154-111.6 15.487-115.2z" fill="#191919" fill-rule="nonzero"/><path d="m10148 1080.9c-17.883 19.2-78.662 39.6-116.8 56.397-72.708 33.601-71.529 34.801-73.908 32.401-4.775-9.598 232.43-133.2 190.71-88.798z" fill="#191919" fill-rule="nonzero"/><path d="m9876.4 1256.1c2.379 169.2 89.392 164.4 82.242 180-8.354 17.997-120.38-67.203-88.213-169.2 1.196-4.803 2.396-8.402 5.971-10.802z" fill="#191919" fill-rule="nonzero"/><path d="m9897.8 1248.9c41.716 141.6 121.58 117.6 116.8 135.6-1.179 5.998-7.15 3.599-11.908 2.399-44.113-13.201-79.863-36.001-97.742-81.6-4.775-14.401-15.504-43.204-7.154-56.401z" fill="#191919" fill-rule="nonzero"/><path d="m10058 842.07c2.379-31.202 87.016-99.605 92.971-90.002 2.379 3.599-34.567 40.8-44.096 50.402-23.838 23.999-32.192 39.6-38.146 46.799-3.575 4.799-10.729 3.599-10.729-7.199z" fill="#191919" fill-rule="nonzero"/><path d="m9875.2 1535.7c-20.263-8.399-21.459-8.399-23.838-11.998-10.729-26.403-34.566-98.401-30.991-124.8 1.183-5.999 8.333-7.199 9.533-1.2 16.683 79.201 25.033 96.002 45.296 138z" fill="#191919" fill-rule="nonzero"/><path d="m9965.8 564.85c-9.529-0-10.729-8.398-4.754-14.397 21.458-19.2 28.592-26.403 47.671-56.405 53.629-85.2 2.379 68.402-42.917 70.802z" fill="#191919" fill-rule="nonzero"/><path d="m9767.9 627.26c-8.35-23.999 13.108-62.399 38.141-71.997 19.063-7.203 50.055-0 48.871 9.598-1.196 5.998-9.529 5.998-14.304 4.799-40.521-8.399-65.554 33.601-69.133 54.001-1.196 1.2-1.196 2.4-3.575 3.599z" fill="#191919" fill-rule="nonzero"/><path d="m10054 651.25c0 8.403 0 15.601-7.154 18.001-7.15 3.599-13.104-0-19.062-4.799-25.034-20.4-9.546-57.601 9.533-42 9.529 9.598 16.683 17.996 16.683 28.798z" fill="#191919" fill-rule="nonzero"/><path d="m9922.8 674.06c0 2.4 0 6.003-3.575 7.203s-4.775-2.4-7.154-4.799c-46.491-99.601 2.379-52.802 10.729-2.404z" fill="#191919" fill-rule="nonzero"/><path d="m9554.5 944.07c-48.875-190.8 190.71-356.41 350.43-228.01 202.62 162 1.179 474.01-233.63 373.21-2.379-1.196-3.579-1.2-4.758-3.599 2.379-10.798 7.137-21.6 7.137-32.398 0-2.399 1.196-3.599 2.396-4.799 38.142 18.001 30.987 11.998 61.979 20.4-3.579 7.199-5.975 10.798 1.179 11.998 174.03 20.4 293.23-177.61 175.22-313.21-91.787-105.6-268.2-77.997-324.22 70.803-2.38 6.003 2.395 6.003 9.545 6.003-4.775 32.401-10.729 45.599-1.195 100.8-3.58-4.799-8.334-6.003-13.109-3.599-10.729 4.799-20.262 2.399-30.991 2.399h4e-3z" fill="#78c9f4" fill-rule="nonzero"/><path d="m9738.1 1071.3c144.23 18.001 241.96-120 202.64-234-57.221-168-287.26-156-342.08 9.598-7.154-1.2-11.925-0-9.549-5.999 56.025-148.8 232.43-176.41 324.22-70.802 118 135.6-1.2 334.81-175.22 313.21-5.954-2.4-3.579-6.003 0-12.002z" fill="#191919" fill-rule="nonzero"/><path d="m9676.1 1049.7c-3.579 4.799-2.379 10.802-9.533 7.198-48.871-31.198-66.755-67.203-82.238-112.81 25.017-15.597-3.579 38.405 91.771 105.61z" fill="#191919" fill-rule="nonzero"/><path d="m9783.4 779.66c0-28.799 33.367-17.997 41.717 15.605 5.954 27.599-36.946 21.6-41.717-15.605z" fill="#191919" fill-rule="nonzero"/><rect x="136.8" y="568.32" width="2031.2" height="838.99" fill="none"/></g></g></svg>
