<?xml version="1.0" encoding="UTF-8"?>
<svg width="20px" height="19px" viewBox="0 0 20 19" version="1.1" xmlns="http://www.w3.org/2000/svg" xmlns:xlink="http://www.w3.org/1999/xlink">
    <g id="Desktop" stroke="none" stroke-width="1" fill="none" fill-rule="evenodd">
        <g id="20200428_Unified_Toolbar_VCooke_v14-00" transform="translate(-1070.000000, -206.000000)">
            <g id="study-guides-icon" transform="translate(1070.000000, 206.000000)">
                <path d="M0.520806844,5.25949703 C0.65022242,4.49061626 1.34321211,3.95749248 2.1053772,4.01207054 L2.24897311,4.02927698 L3.27864321,4.20258779 L3.11266114,5.18871656 L2.08299104,5.01540575 C1.81067909,4.96957107 1.5527703,5.15316716 1.50693561,5.4254791 L1.50173692,5.46682997 L1.5,16.6304348 C1.5,16.8758947 1.67687516,17.0800432 1.91012437,17.1223791 L2,17.1304348 L12.5652174,17.1304348 C12.8106773,17.1304348 13.0148258,16.9535596 13.0571617,16.7203104 L13.0652174,16.6304348 L13.0652174,16.5217391 L14.0652174,16.5217391 L14.0652174,16.6304348 C14.0652174,17.4101309 13.4703293,18.0508835 12.7096774,18.1235682 L12.5652174,18.1304348 L2,18.1304348 C1.22030388,18.1304348 0.579551322,17.5355467 0.506866578,16.7748948 L0.5,16.6304348 L0.5,5.50847014 C0.5,5.42504489 0.50695975,5.34176506 0.520806844,5.25949703 Z" id="Path-21-Copy-2" fill="#5C6464" fill-rule="nonzero"></path>
                <path d="M14.4130435,0.5 C15.1927396,0.5 15.8334922,1.09488808 15.9061769,1.85553999 L15.9130435,2 L14.9130435,2 C14.9130435,1.75454011 14.7361683,1.55039163 14.5029191,1.50805567 L14.4130435,1.5 L4.74030052,1.5 C4.63421392,1.5 4.53160335,1.53371419 4.44679327,1.59520918 L4.38674713,1.64644661 L3.4942727,2.53892104 C3.41925814,2.61393559 3.37054105,2.71033176 3.35405479,2.81378506 L3.34782609,2.89247443 L3.34782609,14.7826087 C3.34782609,15.0280686 3.52470125,15.2322171 3.75795045,15.274553 L3.84782609,15.2826087 L14.6304348,15.2826087 C14.764218,15.2826087 14.8762895,15.1896492 14.9055796,15.0647996 L14.9130435,15 L15.9130435,15 C15.9130435,15.6640924 15.4083373,16.2103043 14.7615741,16.2759867 L14.6304348,16.2826087 L3.84782609,16.2826087 C3.06812997,16.2826087 2.42737741,15.6877206 2.35469267,14.9270687 L2.34782609,14.7826087 L2.34782609,2.89247443 C2.34782609,2.54437779 2.46882183,2.20875614 2.68752285,1.94183765 L2.78716592,1.83181426 L3.67964035,0.939339828 C3.92578184,0.693198332 4.2486591,0.541434898 4.59204395,0.507340001 L4.74030052,0.5 L14.4130435,0.5 Z" id="Path" fill="#5C6464" fill-rule="nonzero"></path>
                <rect id="Rectangle-Copy-29" fill="#5C6464" x="5.06521739" y="4.69565217" width="3.32608696" height="1" rx="0.5"></rect>
                <rect id="Rectangle-Copy-30" fill="#5C6464" x="5.06521739" y="6.54347826" width="6.65217391" height="1" rx="0.5"></rect>
                <rect id="Rectangle-Copy-31" fill="#5C6464" x="5.06521739" y="8.39130435" width="6.65217391" height="1" rx="0.5"></rect>
                <rect id="Rectangle-Copy-32" fill="#5C6464" x="5.06521739" y="10.2391304" width="4.25" height="1" rx="0.5"></rect>
                <path d="M5.56521739,1 L5.56521739,3.2173913 C5.56521739,3.46285119 5.38834223,3.66699967 5.15509302,3.70933563 L5.06521739,3.7173913 L2.84782609,3.7173913 L2.84782609,2.7173913 L4.565,2.717 L4.56521739,1 L5.56521739,1 Z" id="Path-20-Copy" fill="#5C6464" fill-rule="nonzero"></path>
                <g id="Group" transform="translate(11.996976, 2.500000)">
                    <path d="M3.50302404,4 C4.88373591,4 6.00302404,5.20538721 6.00302404,6.69230769 C6.00302404,7.66629824 5.52276461,8.51948968 4.80335822,8.99222246 L4.80302446,9.89999985 L2.43159546,9.89999985 L2.43110884,9.12527745 C1.58674713,8.69306883 1.00302404,7.76609986 1.00302404,6.69230769 C1.00302404,5.20538721 2.12231216,4 3.50302404,4 Z" id="Combined-Shape" fill="#F4D019"></path>
                    <path d="M4.84856792,10.5365854 L4.84856792,11.1920732 L4.84288188,11.2411924 C4.8353005,11.2728093 4.82013773,11.302168 4.79739358,11.3292683 L4.79739358,11.3292683 L4.38799889,11.8932927 L4.34108912,11.9399772 C4.2899148,11.9799924 4.22594683,12 4.14918532,12 L4.14918532,12 L2.81865258,12 L2.74615559,11.9933308 C2.67792312,11.9799924 2.62248422,11.9466464 2.57983901,11.8932927 L2.57983901,11.8932927 L2.17044432,11.3292683 L2.14201413,11.2869241 C2.12685137,11.2575654 2.11926998,11.2259485 2.11926998,11.1920732 L2.11926998,11.1920732 L2.11926998,10.5365854 L4.84856792,10.5365854 Z M3.48391895,3.51219512 C4.02977854,3.51219512 4.53299284,3.64354666 4.99356187,3.90625 C5.4541309,4.16895334 5.8180372,4.52667683 6.08528105,4.97942073 C6.35252489,5.43216463 6.48614668,5.92682927 6.48614668,6.46341463 C6.48614668,6.83231707 6.42075734,7.18165642 6.28997839,7.51143293 C6.15919945,7.84120943 5.97440332,8.1402439 5.73558975,8.40853659 C5.57638079,8.58739846 5.41717157,8.81097561 5.25796261,9.07926829 C5.06463743,9.4034552 4.92817253,9.69410578 4.84856792,9.95121951 L4.84856792,9.95121951 L4.02977854,9.95121951 L4.03356925,9.87296746 C4.03862352,9.82079946 4.04873205,9.76863149 4.06389476,9.71646341 C4.27996427,9.03455276 4.63249841,8.41971553 5.12149771,7.87195122 C5.48540402,7.4695122 5.6673573,7 5.6673573,6.46341463 C5.6673573,6.07215456 5.57069458,5.71163626 5.37736939,5.38185976 C5.18404421,5.05208325 4.91964347,4.79217471 4.58416718,4.60213415 C4.24869089,4.41209358 3.88478459,4.31707317 3.49244801,4.31707317 C3.10011143,4.31707317 2.73620512,4.40929878 2.40072883,4.59375 C2.06525254,4.77820122 1.79800896,5.03531496 1.59899756,5.36509146 C1.39998617,5.69486797 1.3004806,6.06097561 1.3004806,6.46341463 C1.3004806,7 1.48243388,7.4695122 1.84634019,7.87195122 C2.33533949,8.41971553 2.68787363,9.03455276 2.90394314,9.71646341 C2.9266872,9.79471553 2.93805936,9.87296739 2.93805936,9.95121951 L2.93805936,9.95121951 L2.11926998,9.95121951 L2.06468398,9.79292685 C1.982805,9.57650409 1.86453544,9.33861782 1.70987529,9.07926829 C1.55066633,8.81097561 1.39145711,8.58739846 1.23224815,8.40853659 C0.993434584,8.1402439 0.808638456,7.84120943 0.67785951,7.51143293 C0.547080564,7.18165642 0.481691221,6.83231707 0.481691221,6.46341463 C0.481691221,5.94918691 0.612470167,5.46570122 0.874027799,5.01295732 C1.13558543,4.56021341 1.48811983,4.19969512 1.93163075,3.93140244 C2.39788573,3.65193081 2.9153153,3.51219512 3.48391895,3.51219512 Z M3.48391895,4.97560976 C3.56352356,4.97560976 3.6289129,4.99912892 3.68008724,5.04616725 C3.73126158,5.09320557 3.75684874,5.15331002 3.75684874,5.22648084 C3.75684874,5.29965165 3.73126158,5.3597561 3.68008724,5.40679443 C3.6289129,5.45383275 3.56352356,5.47735192 3.48391895,5.47735192 C3.18824509,5.47735192 2.93237341,5.57665497 2.71630391,5.77526132 C2.5002344,5.97386768 2.39219978,6.20905931 2.39219978,6.48083624 C2.39219978,6.55400705 2.36661261,6.6141115 2.31543827,6.66114983 C2.26426394,6.70818815 2.19887459,6.73170732 2.11926998,6.73170732 C2.03966537,6.73170732 1.97427603,6.70818815 1.92310169,6.66114983 C1.87192736,6.6141115 1.84634019,6.55400705 1.84634019,6.48083624 C1.84634019,6.06271769 2.00554915,5.70731715 2.32396733,5.41463415 C2.64238551,5.12195114 3.02903587,4.97560976 3.48391895,4.97560976 Z M0.862284221,1.62081154 C0.869432847,1.62755177 0.876381779,1.6345007 0.883122013,1.64164933 L1.47753278,2.27207549 C1.68235663,2.48930964 1.68235663,2.82854617 1.47753278,3.04578032 C1.28759417,3.24722732 0.97031345,3.25655671 0.76886645,3.06661811 C0.761717824,3.05987787 0.754768892,3.05292894 0.748028657,3.04578032 L0.153617893,2.41535416 C-0.0512059644,2.19812001 -0.0512059644,1.85888348 0.153617893,1.64164933 C0.343556499,1.44020233 0.660837221,1.43087293 0.862284221,1.62081154 Z M6.83159239,1.62081154 L6.85243018,1.64164933 L6.85243018,1.64164933 C7.05725404,1.85888348 7.05725404,2.19812001 6.85243018,2.41535416 L6.25801942,3.04578032 C6.06808081,3.24722732 5.75080009,3.25655671 5.54935309,3.06661811 C5.54220446,3.05987787 5.53525553,3.05292894 5.5285153,3.04578032 C5.32369144,2.82854617 5.32369144,2.48930964 5.5285153,2.27207549 L6.12292606,1.64164933 C6.31286466,1.44020233 6.63014539,1.43087293 6.83159239,1.62081154 Z M3.50302404,-1.77635684e-15 C3.78791312,-1.82869011e-15 4.01886135,0.23094823 4.01886135,0.51583731 L4.01886135,1.46990378 C4.01886135,1.75479286 3.78791312,1.98574109 3.50302404,1.98574109 C3.21813496,1.98574109 2.98718673,1.75479286 2.98718673,1.46990378 L2.98718673,0.51583731 C2.98718673,0.23094823 3.21813496,-1.72402356e-15 3.50302404,-1.77635684e-15 Z" id="Combined-Shape" fill="#5C6464" fill-rule="nonzero"></path>
                </g>
            </g>
        </g>
    </g>
</svg>