<?xml version="1.0" encoding="UTF-8"?>
<svg width="15px" height="17px" viewBox="0 0 15 17" version="1.1" xmlns="http://www.w3.org/2000/svg" xmlns:xlink="http://www.w3.org/1999/xlink">
    <title>practice-icon</title>
    <g id="Desktop" stroke="none" stroke-width="1" fill="none" fill-rule="evenodd">
        <g id="REX_EQ_IconPage3---Mobile" transform="translate(-273.000000, -168.000000)">
            <g id="practice-icon" transform="translate(273.000000, 168.000000)">
                <path d="M14,0 C14.5522847,0 15,0.44771525 15,1 L15,16 C15,16.5522847 14.5522847,17 14,17 L1,17 C0.44771525,17 0,16.5522847 0,16 L0,1 C0,0.44771525 0.44771525,0 1,0 L14,0 Z M14,1 L1,1 L1,16 L14,16 L14,1 Z" id="Rectangle-Copy-101" fill="#5C6464" fill-rule="nonzero"></path>
                <rect id="Rectangle-Copy-55" fill="#5C6464" x="7.9" y="2.8" width="4.61637685" height="1" rx="0.5"></rect>
                <rect id="Rectangle-Copy-56" fill="#5C6464" x="7.9" y="4.169565" width="3.816377" height="1" rx="0.5"></rect>
                <rect id="Rectangle-Copy-57" fill="#5C6464" x="7.9" y="7.29913" width="4.12" height="1" rx="0.5"></rect>
                <rect id="Rectangle-Copy-59" fill="#5C6464" x="7.9" y="12.09913" width="4.12" height="1" rx="0.5"></rect>
                <rect id="Rectangle-Copy-58" fill="#5C6464" x="7.9" y="8.668696" width="3.82" height="1" rx="0.5"></rect>
                <rect id="Rectangle-Copy-60" fill="#5C6464" x="7.9" y="13.468696" width="3.82" height="1" rx="0.5"></rect>
                <rect id="Rectangle-Copy-102" stroke="#5C6464" x="3.01" y="11.68" width="3" height="3" rx="1.5"></rect>
                <path d="M4.385,5.24219775 C4.45661453,5.24219775 4.51520828,5.21615603 4.56078125,5.16407275 L7.44164063,2.292979 C7.48721359,2.24740603 7.51,2.18881228 7.51,2.11719775 C7.51,2.04558322 7.48721359,1.98698947 7.44164063,1.9414165 L7.0803125,1.589854 C7.03473953,1.53777072 6.97777344,1.511729 6.90941406,1.511729 C6.84105469,1.511729 6.78083328,1.53777072 6.72875,1.589854 L4.385,3.933604 L3.29125,2.839854 C3.23916672,2.78777072 3.17894531,2.761729 3.11058594,2.761729 C3.04222656,2.761729 2.98526047,2.78777072 2.9396875,2.839854 L2.57835938,3.1914165 C2.53278641,3.23698947 2.51,3.29558322 2.51,3.36719775 C2.51,3.43881228 2.53278641,3.49740603 2.57835938,3.542979 L4.20921875,5.16407275 C4.25479172,5.21615603 4.31338547,5.24219775 4.385,5.24219775 Z" id="c-copy-4" fill="#77AF42" fill-rule="nonzero"></path>
                <path d="M5.89636364,10.28751 C5.99484854,10.28751 6.08196964,10.2534191 6.15772727,10.1852373 L6.15772727,10.1852373 L6.40772727,9.93523727 C6.47590909,9.85947964 6.51,9.77235854 6.51,9.67387364 C6.51,9.57538873 6.47590909,9.49205545 6.40772727,9.42387364 L6.40772727,9.42387364 L5.27136364,8.28751 L6.40772727,7.15114636 C6.47590909,7.08296455 6.51,6.99963127 6.51,6.90114636 C6.51,6.80266146 6.47590909,6.71554036 6.40772727,6.63978273 L6.40772727,6.63978273 L6.15772727,6.38978273 C6.08196964,6.32160091 5.99484854,6.28751 5.89636364,6.28751 C5.79787873,6.28751 5.71454545,6.32160091 5.64636364,6.38978273 L5.64636364,6.38978273 L4.51,7.52614636 L3.37363636,6.38978273 C3.30545455,6.32160091 3.22212127,6.28751 3.12363636,6.28751 C3.02515146,6.28751 2.93803036,6.32160091 2.86227273,6.38978273 L2.86227273,6.38978273 L2.61227273,6.63978273 C2.54409091,6.71554036 2.51,6.80266146 2.51,6.90114636 C2.51,6.99963127 2.54409091,7.08296455 2.61227273,7.15114636 L2.61227273,7.15114636 L3.74863636,8.28751 L2.61227273,9.42387364 C2.54409091,9.49205545 2.51,9.57538873 2.51,9.67387364 C2.51,9.77235854 2.54409091,9.85947964 2.61227273,9.93523727 L2.61227273,9.93523727 L2.86227273,10.1852373 C2.93803036,10.2534191 3.02515146,10.28751 3.12363636,10.28751 C3.22212127,10.28751 3.30545455,10.2534191 3.37363636,10.1852373 L3.37363636,10.1852373 L4.51,9.04887364 L5.64636364,10.1852373 C5.71454545,10.2534191 5.79787873,10.28751 5.89636364,10.28751 Z" id="t-copy-4" fill="#C22032" fill-rule="nonzero"></path>
            </g>
        </g>
    </g>
</svg>