<?xml version="1.0" encoding="UTF-8"?>
<svg width="27" height="11" viewBox="0 0 27 11" xmlns="http://www.w3.org/2000/svg" xmlns:xlink="http://www.w3.org/1999/xlink">
    <g id="Page-1">
        <g id="REXTextResizeOpen---Desktop">
            <g id="Group-7">
                <path id="path1" fill="#5e6062" fill-rule="evenodd" stroke="none" d="M 17.978117 4.000019 C 17.421873 4.000019 17.143738 4.671892 17.537504 5.065629 L 21.556232 9.087501 C 21.799976 9.331244 22.196857 9.331244 22.440599 9.087501 L 26.459358 5.065629 C 26.853096 4.671892 26.574989 4.000019 26.018717 4.000019 Z"/>
                <path id="A" fill="#5e6062" fill-rule="evenodd" stroke="none" d="M 8.014 7.738 L 4.052 7.738 C 3.613331 8.727339 3.394 9.413332 3.394 9.796 C 3.394 10.076001 3.498999 10.253333 3.709 10.328 C 3.919001 10.402667 4.233998 10.440001 4.654 10.440001 L 4.654 11 L 0.818 11 L 0.818 10.440001 C 1.042001 10.412 1.235666 10.374666 1.399 10.328 C 1.562334 10.281333 1.706999 10.216001 1.833 10.132 C 1.959001 10.047999 2.068666 9.938334 2.162 9.802999 C 2.255334 9.667665 2.344 9.502001 2.428 9.306 L 6.11 0.08 L 7.146 0.08 L 10.492 8.256001 C 10.688001 8.732002 10.853666 9.105331 10.989 9.375999 C 11.124334 9.646667 11.268999 9.854332 11.423 9.999001 C 11.577001 10.143667 11.754333 10.243999 11.955 10.3 C 12.155667 10.356001 12.414665 10.398 12.732 10.426001 L 12.732 11 L 7.44 11 L 7.44 10.426001 C 7.888002 10.407333 8.209999 10.360667 8.406 10.285999 C 8.602001 10.211332 8.7 10.062001 8.7 9.837999 C 8.7 9.707333 8.667334 9.539334 8.602 9.334 C 8.536666 9.128666 8.448001 8.876668 8.336 8.578 Z M 4.374 6.898 L 7.706 6.898 L 6.096 2.656 L 6.04 2.656 Z"/>
            </g>
        </g>
    </g>
</svg>
