<?xml version="1.0" encoding="UTF-8"?>
<svg width="31" height="22" viewBox="0 0 31 22" xmlns="http://www.w3.org/2000/svg" xmlns:xlink="http://www.w3.org/1999/xlink">
    <g id="Page-1">
        <g id="REXTextResizeOpen---Desktop">
            <g id="Group-8">
                <path id="path1" fill="#5e6062" fill-rule="evenodd" stroke="none" d="M 30.02067 15.000008 C 30.577492 15.000008 30.856361 14.326791 30.462593 13.933084 L 26.441912 9.912403 C 26.197865 9.668324 25.802113 9.668324 25.558064 9.912403 L 21.537382 13.933084 C 21.143646 14.326791 21.422483 15.000008 21.979307 15.000008 Z"/>
                <path id="A" fill="#5e6062" fill-rule="evenodd" stroke="none" d="M 12.018 12.806 L 6.924 12.806 C 6.359997 14.078007 6.078 14.959997 6.078 15.452 C 6.078 15.812002 6.212999 16.039999 6.483 16.136 C 6.753001 16.232 7.157997 16.280001 7.698 16.280001 L 7.698 17 L 2.766 17 L 2.766 16.280001 C 3.054001 16.243999 3.302999 16.195999 3.513 16.136 C 3.723001 16.076 3.908999 15.992001 4.071 15.884 C 4.233001 15.775999 4.374 15.635 4.494 15.461 C 4.614001 15.286999 4.728 15.074001 4.836 14.822001 L 9.57 2.959999 L 10.902 2.959999 L 15.204 13.472 C 15.456001 14.084003 15.668999 14.563998 15.843 14.912001 C 16.017 15.260002 16.202999 15.526999 16.400999 15.712999 C 16.599001 15.899001 16.826998 16.028 17.084999 16.1 C 17.343 16.172001 17.675999 16.226 18.084 16.262001 L 18.084 17 L 11.28 17 L 11.28 16.262001 C 11.856003 16.237999 12.269999 16.178001 12.522 16.082001 C 12.774001 15.986 12.9 15.794002 12.9 15.506001 C 12.9 15.337999 12.858001 15.122002 12.774 14.858 C 12.69 14.593999 12.576001 14.270002 12.432 13.886 Z M 7.338 11.726 L 11.622 11.726 L 9.552 6.272 L 9.48 6.272 Z"/>
            </g>
        </g>
    </g>
</svg>
