<?xml version="1.0" encoding="UTF-8"?>
<svg width="27" height="18" viewBox="0 0 27 18" xmlns="http://www.w3.org/2000/svg" xmlns:xlink="http://www.w3.org/1999/xlink">
    <g id="Page-1">
        <g id="REXTextResizeOpen---Desktop">
            <g id="Group-7">
                <path id="path1" fill="#5e6062" fill-rule="evenodd" stroke="none" d="M 17.978117 7.000019 C 17.421873 7.000019 17.143738 7.671892 17.537504 8.065629 L 21.556232 12.087501 C 21.799976 12.331244 22.196857 12.331244 22.440599 12.087501 L 26.459358 8.065629 C 26.853096 7.671892 26.574989 7.000019 26.018717 7.000019 Z"/>
                <path id="A" fill="#5e6062" fill-rule="evenodd" stroke="none" d="M 9.014 10.738 L 5.052 10.738 C 4.613331 11.727339 4.394 12.413332 4.394 12.796 C 4.394 13.076001 4.498999 13.253333 4.709 13.328 C 4.919001 13.402667 5.233998 13.440001 5.654 13.440001 L 5.654 14 L 1.818 14 L 1.818 13.440001 C 2.042001 13.412 2.235666 13.374666 2.399 13.328 C 2.562334 13.281333 2.706999 13.216001 2.833 13.132 C 2.959001 13.047999 3.068666 12.938334 3.162 12.802999 C 3.255334 12.667665 3.344 12.502001 3.428 12.306 L 7.11 3.08 L 8.146 3.08 L 11.492 11.256001 C 11.688001 11.732002 11.853666 12.105331 11.989 12.375999 C 12.124334 12.646667 12.268999 12.854332 12.423 12.999001 C 12.577001 13.143667 12.754333 13.243999 12.955 13.3 C 13.155667 13.356001 13.414665 13.398 13.732 13.426001 L 13.732 14 L 8.44 14 L 8.44 13.426001 C 8.888002 13.407333 9.209999 13.360667 9.406 13.285999 C 9.602001 13.211332 9.7 13.062001 9.7 12.837999 C 9.7 12.707333 9.667334 12.539334 9.602 12.334 C 9.536666 12.128666 9.448001 11.876668 9.336 11.578 Z M 5.374 9.898 L 8.706 9.898 L 7.096 5.656 L 7.04 5.656 Z"/>
            </g>
        </g>
    </g>
</svg>
