<?xml version="1.0" encoding="UTF-8"?>
<svg width="24" height="22" viewBox="0 0 24 22" xmlns="http://www.w3.org/2000/svg" xmlns:xlink="http://www.w3.org/1999/xlink">
    <g id="Page-1">
        <g id="Group">
            <g id="g1">
                <path id="A" fill="#5e6062" fill-rule="evenodd" stroke="none" d="M 10.018 12.806 L 4.924 12.806 C 4.359997 14.078007 4.078 14.959997 4.078 15.452 C 4.078 15.812002 4.212999 16.039999 4.483 16.136 C 4.753001 16.232 5.157997 16.280001 5.698 16.280001 L 5.698 17 L 0.766 17 L 0.766 16.280001 C 1.054001 16.243999 1.302999 16.195999 1.513 16.136 C 1.723001 16.076 1.908999 15.992001 2.071 15.884 C 2.233001 15.775999 2.373999 15.635 2.494 15.461 C 2.614001 15.286999 2.727999 15.074001 2.836 14.822001 L 7.57 2.959999 L 8.902 2.959999 L 13.204 13.472 C 13.456001 14.084003 13.668999 14.563998 13.843 14.912001 C 14.017001 15.260002 14.202999 15.526999 14.401 15.712999 C 14.599001 15.899001 14.826999 16.028 15.085 16.1 C 15.343001 16.172001 15.675998 16.226 16.084 16.262001 L 16.084 17 L 9.28 17 L 9.28 16.262001 C 9.856003 16.237999 10.269999 16.178001 10.522 16.082001 C 10.774001 15.986 10.9 15.794002 10.9 15.506001 C 10.9 15.337999 10.858001 15.122002 10.774 14.858 C 10.69 14.593999 10.576001 14.270002 10.432 13.886 Z M 5.338 11.726 L 9.622 11.726 L 7.552 6.272 L 7.48 6.272 Z"/>
                <path id="path1" fill="#5e6062" fill-rule="evenodd" stroke="none" d="M 19.014 13.738 L 15.052 13.738 C 14.613331 14.727339 14.394 15.413332 14.394 15.796 C 14.394 16.076 14.498999 16.253334 14.709 16.327999 C 14.919001 16.402668 15.233998 16.440001 15.654 16.440001 L 15.654 17 L 11.818 17 L 11.818 16.440001 C 12.042001 16.411999 12.235666 16.374666 12.399 16.327999 C 12.562334 16.281334 12.707 16.216 12.833 16.132 C 12.959001 16.048 13.068666 15.938334 13.162 15.802999 C 13.255334 15.667665 13.344 15.502001 13.428 15.306 L 17.110001 6.08 L 18.146 6.08 L 21.492001 14.256001 C 21.688002 14.732002 21.853666 15.105331 21.989 15.375999 C 22.124334 15.646667 22.268999 15.854332 22.423 15.999001 C 22.577002 16.143667 22.754332 16.243999 22.955 16.299999 C 23.155668 16.356001 23.414665 16.397999 23.732 16.426001 L 23.732 17 L 18.440001 17 L 18.440001 16.426001 C 18.888002 16.407333 19.209999 16.360668 19.406 16.285999 C 19.602001 16.211332 19.700001 16.062 19.700001 15.837999 C 19.700001 15.707333 19.667334 15.539334 19.601999 15.334 C 19.536667 15.128666 19.448 14.876668 19.336 14.578 Z M 15.374 12.898 L 18.705999 12.898 L 17.096001 8.656 L 17.040001 8.656 Z"/>
            </g>
        </g>
    </g>
</svg>
